<svg width="69" height="53" viewBox="0 0 69 53" fill="none" xmlns="http://www.w3.org/2000/svg">
<path d="M68.1236 1.92C68.2845 1.86667 68.365 1.86667 68.365 1.92C68.365 1.92 68.3248 1.92 68.2443 1.92C68.1638 1.92 68.0432 1.97333 67.8823 2.08C67.7214 2.18667 67.6007 2.24 67.5202 2.24C67.4398 2.24 67.3995 2.26667 67.3995 2.32C67.3995 2.37333 67.48 2.37333 67.6409 2.32C67.7214 2.32 67.8018 2.34667 67.8823 2.4C68.0432 2.45334 68.0432 2.50667 67.8823 2.56C67.8018 2.61333 67.842 2.69333 68.0029 2.8C68.1638 2.90667 68.1638 2.98667 68.0029 3.04C67.9225 3.04 67.9225 2.98667 68.0029 2.88C68.0029 2.77333 67.8823 2.77333 67.6409 2.88C67.48 2.98667 67.48 3.04 67.6409 3.04C67.7214 3.04 67.7616 3.06667 67.7616 3.12C67.7616 3.12 67.7214 3.12 67.6409 3.12C67.48 3.28 67.48 3.33333 67.6409 3.28C67.8823 3.17334 67.8823 3.2 67.6409 3.36C67.5604 3.41333 67.5202 3.49333 67.5202 3.6C67.5202 3.65333 67.5604 3.65333 67.6409 3.6V3.68H67.5202C67.4398 3.62667 67.3995 3.65333 67.3995 3.76C67.3995 3.81334 67.3191 3.84 67.1582 3.84C66.9973 3.84 66.957 3.86667 67.0375 3.92C67.118 3.97333 67.0777 3.97333 66.9168 3.92C66.7559 3.92 66.6755 3.94667 66.6755 4C66.7559 4 66.8364 4 66.9168 4H67.1582C67.1582 3.94667 67.1984 3.92 67.2789 3.92C67.3593 3.86667 67.3593 3.86667 67.2789 3.92C67.4398 3.86667 67.5604 3.84 67.6409 3.84C67.6409 3.94667 67.6007 4 67.5202 4C67.5202 3.94667 67.4398 3.97333 67.2789 4.08L67.1582 4.16C67.3995 4 67.4398 4.02667 67.2789 4.24C67.1984 4.29334 67.1582 4.32 67.1582 4.32C67.1582 4.26667 67.0777 4.29334 66.9168 4.4C66.8364 4.50667 66.6755 4.61333 66.4341 4.72C66.2732 4.82667 66.2732 4.85333 66.4341 4.8C66.595 4.74667 66.7157 4.72 66.7961 4.72C66.9571 4.72 67.118 4.69334 67.2789 4.64C67.4398 4.53333 67.5202 4.56 67.5202 4.72V4.88C67.6007 4.88 67.6007 4.88 67.5202 4.88C67.5202 4.82667 67.6007 4.8 67.7616 4.8C68.0029 4.8 68.0432 4.85333 67.8823 4.96C67.8018 5.06667 67.7616 5.12 67.7616 5.12C67.842 5.17333 67.842 5.25333 67.7616 5.36C67.6811 5.46667 67.5604 5.54667 67.3995 5.6L67.1582 5.76C67.2386 5.86667 67.2386 5.94667 67.1582 6C67.0777 6 67.0777 6 67.1582 6C67.2386 6 67.2789 5.97333 67.2789 5.92C67.3593 5.86667 67.4398 5.86667 67.5202 5.92C67.3593 6.02667 67.2386 6.10667 67.1582 6.16C66.9973 6.32 66.957 6.42667 67.0375 6.48L67.1582 6.4H67.3995C67.5604 6.29333 67.6409 6.32 67.6409 6.48C67.7214 6.64 67.6811 6.64 67.5202 6.48C67.5202 6.58667 67.4398 6.64 67.2789 6.64C67.1984 6.58667 67.1582 6.61333 67.1582 6.72C67.1582 6.77333 67.0375 6.82667 66.7961 6.88C66.6352 6.93333 66.6352 6.98667 66.7961 7.04C66.8766 7.09333 66.8364 7.17333 66.6755 7.28C66.5146 7.28 66.3939 7.33333 66.3134 7.44C66.233 7.49333 66.1123 7.52 65.9514 7.52C65.8709 7.52 65.8307 7.54667 65.8307 7.6C65.8307 7.65334 65.7905 7.68 65.71 7.68C65.5491 7.68 65.4687 7.70667 65.4687 7.76C65.5491 7.81333 65.4284 7.89333 65.1066 8C64.8653 8.10667 64.7044 8.21333 64.6239 8.32C64.6239 8.37333 64.7044 8.34667 64.8653 8.24C65.0262 8.13333 65.0664 8.13333 64.986 8.24C64.9055 8.29333 64.825 8.34667 64.7446 8.4V8.48C64.9055 8.37333 64.8653 8.4 64.6239 8.56C64.463 8.66667 64.463 8.66667 64.6239 8.56C64.7044 8.45333 64.6239 8.48 64.3826 8.64C64.2216 8.74667 64.101 8.8 64.0205 8.8C63.9401 8.8 63.8194 8.85333 63.6585 8.96C63.578 9.06667 63.578 9.14667 63.6585 9.2H63.5378C63.4573 9.14667 63.4171 9.12 63.4171 9.12C63.4976 9.06667 63.5378 9.04 63.5378 9.04C63.4573 9.04 63.3769 9.06667 63.2964 9.12C63.2964 9.12 63.2562 9.12 63.1758 9.12C63.1758 9.17333 63.1355 9.22667 63.0551 9.28C62.9746 9.28 62.8942 9.30667 62.8137 9.36C62.7333 9.41333 62.7333 9.46667 62.8137 9.52C62.8137 9.57333 62.8137 9.6 62.8137 9.6C62.8942 9.6 62.9344 9.57333 62.9344 9.52V9.36C63.0953 9.36 63.0953 9.44 62.9344 9.6C62.8539 9.70667 62.8137 9.70667 62.8137 9.6C62.8137 9.49333 62.693 9.52 62.4517 9.68C62.2103 9.78667 61.9287 9.94667 61.6069 10.16C61.2851 10.3733 60.8828 10.6133 60.4001 10.88C60.4001 10.9867 60.3197 11.04 60.1588 11.04C59.9979 11.04 59.9174 11.0667 59.9174 11.12C59.9174 11.1733 59.7967 11.28 59.5554 11.44C59.314 11.5467 59.1129 11.6533 58.952 11.76C58.7106 11.92 58.5899 12 58.5899 12C58.5899 11.9467 58.5095 11.9733 58.3486 12.08C58.1072 12.2933 57.9463 12.4 57.8659 12.4C57.7854 12.3467 57.7854 12.2933 57.8659 12.24C57.9463 12.1333 57.9865 12.1067 57.9865 12.16C57.9865 12.16 57.9463 12.1867 57.8659 12.24C57.7854 12.2933 57.7049 12.3467 57.6245 12.4C57.6245 12.4533 57.5843 12.5067 57.5038 12.56C57.5038 12.6133 57.4636 12.6667 57.3831 12.72C57.2222 12.72 57.0613 12.8 56.9004 12.96C56.7395 13.0667 56.6591 13.0667 56.6591 12.96C56.6591 12.9067 56.7395 12.8533 56.9004 12.8C57.0613 12.6933 57.2222 12.6133 57.3831 12.56C57.3027 12.5067 57.1418 12.56 56.9004 12.72C56.7395 12.8267 56.6591 12.9067 56.6591 12.96C56.5786 13.12 56.4982 13.2 56.4177 13.2C56.3372 13.2 56.2568 13.2267 56.1763 13.28C56.1763 13.28 56.2166 13.28 56.297 13.28C56.3775 13.28 56.3372 13.3067 56.1763 13.36C56.0959 13.4133 56.0959 13.44 56.1763 13.44C56.3372 13.44 56.3775 13.4133 56.297 13.36C56.297 13.2533 56.3775 13.2533 56.5384 13.36C56.6993 13.52 56.6993 13.6267 56.5384 13.68C56.3775 13.68 56.3775 13.6267 56.5384 13.52C56.6188 13.4133 56.6188 13.3867 56.5384 13.44C56.3775 13.5467 56.2568 13.5733 56.1763 13.52C56.1763 13.4667 56.2166 13.4667 56.297 13.52C56.3775 13.5733 56.3775 13.6533 56.297 13.76C56.2166 13.8133 56.1361 13.84 56.0557 13.84V13.76C56.1361 13.7067 56.0959 13.7067 55.935 13.76C55.8545 13.8133 55.7741 13.8667 55.6936 13.92C55.6132 13.9733 55.5729 14.0267 55.5729 14.08C55.5729 14.1333 55.6132 14.1067 55.6936 14C55.8545 13.8933 55.935 13.8667 55.935 13.92C56.0154 13.92 55.9752 13.9733 55.8143 14.08C54.8489 14.6667 54.4064 14.96 54.4868 14.96C54.4064 14.96 54.3259 15.0133 54.2455 15.12C54.165 15.2267 54.1248 15.2267 54.1248 15.12C54.2052 15.0667 54.165 15.0933 54.0041 15.2C53.9237 15.3067 53.8834 15.3867 53.8834 15.44C53.803 15.44 53.6823 15.4933 53.5214 15.6C53.3605 15.7067 53.2398 15.7333 53.1594 15.68C53.1594 15.6267 53.1996 15.6267 53.28 15.68C53.28 15.7333 53.1996 15.8133 53.0387 15.92C52.8778 16.0267 52.8778 16.0267 53.0387 15.92C53.1996 15.8133 53.2398 15.7867 53.1594 15.84C53.0789 15.8933 52.9582 15.9733 52.7973 16.08C52.6364 16.1867 52.4755 16.2933 52.3146 16.4C52.1537 16.4533 52.0732 16.48 52.0732 16.48H51.9526C51.8721 16.48 51.8319 16.5067 51.8319 16.56C51.8319 16.6133 51.8721 16.64 51.9526 16.64C52.033 16.5867 52.0732 16.5867 52.0732 16.64C52.0732 16.64 51.9928 16.6933 51.8319 16.8C51.671 16.9067 51.3492 17.0933 50.8664 17.36C50.786 17.4133 50.6653 17.44 50.5044 17.44C50.4239 17.3867 50.3837 17.3333 50.3837 17.28C50.3033 17.28 50.263 17.3067 50.263 17.36C50.424 17.4133 50.424 17.4667 50.263 17.52C50.1021 17.5733 50.0217 17.6533 50.0217 17.76C50.0217 17.8133 50.1021 17.7867 50.263 17.68C50.424 17.52 50.4642 17.4667 50.3837 17.52C50.3033 17.6267 50.3033 17.6533 50.3837 17.6C50.4642 17.5467 50.3033 17.6533 49.901 17.92C49.9815 17.8133 49.9815 17.7333 49.901 17.68C49.8206 17.68 49.7401 17.7067 49.6596 17.76C49.5792 17.8133 49.6194 17.8133 49.7803 17.76L49.539 17.92C49.4585 17.9733 49.3781 18.0267 49.2976 18.08C49.0562 18.1333 48.9356 18.2133 48.9356 18.32C48.9356 18.48 48.8551 18.56 48.6942 18.56C48.6138 18.56 48.654 18.5067 48.8149 18.4C48.654 18.4533 48.5735 18.5067 48.5735 18.56C48.654 18.56 48.6138 18.56 48.4529 18.56C48.5333 18.56 48.4931 18.6133 48.3322 18.72C48.2517 18.72 48.2115 18.6933 48.2115 18.64C48.2919 18.5867 48.2919 18.6133 48.2115 18.72C48.131 18.8267 47.9299 18.96 47.6081 19.12C47.2863 19.28 47.0449 19.4133 46.884 19.52C46.7231 19.6267 46.6024 19.68 46.522 19.68C46.522 19.6267 46.6024 19.5467 46.7633 19.44C46.8438 19.3867 46.8438 19.36 46.7633 19.36C46.7633 19.36 46.6024 19.4667 46.2806 19.68C46.0393 19.84 45.9186 19.9467 45.9186 20C45.9186 20 45.9588 20 46.0393 20C45.9588 19.9467 45.9588 19.8933 46.0393 19.84C46.1197 19.7867 46.1599 19.8133 46.1599 19.92C46.1599 20.0267 46.0393 20.08 45.7979 20.08C45.7174 20.08 45.6772 20.16 45.6772 20.32C45.6772 20.4267 45.637 20.48 45.5565 20.48C45.4761 20.4267 45.4359 20.4267 45.4359 20.48C45.5163 20.5333 45.4761 20.56 45.3152 20.56C45.2347 20.6133 45.1945 20.6133 45.1945 20.56C45.275 20.5067 45.275 20.48 45.1945 20.48C45.1945 20.5333 45.1543 20.6133 45.0738 20.72C45.0738 20.7733 45.0336 20.7733 44.9531 20.72C44.8727 20.7733 44.7922 20.8 44.7118 20.8C44.7118 20.8533 44.6716 20.9067 44.5911 20.96C44.5107 20.9067 44.4704 20.9067 44.4704 20.96C44.4704 20.96 44.5107 20.9867 44.5911 21.04C44.5911 21.0933 44.6716 21.0667 44.8325 20.96C44.9129 20.8533 45.0336 20.7467 45.1945 20.64C45.4359 20.5333 45.5968 20.48 45.6772 20.48L45.0738 20.88C44.6716 21.1467 44.4704 21.3067 44.4704 21.36C44.4704 21.4133 44.4704 21.3867 44.4704 21.28C44.39 21.3867 44.1888 21.5467 43.867 21.76C43.5452 21.9733 43.3441 22.08 43.2636 22.08C43.1027 22.08 42.9418 22.16 42.7809 22.32C42.62 22.4267 42.5798 22.4267 42.6602 22.32C42.8211 22.1067 42.7407 22.1067 42.4189 22.32C42.258 22.3733 42.1775 22.4 42.1775 22.4C42.0971 22.4 42.1373 22.3467 42.2982 22.24C42.4591 22.1333 42.5798 22.08 42.6602 22.08H42.7809C42.7809 22.0267 42.8614 21.9467 43.0223 21.84C43.1832 21.7333 43.3441 21.6267 43.505 21.52C43.6659 21.4133 43.7463 21.3333 43.7463 21.28C43.8268 21.2267 43.7866 21.2533 43.6257 21.36C43.3843 21.4667 43.3843 21.44 43.6257 21.28C43.9475 21.0667 44.0682 20.9867 43.9877 21.04C43.9073 21.04 43.9073 21.0133 43.9877 20.96C44.0682 20.8533 44.1084 20.8267 44.1084 20.88C44.1888 20.9333 44.2291 20.9067 44.2291 20.8C44.2291 20.64 44.2693 20.5867 44.3497 20.64C44.4302 20.64 44.4704 20.64 44.4704 20.64C44.5509 20.5867 44.5509 20.56 44.4704 20.56C44.39 20.5067 44.2291 20.6133 43.9877 20.88C43.9073 20.88 43.867 20.9067 43.867 20.96C43.867 20.96 43.8268 20.96 43.7463 20.96C43.6659 20.96 43.505 21.04 43.2636 21.2C43.0223 21.3067 42.9418 21.3867 43.0223 21.44H42.9016C43.0625 21.3333 42.982 21.3867 42.6602 21.6C42.3384 21.76 42.2177 21.84 42.2982 21.84C42.2982 21.84 42.2177 21.8933 42.0568 22C41.9764 22.0533 41.9362 22.08 41.9362 22.08C41.9362 22.0267 41.9362 22 41.9362 22C42.0166 21.9467 42.0166 21.92 41.9362 21.92C41.9362 21.92 41.8557 21.9733 41.6948 22.08C41.373 22.2933 41.2523 22.3467 41.3328 22.24C41.4132 22.1333 41.373 22.1333 41.2121 22.24C41.0512 22.3467 41.0109 22.4 41.0914 22.4C41.1718 22.4 41.0512 22.5067 40.7294 22.72C40.4075 22.88 40.2869 22.96 40.3673 22.96C40.4478 22.96 40.4075 22.9867 40.2466 23.04C40.3271 22.9867 40.3271 22.9867 40.2466 23.04C40.1662 23.04 40.0455 23.0933 39.8846 23.2C39.7237 23.2533 39.6432 23.28 39.6432 23.28C39.6432 23.3333 39.5628 23.36 39.4019 23.36C39.3214 23.4133 39.241 23.44 39.1605 23.44C39.1605 23.3867 39.0801 23.4133 38.9192 23.52C38.7583 23.6267 38.718 23.6533 38.7985 23.6C38.8789 23.4933 38.9996 23.4667 39.1605 23.52C39.241 23.52 39.3214 23.4933 39.4019 23.44C39.4823 23.3333 39.5628 23.3067 39.6432 23.36C39.6432 23.4667 39.603 23.52 39.5226 23.52C39.5226 23.4667 39.4019 23.4933 39.1605 23.6L38.9192 23.76C38.9192 23.76 38.8789 23.76 38.7985 23.76C38.7985 23.8133 38.7583 23.8933 38.6778 24C38.5974 24.0533 38.5169 24.0533 38.4364 24C38.356 23.9467 38.356 23.9467 38.4364 24C38.5169 24 38.5571 23.9467 38.5571 23.84C38.4767 23.8933 38.3962 23.92 38.3158 23.92C38.3158 23.92 38.356 23.8933 38.4364 23.84C38.5169 23.7333 38.3962 23.7867 38.0744 24C37.833 24.16 37.7928 24.16 37.9537 24C38.0342 23.8933 37.9537 23.9467 37.7124 24.16C37.471 24.3733 37.4308 24.48 37.5917 24.48C37.5112 24.48 37.6319 24.4267 37.9537 24.32C38.1146 24.2133 38.1951 24.1867 38.1951 24.24C38.1951 24.24 38.1146 24.2933 37.9537 24.4C37.7124 24.5067 37.6319 24.5867 37.7124 24.64C37.7928 24.64 37.7526 24.64 37.5917 24.64C37.5112 24.5867 37.4308 24.6133 37.3503 24.72C37.3503 24.7733 37.3906 24.7733 37.471 24.72C37.6319 24.6667 37.6721 24.6933 37.5917 24.8C37.5112 24.9067 37.3906 24.9067 37.2296 24.8C37.1492 24.7467 37.1492 24.6933 37.2296 24.64C37.3101 24.5867 37.4308 24.56 37.5917 24.56C37.6721 24.5067 37.6319 24.48 37.471 24.48C37.3906 24.4267 37.2699 24.4533 37.109 24.56C37.0285 24.6667 36.9078 24.72 36.7469 24.72C36.8274 24.7733 36.7872 24.8267 36.6263 24.88C36.5458 24.9333 36.5458 24.9067 36.6263 24.8C36.7067 24.7467 36.6263 24.8 36.3849 24.96C36.1435 25.12 36.0229 25.2267 36.0229 25.28C36.0229 25.3333 35.9424 25.36 35.7815 25.36C35.701 25.36 35.6608 25.3867 35.6608 25.44C35.7413 25.4933 35.701 25.5733 35.5401 25.68C35.4597 25.68 35.4195 25.68 35.4195 25.68C35.4195 25.6267 35.4597 25.5733 35.5401 25.52C35.4597 25.52 35.2988 25.6 35.0574 25.76L34.2127 26.32C34.1322 26.32 33.8908 26.48 33.4886 26.8C33.1668 27.0667 33.0461 27.1733 33.1265 27.12C33.3679 26.96 33.4886 26.9067 33.4886 26.96C33.4886 26.9067 33.6093 26.8 33.8506 26.64C34.092 26.48 34.2529 26.4267 34.3333 26.48C34.4942 26.2133 34.6149 26.08 34.6954 26.08C34.8563 26.0267 35.0976 25.92 35.4195 25.76C35.7413 25.6 35.9022 25.5467 35.9022 25.6C35.9022 25.4933 35.9826 25.3867 36.1435 25.28C36.3849 25.1733 36.5458 25.0933 36.6263 25.04L36.8676 25.2H36.7469C36.586 25.2533 36.5458 25.28 36.6263 25.28C36.7067 25.2267 36.7067 25.1733 36.6263 25.12C36.6263 25.12 36.5056 25.2 36.2642 25.36C36.0229 25.52 36.0229 25.5467 36.2642 25.44C36.5056 25.3333 36.6263 25.3067 36.6263 25.36C36.7067 25.4133 36.6665 25.44 36.5056 25.44C36.1838 25.44 36.0229 25.52 36.0229 25.68C35.8619 25.6267 35.7815 25.6267 35.7815 25.68C35.8619 25.68 35.8619 25.7333 35.7815 25.84C35.701 25.8933 35.6206 25.8933 35.5401 25.84L35.4195 25.92C35.339 25.92 35.2585 25.9467 35.1781 26C35.0172 26.1067 34.8965 26.1867 34.8161 26.24V26.32H34.9367C35.0976 26.32 35.0976 26.3733 34.9367 26.48C34.8563 26.5867 34.7356 26.6667 34.5747 26.72C34.7356 26.56 34.7758 26.48 34.6954 26.48C34.6149 26.48 34.6149 26.4533 34.6954 26.4C34.7758 26.3467 34.5747 26.4533 34.092 26.72C33.8506 26.8267 33.7299 26.9067 33.7299 26.96C33.8104 26.96 33.9311 26.9067 34.092 26.8C34.2529 26.6933 34.1724 26.7467 33.8506 26.96C33.6093 27.1733 33.5288 27.28 33.6093 27.28L33.4886 27.36C33.4886 27.4133 33.4081 27.4933 33.2472 27.6C32.9254 27.8133 32.845 27.92 33.0059 27.92C33.0863 27.92 33.2472 27.84 33.4886 27.68C33.6495 27.5733 33.7299 27.52 33.7299 27.52C33.8104 27.52 33.8506 27.4933 33.8506 27.44C33.7702 27.44 33.8104 27.4133 33.9713 27.36C34.1322 27.2533 34.1322 27.2533 33.9713 27.36C33.8908 27.4133 33.8908 27.44 33.9713 27.44C34.1322 27.44 33.9311 27.6 33.3679 27.92C32.8852 28.1867 32.6438 28.48 32.6438 28.8C32.6438 29.1733 32.7243 29.2533 32.8852 29.04C32.8852 28.9333 32.8852 29.04 32.8852 29.36C32.9656 29.68 33.0461 30.0533 33.1265 30.48C33.207 30.9067 33.2472 31.28 33.2472 31.6C33.3277 31.92 33.4081 32.0533 33.4886 32C33.569 31.9467 33.6093 31.9733 33.6093 32.08C33.6093 32.1867 33.5288 32.24 33.3679 32.24C33.2874 32.1867 33.2472 32.2133 33.2472 32.32C33.3277 32.5867 33.4081 32.6933 33.4886 32.64C33.6495 32.5333 33.6495 32.48 33.4886 32.48C33.3277 32.48 33.2874 32.4533 33.3679 32.4C33.5288 32.2933 33.569 32.4 33.4886 32.72C33.4886 33.04 33.569 33.3867 33.7299 33.76C33.7299 33.8667 33.6897 33.92 33.6093 33.92C33.6897 34.0267 33.7702 34.2133 33.8506 34.48C34.0115 34.7467 34.092 34.9333 34.092 35.04C34.1724 35.3067 34.1322 35.4133 33.9713 35.36C33.8104 35.3067 33.7299 35.3067 33.7299 35.36C33.7299 35.4133 33.8104 35.44 33.9713 35.44C34.1322 35.4933 34.1724 35.6 34.092 35.76C34.092 35.8667 34.1322 35.92 34.2127 35.92C34.1322 35.92 34.092 35.9733 34.092 36.08C34.0115 36.1867 33.9713 36.1067 33.9713 35.84C33.9713 35.5733 33.8908 35.52 33.7299 35.68H33.8506C33.9311 35.6267 33.9311 35.8133 33.8506 36.24C33.8506 36.6133 33.8908 36.7733 33.9713 36.72C34.0518 36.72 34.0518 36.6933 33.9713 36.64C33.9713 36.5867 34.0115 36.56 34.092 36.56C34.1724 36.5067 34.1724 36.6133 34.092 36.88C34.092 37.0933 34.092 37.2267 34.092 37.28C34.092 37.3333 34.092 37.36 34.092 37.36C34.1724 37.36 34.2127 37.4133 34.2127 37.52C34.2127 37.5733 34.1724 37.5467 34.092 37.44C34.0115 37.3867 33.9311 37.3867 33.8506 37.44C33.8506 37.44 33.9311 37.4933 34.092 37.6C34.2529 37.7067 34.2529 37.8133 34.092 37.92C34.0115 37.9733 34.0518 38.0533 34.2127 38.16C34.3736 38.2133 34.4138 38.24 34.3333 38.24C34.3333 38.1867 34.2931 38.16 34.2127 38.16L34.3333 38.24V38.16C34.4942 38.32 34.4942 38.4533 34.3333 38.56C34.2529 38.6667 34.2529 38.6933 34.3333 38.64C34.4138 38.6933 34.454 38.72 34.454 38.72C34.5345 38.7733 34.5747 38.8267 34.5747 38.88C34.4942 38.88 34.454 38.88 34.454 38.88C34.454 38.8267 34.4138 38.8 34.3333 38.8C34.3333 38.7467 34.3333 38.7733 34.3333 38.88C34.3333 38.9867 34.3333 39.0667 34.3333 39.12C34.4138 39.12 34.4942 39.1733 34.5747 39.28C34.5747 39.2267 34.6149 39.2533 34.6954 39.36C34.6954 39.7333 34.7356 39.9733 34.8161 40.08C34.977 40.1867 34.977 40.2667 34.8161 40.32C34.7356 40.3733 34.7356 40.4267 34.8161 40.48C34.977 40.5333 35.0574 40.5867 35.0574 40.64C35.1379 41.0667 35.2183 41.3067 35.2988 41.36C35.3792 41.4133 35.3792 41.44 35.2988 41.44C35.2183 41.44 35.2183 41.52 35.2988 41.68C35.3792 41.7867 35.3792 41.84 35.2988 41.84C35.1379 41.84 35.0574 41.8933 35.0574 42C35.1379 42.0533 35.1781 42.0533 35.1781 42C35.1781 41.8933 35.2183 41.84 35.2988 41.84C35.3792 41.84 35.3792 41.8667 35.2988 41.92V42C35.3792 42 35.4195 42.0533 35.4195 42.16C35.4195 42.2133 35.3792 42.2667 35.2988 42.32C35.2183 42.32 35.2183 42.3467 35.2988 42.4C35.4597 42.5067 35.4999 42.56 35.4195 42.56C35.339 42.5067 35.2988 42.56 35.2988 42.72C35.3792 42.7733 35.4195 42.8 35.4195 42.8C35.4195 42.7467 35.4195 42.72 35.4195 42.72C35.4999 42.72 35.4999 42.8 35.4195 42.96C35.4195 43.12 35.4597 43.2267 35.5401 43.28C35.3792 43.28 35.339 43.3067 35.4195 43.36C35.4999 43.4133 35.5401 43.6 35.5401 43.92C35.5401 44.1333 35.5401 44.2667 35.5401 44.32C35.6206 44.32 35.6608 44.32 35.6608 44.32C35.7413 44.2667 35.7815 44.24 35.7815 44.24C35.8619 44.1867 35.9022 44.2133 35.9022 44.32C35.9022 44.48 35.9022 44.56 35.9022 44.56C35.9022 44.5067 35.9424 44.5867 36.0229 44.8C36.1838 45.2267 36.3044 45.6267 36.3849 46C36.5458 46.32 36.6665 46.64 36.7469 46.96C36.8274 47.28 36.8676 47.4933 36.8676 47.6C36.9481 47.8667 36.9883 48.08 36.9883 48.24C37.0687 48.3467 37.0285 48.4 36.8676 48.4C36.7067 48.3467 36.6263 48.3467 36.6263 48.4C36.6263 48.4 36.7067 48.4 36.8676 48.4C37.2699 48.4 37.3101 48.5067 36.9883 48.72H37.109C37.4308 48.72 37.471 48.8 37.2296 48.96C37.2296 49.0133 37.2296 49.0133 37.2296 48.96C37.3101 48.8533 37.2699 48.8 37.109 48.8C36.7872 48.6933 36.6665 48.6667 36.7469 48.72C36.8274 48.9867 36.9078 49.2267 36.9883 49.44C37.1492 49.6533 37.2296 49.84 37.2296 50C37.3101 50.2133 37.3906 50.3733 37.471 50.48C37.6319 50.6933 37.5917 50.7467 37.3503 50.64C37.1894 50.5867 37.1894 50.6133 37.3503 50.72C37.4308 50.7733 37.471 50.8533 37.471 50.96C37.5515 51.0667 37.5112 51.0667 37.3503 50.96C37.3503 50.9067 37.3101 50.88 37.2296 50.88C37.2296 50.88 37.2296 50.8533 37.2296 50.8C37.1492 50.8 37.109 50.8 37.109 50.8C37.0285 50.8 37.0687 50.88 37.2296 51.04C37.3906 51.2533 37.3906 51.3067 37.2296 51.2C37.0687 51.2 37.0687 51.2267 37.2296 51.28C37.3906 51.3867 37.4308 51.44 37.3503 51.44C37.2699 51.44 37.2699 51.4667 37.3503 51.52V51.6C37.2699 51.6 37.1894 51.5467 37.109 51.44C37.0285 51.3333 36.9883 51.3067 36.9883 51.36C36.9883 51.4133 36.9481 51.4133 36.8676 51.36C36.8676 51.3067 36.8676 51.2533 36.8676 51.2C36.7872 51.1467 36.7067 51.0667 36.6263 50.96C36.6263 50.6933 36.586 50.5867 36.5056 50.64C36.4251 50.64 36.4653 50.8 36.6263 51.12C36.7872 51.44 36.7872 51.5467 36.6263 51.44C36.4653 51.28 36.3447 50.9867 36.2642 50.56C36.1838 50.1867 36.0631 50.0267 35.9022 50.08C35.8217 50.1867 35.8619 50.4 36.0229 50.72C36.2642 51.04 36.3044 51.12 36.1435 50.96C36.0631 50.8533 36.0229 50.8 36.0229 50.8C36.0229 50.6933 35.9826 50.5333 35.9022 50.32C35.8217 50.16 35.7413 50.1067 35.6608 50.16C35.6608 50.0533 35.5804 50 35.4195 50C35.2585 50 35.1781 50 35.1781 50C35.2585 50.0533 35.339 50.08 35.4195 50.08C35.4999 50.0267 35.4999 50.0267 35.4195 50.08C35.339 50.1867 35.3792 50.2667 35.5401 50.32C35.6206 50.4267 35.5804 50.48 35.4195 50.48C35.339 50.48 35.339 50.5333 35.4195 50.64C35.4195 50.7467 35.3792 50.8533 35.2988 50.96C35.2988 51.0667 35.2988 51.0667 35.2988 50.96C35.2988 50.8533 35.2585 50.8 35.1781 50.8C35.1781 50.8 35.2183 50.7467 35.2988 50.64C35.2988 50.5333 35.2183 50.4533 35.0574 50.4C34.977 50.3467 34.977 50.32 35.0574 50.32C35.1379 50.3733 35.2183 50.3733 35.2988 50.32C35.3792 50.2667 35.3792 50.24 35.2988 50.24C35.1379 50.24 35.0976 50.2133 35.1781 50.16C35.2585 50.1067 35.2585 50.08 35.1781 50.08C35.0976 50.08 35.0172 50.0267 34.9367 49.92C34.9367 49.8133 34.8965 49.8133 34.8161 49.92C34.8161 49.9733 34.8563 50 34.9367 50C35.0172 49.9467 35.0574 49.9467 35.0574 50C35.0574 50.1067 34.977 50.1867 34.8161 50.24C34.7356 50.2933 34.6954 50.32 34.6954 50.32C34.6149 50.4267 34.5747 50.48 34.5747 50.48C34.6552 50.48 34.6954 50.4533 34.6954 50.4C34.6954 50.24 34.7758 50.2667 34.9367 50.48C35.0976 50.6933 35.0976 50.72 34.9367 50.56C34.7758 50.4533 34.8161 50.64 35.0574 51.12C35.0574 51.28 35.0976 51.36 35.1781 51.36C35.1781 51.2533 35.2183 51.2533 35.2988 51.36C35.3792 51.52 35.339 51.6267 35.1781 51.68C35.339 51.7333 35.4195 51.8133 35.4195 51.92C35.4195 52.08 35.4597 52.2133 35.5401 52.32C35.3792 52.32 35.2585 52.3467 35.1781 52.4C35.0976 52.5067 35.0976 52.5867 35.1781 52.64V52.56C35.1781 52.4 35.2585 52.4267 35.4195 52.64C35.4999 52.8 35.5401 52.88 35.5401 52.88C35.5401 52.88 35.4195 52.8 35.1781 52.64C35.2585 52.7467 35.2988 52.8 35.2988 52.8L35.4195 52.88C35.4195 52.9333 35.4195 52.96 35.4195 52.96L35.2988 52.88V52.8C35.1379 52.6933 35.0172 52.6667 34.9367 52.72C34.7758 52.72 34.8161 52.64 35.0574 52.48C35.1379 52.4267 35.1379 52.4 35.0574 52.4C34.8965 52.4533 34.7758 52.4267 34.6954 52.32C34.6149 52.2133 34.6552 52.2133 34.8161 52.32C34.8965 52.3733 34.8965 52.2933 34.8161 52.08C34.7356 51.92 34.6552 51.84 34.5747 51.84C34.4942 51.7867 34.4942 51.7867 34.5747 51.84C34.6552 51.9467 34.6552 52 34.5747 52C34.4138 52 34.3736 51.9467 34.454 51.84C34.5345 51.7333 34.5345 51.68 34.454 51.68C34.3736 51.7333 34.2931 51.68 34.2127 51.52C34.2127 51.36 34.2127 51.2533 34.2127 51.2C34.1322 51.1467 34.092 51.0133 34.092 50.8C34.092 50.64 34.0115 50.5333 33.8506 50.48C33.8506 50.2667 33.9311 50.16 34.092 50.16C34.0115 50.16 34.0115 50.1333 34.092 50.08C34.1724 50.0267 34.1724 49.9733 34.092 49.92C34.092 49.92 34.0115 49.9733 33.8506 50.08C33.7702 50.1333 33.7299 50.1333 33.7299 50.08V50C33.8104 50.0533 33.8506 50 33.8506 49.84C33.9311 49.7333 33.8908 49.7333 33.7299 49.84C33.6495 49.7333 33.569 49.68 33.4886 49.68C33.4081 49.7333 33.3679 49.7333 33.3679 49.68C33.3679 49.5733 33.3277 49.4933 33.2472 49.44C33.2472 49.3867 33.207 49.3333 33.1265 49.28C32.9656 49.28 32.9254 49.36 33.0059 49.52C33.1668 49.68 33.2874 49.92 33.3679 50.24C33.3679 50.3467 33.4081 50.4 33.4886 50.4C33.6495 50.4533 33.6495 50.5067 33.4886 50.56V50.72C33.4081 50.6667 33.3277 50.6667 33.2472 50.72C33.2472 50.7733 33.2472 50.7467 33.2472 50.64C33.3277 50.5333 33.2472 50.24 33.0059 49.76C32.7645 49.28 32.6841 49.0133 32.7645 48.96C32.845 48.9067 32.845 48.88 32.7645 48.88C32.7645 48.88 32.7243 48.88 32.6438 48.88C32.6438 48.7733 32.6036 48.7467 32.5231 48.8C32.4427 48.8 32.4025 48.72 32.4025 48.56C32.322 48.5067 32.2416 48.4533 32.1611 48.4C32.0807 48.2933 32.0807 48.24 32.1611 48.24L31.9197 48C31.9197 48 31.8393 47.8133 31.6784 47.44C31.5979 47.0667 31.5175 46.88 31.437 46.88C31.3566 46.88 31.3566 46.9067 31.437 46.96C31.437 47.0133 31.3968 47.0133 31.3164 46.96C31.1554 46.9067 31.1152 46.9333 31.1957 47.04C31.2761 47.0933 31.2761 47.1467 31.1957 47.2C31.1152 47.2 31.075 47.1733 31.075 47.12C30.9945 47.1733 30.8739 47.1467 30.713 47.04C30.552 46.9333 30.4314 46.88 30.3509 46.88V46.72C30.3509 46.6667 30.3107 46.6933 30.2302 46.8C30.0693 46.9067 30.0291 46.9067 30.1096 46.8C30.19 46.64 30.1498 46.56 29.9889 46.56C29.9084 46.56 29.8682 46.6133 29.8682 46.72C29.9486 46.8267 30.0291 46.9333 30.1096 47.04C30.19 47.1467 30.19 47.2 30.1096 47.2C30.0291 47.2 29.9084 46.9867 29.7475 46.56C29.5866 46.08 29.3855 45.52 29.1441 44.88C28.9028 44.1867 28.6614 43.44 28.42 42.64C28.2591 41.7867 28.0982 40.9867 27.9373 40.24C27.9373 40.08 27.9775 40 28.058 40C28.1385 40 28.0982 39.9733 27.9373 39.92C27.7764 39.8133 27.7362 39.7067 27.8166 39.6C27.9775 39.44 27.9775 39.36 27.8166 39.36V39.28C27.7362 39.28 27.7362 39.2 27.8166 39.04C27.8971 38.88 27.8569 38.8 27.696 38.8C27.6155 38.8 27.6155 38.8 27.696 38.8C27.8569 38.7467 27.8569 38.64 27.696 38.48C27.5351 38.32 27.4546 38.0533 27.4546 37.68C27.4546 37.3067 27.3339 36.8267 27.0926 36.24C26.9317 35.76 26.7708 35.1467 26.6098 34.4C26.5294 33.6 26.4489 33.2 26.3685 33.2V32.48C25.9662 32.7467 25.5237 32.9867 25.041 33.2C24.7997 33.36 24.7192 33.4133 24.7997 33.36C24.8801 33.2533 24.8399 33.2533 24.679 33.36C24.5985 33.4667 24.5181 33.4933 24.4376 33.44C24.4376 33.3867 24.4376 33.3867 24.4376 33.44C24.4376 33.4933 24.3974 33.52 24.3169 33.52C24.3169 33.52 24.3169 33.5467 24.3169 33.6H24.4376C24.3572 33.7067 24.2365 33.7333 24.0756 33.68C23.9951 33.6267 23.9549 33.6267 23.9549 33.68C23.8744 33.84 23.794 33.92 23.7135 33.92C23.7135 33.92 23.6331 33.9733 23.4722 34.08C23.6331 34.0267 23.5526 34.08 23.2308 34.24C22.8286 34.4533 22.6274 34.56 22.6274 34.56C22.7079 34.56 22.6274 34.6667 22.3861 34.88C22.1447 35.04 21.9838 35.12 21.9033 35.12C21.9033 35.12 21.8631 35.1733 21.7827 35.28C21.7022 35.3867 21.6218 35.4133 21.5413 35.36C21.5413 35.3067 21.4206 35.3867 21.1793 35.6C21.0988 35.7067 21.0184 35.76 20.9379 35.76C20.8575 35.7067 20.8172 35.7067 20.8172 35.76C20.7368 35.8667 20.6563 35.8933 20.5759 35.84C20.5759 35.7867 20.5759 35.8133 20.5759 35.92C20.4954 35.8667 20.4552 35.8667 20.4552 35.92C20.3747 36.0267 20.3345 36.0533 20.3345 36C20.3345 35.9467 20.2541 35.9733 20.0931 36.08C20.0931 36.1867 20.0529 36.24 19.9725 36.24C19.892 36.24 19.892 36.2133 19.9725 36.16L19.8518 36.24C19.7713 36.2933 19.7713 36.32 19.8518 36.32C20.0127 36.2133 20.0127 36.2133 19.8518 36.32C19.7713 36.3733 19.6909 36.4 19.6104 36.4C19.53 36.4 19.4495 36.4533 19.3691 36.56C19.2886 36.6133 19.2082 36.64 19.1277 36.64C19.1277 36.6933 19.0875 36.72 19.007 36.72C19.007 36.72 19.007 36.6933 19.007 36.64C19.007 36.5867 19.0473 36.5333 19.1277 36.48C19.2082 36.3733 19.2886 36.2667 19.3691 36.16C18.9668 36.48 18.8059 36.56 18.8864 36.4L18.645 36.56C18.645 36.5067 18.5645 36.5333 18.4036 36.64C18.3232 36.64 18.2427 36.6667 18.1623 36.72C18.0818 36.6667 18.0014 36.6933 17.9209 36.8C17.9209 36.9067 18.0818 36.88 18.4036 36.72C18.5645 36.5067 18.645 36.48 18.645 36.64C18.645 36.7467 18.7254 36.7467 18.8864 36.64C18.9668 36.5867 19.007 36.6133 19.007 36.72C19.007 36.7733 18.9668 36.7733 18.8864 36.72C18.8059 36.6667 18.645 36.7467 18.4036 36.96C18.2427 37.1733 18.2025 37.2267 18.283 37.12C18.3634 37.0667 18.3634 37.04 18.283 37.04C18.2025 36.9867 18.1623 37.0133 18.1623 37.12C18.0818 37.2267 18.0014 37.3067 17.9209 37.36C17.8405 37.4133 17.8002 37.4133 17.8002 37.36C17.8002 37.3067 17.76 37.28 17.6796 37.28C17.5991 37.3333 17.5991 37.3867 17.6796 37.44C17.76 37.4933 17.7198 37.52 17.5589 37.52H17.4382C17.4382 37.4667 17.398 37.44 17.3175 37.44C17.3175 37.44 17.3175 37.4667 17.3175 37.52C17.1566 37.6267 17.0762 37.68 17.0762 37.68C17.0762 37.6267 16.9957 37.6533 16.8348 37.76C16.7543 37.8133 16.7141 37.84 16.7141 37.84C16.7141 37.7867 16.7543 37.7333 16.8348 37.68C16.9957 37.5733 17.0359 37.52 16.9555 37.52C16.9555 37.52 16.875 37.5733 16.7141 37.68C16.5532 37.7867 16.4728 37.8133 16.4728 37.76C16.4728 37.7067 16.4728 37.7333 16.4728 37.84C16.4728 37.8933 16.4325 37.9467 16.3521 38C16.2716 38.0533 16.2716 38.0267 16.3521 37.92C16.4325 37.8133 16.3923 37.8133 16.2314 37.92C16.0705 38.0267 15.99 38.0533 15.99 38L15.8694 38.08C15.7085 38.1333 15.6682 38.1067 15.7487 38C15.8291 37.8933 15.9498 37.84 16.1107 37.84V37.76C16.0303 37.7067 16.0303 37.6533 16.1107 37.6C16.1912 37.4933 16.2716 37.4667 16.3521 37.52C16.2716 37.52 16.3923 37.44 16.7141 37.28C16.875 37.1733 16.8348 37.1733 16.5934 37.28C16.3521 37.3867 16.0705 37.52 15.7487 37.68C15.5073 37.84 15.266 37.9733 15.0246 38.08C14.8637 38.1867 14.9039 38.1867 15.1453 38.08C15.2257 38.08 15.3062 38.1067 15.3866 38.16C15.5476 38.16 15.5878 38.16 15.5073 38.16H15.3866C15.3866 38.1067 15.3062 38.16 15.1453 38.32C15.0648 38.4267 14.9442 38.4267 14.7832 38.32C14.7832 38.2667 14.743 38.24 14.6626 38.24C14.6626 38.24 14.6626 38.2667 14.6626 38.32V38.4C14.8235 38.4 14.8235 38.48 14.6626 38.64C14.5017 38.8 14.4212 38.8533 14.4212 38.8C14.3408 38.7467 14.3005 38.7733 14.3005 38.88C14.381 38.9333 14.4614 38.9333 14.5419 38.88C14.7028 38.8267 14.743 38.88 14.6626 39.04C14.5821 39.1467 14.5017 39.1467 14.4212 39.04C14.4212 38.88 14.3005 38.88 14.0592 39.04C13.9787 39.0933 13.9385 39.12 13.9385 39.12C13.7776 39.12 13.6971 39.0933 13.6971 39.04C13.7776 38.9867 13.858 38.9867 13.9385 39.04C13.9385 39.0933 13.9385 39.12 13.9385 39.12C14.0189 39.12 14.0592 39.0933 14.0592 39.04C14.0592 38.8267 13.858 38.9067 13.4558 39.28C13.2144 39.44 13.0133 39.5733 12.8524 39.68C12.5306 39.8933 12.4903 39.9467 12.7317 39.84C12.8926 39.7867 12.9328 39.7867 12.8524 39.84C12.8524 39.84 12.7719 39.8933 12.611 40C12.4501 40.0533 12.3697 40.08 12.3697 40.08C12.2088 40.08 12.2088 40.0267 12.3697 39.92C12.5306 39.8133 12.5306 39.8133 12.3697 39.92C12.2088 40.0267 12.1283 40.0533 12.1283 40C12.2087 39.9467 12.1685 39.9733 12.0076 40.08C11.8467 40.1867 11.8065 40.24 11.8869 40.24C11.9674 40.24 12.0076 40.2133 12.0076 40.16C12.1685 40.0533 12.249 40.16 12.249 40.48C12.249 40.5867 12.0881 40.64 11.7663 40.64C11.8467 40.6933 11.7663 40.7733 11.5249 40.88C11.2835 40.9333 11.0824 41.0133 10.9215 41.12C10.6801 41.28 10.5595 41.3333 10.5595 41.28C10.6399 41.2267 10.5997 41.2 10.4388 41.2C10.3583 41.2 10.3583 41.1733 10.4388 41.12C10.5192 41.0667 10.5192 41.0133 10.4388 40.96C10.3583 40.96 10.3181 41.0133 10.3181 41.12C10.1572 41.0667 10.1572 41.12 10.3181 41.28C10.3986 41.44 10.3986 41.4933 10.3181 41.44C10.2376 41.44 10.2376 41.4667 10.3181 41.52C10.3181 41.52 10.2377 41.5467 10.0767 41.6C9.91584 41.6 9.83539 41.6533 9.83539 41.76C9.75493 41.7067 9.67448 41.7067 9.59403 41.76L9.47335 41.84C9.5538 41.84 9.5538 41.8667 9.47335 41.92C9.31244 41.9733 9.27221 42 9.35267 42C9.43312 42 9.47335 42.0267 9.47335 42.08C9.39289 42.1333 9.31244 42.1333 9.23199 42.08C9.07108 41.9733 9.03086 41.9467 9.11131 42C9.19176 42.0533 9.19176 42.1333 9.11131 42.24C8.9504 42.3467 8.91018 42.3733 8.99063 42.32C8.99063 42.2133 8.91018 42.16 8.74927 42.16C8.82972 42.16 8.86995 42.2133 8.86995 42.32C8.86995 42.4267 8.86995 42.4533 8.86995 42.4C8.86995 42.3467 8.7895 42.3467 8.62859 42.4C8.54814 42.4533 8.50791 42.4533 8.50791 42.4C8.42746 42.2933 8.38723 42.2667 8.38723 42.32L8.50791 42.24C8.58836 42.24 8.62859 42.2133 8.62859 42.16C8.54814 42.1067 8.46768 42.1067 8.38723 42.16C8.22633 42.2133 8.14587 42.2667 8.14587 42.32C8.22632 42.32 8.22632 42.32 8.14587 42.32C8.06542 42.32 7.90451 42.3733 7.66315 42.48C7.42179 42.64 7.30111 42.6933 7.30111 42.64C7.22066 42.5867 7.18043 42.6133 7.18043 42.72C7.18043 42.7733 7.18043 42.8 7.18043 42.8C7.09998 42.7467 7.01953 42.7733 6.93908 42.88C6.85862 42.9867 6.85862 43.0133 6.93908 42.96C6.93908 42.9067 7.01953 42.88 7.18043 42.88C7.34134 42.8267 7.42179 42.7733 7.42179 42.72C7.42179 42.6667 7.50225 42.64 7.66315 42.64V42.8C7.74361 42.7467 7.78383 42.7467 7.78383 42.8C7.78383 42.8533 7.74361 42.88 7.66315 42.88C7.5827 42.88 7.50225 42.9067 7.42179 42.96C7.34134 43.0133 7.22066 43.0667 7.05976 43.12C6.9793 43.1733 6.9793 43.2267 7.05976 43.28C7.05976 43.28 6.9793 43.28 6.8184 43.28C6.73794 43.28 6.61726 43.3333 6.45636 43.44C6.3759 43.4933 6.29545 43.5467 6.215 43.6C6.13454 43.6533 6.01387 43.7333 5.85296 43.84C5.6116 43.8933 5.45069 43.8933 5.37024 43.84C5.37024 43.7867 5.41047 43.76 5.49092 43.76C5.49092 43.76 5.69205 43.6267 6.09432 43.36C6.33568 43.3067 6.45636 43.28 6.45636 43.28C6.53681 43.28 6.61726 43.2533 6.69772 43.2C6.69772 43.0933 6.65749 43.0133 6.57704 42.96C6.49658 42.96 6.45636 42.96 6.45636 42.96V43.04C6.29545 43.04 6.25522 43.0667 6.33568 43.12C6.41613 43.12 6.3759 43.1467 6.215 43.2C6.05409 43.2533 6.01387 43.3067 6.09432 43.36C6.17477 43.36 6.17477 43.36 6.09432 43.36C6.01387 43.3067 5.97364 43.3333 5.97364 43.44C5.97364 43.4933 5.89319 43.4667 5.73228 43.36C5.65183 43.3067 5.57137 43.3067 5.49092 43.36C5.41047 43.4133 5.37024 43.44 5.37024 43.44C5.37024 43.3867 5.33001 43.4133 5.24956 43.52C5.08866 43.5733 5.04843 43.6 5.12888 43.6C5.12888 43.6533 5.08866 43.7067 5.0082 43.76C4.92775 43.76 4.92775 43.7333 5.0082 43.68C5.0082 43.6267 4.92775 43.6267 4.76684 43.68C4.60594 43.7333 4.60594 43.7333 4.76684 43.68C4.8473 43.5733 4.68639 43.5467 4.28413 43.6L4.52548 43.44C4.60594 43.44 4.64616 43.44 4.64616 43.44C4.56571 43.4933 4.48526 43.52 4.4048 43.52H4.16344V43.44C4.00254 43.4933 3.96231 43.5467 4.04277 43.6C4.12322 43.6 4.04277 43.5733 3.80141 43.52L3.92209 43.44C4.00254 43.3867 3.96231 43.3867 3.80141 43.44C3.6405 43.76 3.23823 43.92 2.59461 43.92C2.51416 43.92 2.67506 43.84 3.07733 43.68C3.39914 43.52 3.76118 43.3333 4.16344 43.12C4.56571 42.9067 4.96798 42.72 5.37024 42.56C5.69205 42.4 5.81273 42.2933 5.73228 42.24C5.57137 42.1867 5.57137 42.1333 5.73228 42.08C5.89319 42.0267 5.97364 41.9733 5.97364 41.92C6.05409 41.92 6.09432 41.8933 6.09432 41.84C6.09432 41.7333 6.05409 41.7067 5.97364 41.76C5.81273 41.8667 5.73228 41.8667 5.73228 41.76C5.73228 41.6533 5.81273 41.6 5.97364 41.6C6.13455 41.5467 6.215 41.4933 6.215 41.44C6.215 41.3333 6.25522 41.3067 6.33568 41.36C6.33568 41.4133 6.3759 41.3867 6.45636 41.28C6.45636 41.2267 6.3759 41.1733 6.215 41.12C6.215 41.1733 6.33568 41.12 6.57704 40.96C6.57704 41.0133 6.65749 40.9867 6.8184 40.88C6.89885 40.7733 6.93908 40.7467 6.93908 40.8V40.72C7.01953 40.6667 7.14021 40.64 7.30111 40.64C7.38157 40.5867 7.34134 40.6133 7.18043 40.72C7.09998 40.8267 7.18043 40.8 7.42179 40.64C7.66315 40.48 7.66315 40.4533 7.42179 40.56C7.26089 40.6667 7.22066 40.6933 7.30111 40.64C7.38157 40.5333 7.50225 40.48 7.66315 40.48C7.74361 40.5333 7.82406 40.5333 7.90451 40.48C7.98497 40.4267 7.98497 40.4 7.90451 40.4C7.90451 40.3467 7.86429 40.3467 7.78383 40.4C7.78383 40.4533 7.74361 40.4533 7.66315 40.4C7.66315 40.3467 7.78383 40.32 8.02519 40.32C8.1861 40.32 8.30678 40.2933 8.38723 40.24C8.38723 40.1867 8.30678 40.1867 8.14587 40.24C8.06542 40.24 8.06542 40.2133 8.14587 40.16C8.22632 40.1067 8.30678 40.0533 8.38723 40C8.30678 40 8.06542 40.1067 7.66315 40.32C7.26089 40.5333 7.01953 40.64 6.93908 40.64C7.01953 40.6933 6.9793 40.72 6.8184 40.72C6.65749 40.6667 6.53681 40.6933 6.45636 40.8C6.3759 40.8533 6.29545 40.8533 6.215 40.8C6.13454 40.8 6.13454 40.8267 6.215 40.88C6.29545 40.88 6.25523 40.9333 6.09432 41.04C5.93341 41.1467 5.85296 41.1467 5.85296 41.04C5.69205 41.1467 5.6116 41.2 5.6116 41.2C5.45069 41.2 5.41047 41.2 5.49092 41.2C5.49092 41.1467 5.45069 41.12 5.37024 41.12C5.28979 41.1733 5.28979 41.1733 5.37024 41.12C5.45069 41.0133 5.28979 41.0667 4.88752 41.28C4.72662 41.3867 4.64616 41.4667 4.64616 41.52C4.56571 41.5733 4.60594 41.5467 4.76684 41.44C4.8473 41.44 4.92775 41.4667 5.0082 41.52C5.0082 41.5733 4.96798 41.5733 4.88752 41.52C4.80707 41.4667 4.76684 41.4667 4.76684 41.52C4.8473 41.6267 4.8473 41.7067 4.76684 41.76C4.68639 41.76 4.68639 41.7067 4.76684 41.6C4.12322 41.4933 3.92209 41.52 4.16344 41.68C4.32435 41.7333 4.32435 41.7333 4.16344 41.68C4.00254 41.6267 3.92209 41.6533 3.92209 41.76C3.92209 41.8133 3.92209 41.8667 3.92209 41.92C3.84163 41.92 3.80141 41.8933 3.80141 41.84C3.88186 41.7867 3.88186 41.76 3.80141 41.76C3.72095 41.76 3.68073 41.7867 3.68073 41.84C3.60027 41.9467 3.56005 41.9733 3.56005 41.92C3.47959 41.8667 3.43937 41.8667 3.43937 41.92C3.43937 41.9733 3.39914 42 3.31869 42C3.23823 42 3.19801 42.0267 3.19801 42.08C2.95665 42.24 2.67506 42.32 2.35325 42.32C2.35325 42.32 2.4337 42.2667 2.59461 42.16C2.91642 42.0533 3.0371 42 2.95665 42C3.0371 42.0533 3.19801 42 3.43937 41.84C3.68073 41.68 3.88186 41.5733 4.04277 41.52C4.20367 41.52 4.28413 41.4933 4.28413 41.44C4.20367 41.3867 4.20367 41.4133 4.28413 41.52C4.36458 41.4667 4.4048 41.44 4.4048 41.44C4.4048 41.3867 4.48526 41.3067 4.64616 41.2C4.96798 41.0933 5.08866 41.04 5.0082 41.04C4.8473 40.9867 4.76684 40.9867 4.76684 41.04C4.76684 41.04 4.60594 41.0667 4.28413 41.12C4.20367 41.12 4.16344 41.0933 4.16344 41.04C4.16344 41.04 4.12322 41.0667 4.04277 41.12C3.88186 41.28 3.80141 41.36 3.80141 41.36C3.80141 41.3067 3.84163 41.2533 3.92209 41.2C4.08299 41.0933 4.04277 41.0933 3.80141 41.2C3.47959 41.3067 3.27846 41.36 3.19801 41.36C3.0371 41.4667 2.95665 41.4933 2.95665 41.44C3.0371 41.3867 3.07733 41.36 3.07733 41.36C2.99688 41.3067 2.91642 41.3067 2.83597 41.36L2.95665 41.28C3.27846 41.0667 3.27846 40.96 2.95665 40.96C2.79574 40.96 2.67506 40.9333 2.59461 40.88C2.51416 40.8267 2.55438 40.7733 2.71529 40.72C2.8762 40.72 2.8762 40.7733 2.71529 40.88C2.47393 40.9333 2.55438 40.9067 2.95665 40.8C3.11756 40.7467 3.19801 40.72 3.19801 40.72C3.19801 40.6667 3.15778 40.6667 3.07733 40.72C2.99688 40.72 3.0371 40.6933 3.19801 40.64C3.27846 40.5333 3.35891 40.48 3.43937 40.48C3.51982 40.48 3.60027 40.4533 3.68073 40.4C3.68073 40.3467 3.60027 40.3467 3.43937 40.4H3.19801C3.19801 40.4 3.15778 40.4 3.07733 40.4C3.23824 40.4533 3.27846 40.5067 3.19801 40.56C3.0371 40.6133 2.91642 40.6133 2.83597 40.56C2.83597 40.5067 2.75552 40.5067 2.59461 40.56C2.51416 40.6133 2.43371 40.6667 2.35325 40.72C2.19235 40.72 2.11189 40.6933 2.11189 40.64C2.2728 40.5333 2.4337 40.48 2.59461 40.48C2.67506 40.4267 2.75552 40.3733 2.83597 40.32C2.99688 40.3733 3.0371 40.3733 2.95665 40.32C2.8762 40.2133 2.91642 40.16 3.07733 40.16C3.23824 40.16 3.31869 40.1333 3.31869 40.08C3.23823 40.0267 3.27846 40 3.43937 40C3.68073 40.0533 3.76118 40.0267 3.68073 39.92C3.51982 39.8133 3.43937 39.8133 3.43937 39.92C3.43937 39.8667 3.31869 39.92 3.07733 40.08C2.83597 40.24 2.67506 40.32 2.59461 40.32C2.51416 40.2667 2.47393 40.2667 2.47393 40.32C2.47393 40.2667 2.35325 40.2933 2.11189 40.4C1.95099 40.4533 1.91076 40.4533 1.99121 40.4C2.07167 40.2933 2.15212 40.24 2.23257 40.24C2.31303 40.24 2.35325 40.2133 2.35325 40.16C2.2728 40.1067 2.19235 40.1067 2.11189 40.16C2.03144 40.2133 1.99121 40.24 1.99121 40.24C1.99121 40.1867 2.07167 40.1067 2.23257 40C2.39348 39.9467 2.47393 39.92 2.47393 39.92C2.39348 39.92 2.2728 39.9467 2.11189 40C1.95099 40 1.87053 39.9467 1.87053 39.84C1.87053 39.68 1.95099 39.5733 2.11189 39.52C2.19235 39.4133 2.31303 39.3067 2.47393 39.2C2.55438 39.0933 2.63484 39.0667 2.71529 39.12C2.71529 39.1733 2.71529 39.1733 2.71529 39.12C2.63484 39.0133 2.63484 38.96 2.71529 38.96C2.79574 38.96 2.8762 38.9333 2.95665 38.88C2.79574 38.88 2.71529 38.8267 2.71529 38.72C2.71529 38.6133 2.71529 38.56 2.71529 38.56C2.63484 38.56 2.59461 38.5867 2.59461 38.64C2.67506 38.6933 2.63484 38.7467 2.47393 38.8C2.23257 38.8 2.19235 38.7733 2.35325 38.72C2.43371 38.6667 2.39348 38.64 2.23257 38.64C2.15212 38.64 2.11189 38.6133 2.11189 38.56C2.19235 38.4533 2.15212 38.4267 1.99121 38.48C1.83031 38.48 1.83031 38.4267 1.99121 38.32V38.16C1.99121 38.1067 1.95099 38.08 1.87053 38.08C1.87053 38.08 1.83031 38.1067 1.74985 38.16C1.6694 38.16 1.62917 38.1867 1.62917 38.24C1.54872 38.24 1.46827 38.24 1.38782 38.24H1.14646C1.14646 38.24 1.14646 38.2133 1.14646 38.16C1.066 38.1067 0.985549 38.1067 0.905097 38.16C0.824644 38.16 0.86487 38.1333 1.02578 38.08C1.34759 37.9733 1.42804 37.92 1.26714 37.92C1.02578 37.8667 0.945323 37.8667 1.02578 37.92C1.10623 37.9733 0.905096 38 0.422378 38C0.583284 37.9467 0.703964 37.92 0.784417 37.92C0.864871 37.8667 0.98555 37.8133 1.14646 37.76C1.38781 37.6533 1.50849 37.6 1.50849 37.6C1.42804 37.6 1.46827 37.5467 1.62917 37.44C1.54872 37.5467 1.58895 37.6 1.74985 37.6C1.83031 37.5467 1.91076 37.4667 1.99121 37.36C1.91076 37.4133 1.87053 37.3867 1.87053 37.28C1.87053 37.2267 1.95099 37.2 2.11189 37.2C2.19235 37.1467 2.2728 37.12 2.35325 37.12C2.35325 37.0667 2.4337 36.9867 2.59461 36.88C2.67506 36.7733 2.75552 36.72 2.83597 36.72C2.83597 36.6133 2.79574 36.6133 2.71529 36.72C2.63484 36.7733 2.55438 36.7733 2.47393 36.72C2.47393 36.9333 2.31302 37.04 1.99121 37.04C1.83031 37.1467 1.79008 37.1467 1.87053 37.04C1.95099 36.9333 1.91076 36.96 1.74985 37.12C1.58895 37.2267 1.54872 37.28 1.62917 37.28C1.70963 37.28 1.74985 37.3067 1.74985 37.36C1.74985 37.4667 1.74985 37.4667 1.74985 37.36C1.6694 37.2533 1.54872 37.2533 1.38782 37.36C1.30736 37.4133 1.22691 37.44 1.14646 37.44C1.066 37.3867 0.945323 37.4133 0.784417 37.52C0.623512 37.6267 0.462605 37.68 0.301699 37.68C0.140793 37.68 0.0603399 37.6533 0.0603399 37.6C-0.0201133 37.4933 -0.0201133 37.44 0.0603399 37.44C0.140793 37.4933 0.181019 37.4667 0.181019 37.36C0.181019 37.2533 0.261472 37.2 0.422378 37.2C0.502831 37.2 0.623512 37.1733 0.784417 37.12C0.945323 37.0667 0.824643 37.0667 0.422378 37.12C0.261472 37.12 0.221246 37.0933 0.301699 37.04C0.462605 36.9867 0.583285 36.9333 0.663737 36.88C0.663737 36.8267 0.583284 36.8 0.422378 36.8C0.261472 36.8533 0.221246 36.8267 0.301699 36.72C0.382152 36.6133 0.502831 36.56 0.663737 36.56C0.74419 36.56 0.905097 36.5067 1.14646 36.4C1.30736 36.2933 1.42804 36.24 1.50849 36.24C1.6694 36.1867 2.55438 35.7333 4.16344 34.88C5.77251 34.0267 7.50225 33.0667 9.35267 32C11.5249 30.72 13.9787 29.3067 16.7141 27.76C16.7946 27.76 16.8348 27.76 16.8348 27.76C16.8348 27.7067 17.0762 27.52 17.5589 27.2C18.122 26.88 18.4036 26.6933 18.4036 26.64C18.4036 26.64 18.4439 26.64 18.5243 26.64L18.645 26.56C18.7254 26.56 18.8461 26.5067 19.007 26.4C19.5702 26.08 19.7713 25.9733 19.6104 26.08C19.53 26.1867 19.5702 26.2133 19.7311 26.16C19.7311 26.1067 19.7311 26.08 19.7311 26.08C19.7311 25.9733 19.8518 25.8933 20.0931 25.84C20.1736 25.7333 20.2541 25.6533 20.3345 25.6C20.415 25.6 20.4552 25.6267 20.4552 25.68C20.6161 25.68 20.6563 25.68 20.5759 25.68C20.4954 25.6267 20.6965 25.4667 21.1793 25.2C22.4665 24.4 23.3515 23.84 23.8342 23.52C24.3974 23.2 24.7192 23.0133 24.7997 22.96C24.9606 22.8533 25.0008 22.8267 24.9203 22.88C24.9203 22.88 24.9606 22.8 25.041 22.64C25.1215 22.5867 25.1617 22.56 25.1617 22.56C25.1617 22.5067 25.1215 22.5067 25.041 22.56C25.041 21.44 25.0008 20.4533 24.9203 19.6C24.9203 18.8533 24.9203 18.1867 24.9203 17.6C24.9203 16.96 24.8801 16.64 24.7997 16.64L24.9203 15.68V14.72C25.0008 13.8667 25.0812 13.04 25.1617 12.24C25.2421 11.6 25.2824 10.96 25.2824 10.32C25.3628 9.62667 25.403 9.09334 25.403 8.72C25.403 8.56 25.4433 8.45333 25.5237 8.4C25.4433 8.34667 25.4433 8.32 25.5237 8.32C25.6042 8.32 25.6042 8.21334 25.5237 8C25.4433 7.78667 25.4433 7.70667 25.5237 7.76C25.6042 7.76 25.6444 7.73333 25.6444 7.68C25.6444 7.62667 25.6042 7.62667 25.5237 7.68V7.52C25.5237 7.41333 25.5237 7.22667 25.5237 6.96C25.6042 6.69333 25.6444 6.34667 25.6444 5.92C25.7249 5.6 25.7651 5.38667 25.7651 5.28C25.7651 5.17333 25.7249 5.12 25.6444 5.12C25.6444 5.06667 25.6444 5.04 25.6444 5.04C25.6444 5.04 25.6444 4.96 25.6444 4.8C25.7249 4.64 25.7651 4.42667 25.7651 4.16C25.6846 4.10667 25.6444 4.16 25.6444 4.32C25.564 4.42667 25.5237 4.48 25.5237 4.48V4.56C25.5237 4.50667 25.5237 4.42667 25.5237 4.32C25.5237 4.26667 25.5237 4.21333 25.5237 4.16C25.6042 4.10667 25.6444 4.02667 25.6444 3.92C25.6444 3.76 25.6846 3.57333 25.7651 3.36C25.926 3.41333 25.9662 3.38667 25.8858 3.28C25.8858 3.12 25.926 3.06667 26.0065 3.12C25.926 3.12 25.9662 2.98667 26.1271 2.72C26.1271 2.66667 26.0869 2.66667 26.0065 2.72C25.926 2.77333 25.926 2.74667 26.0065 2.64C26.0869 2.48 26.1674 2.4 26.2478 2.4C26.3283 2.4 26.3283 2.37333 26.2478 2.32C26.1674 2.26667 26.2478 2.24 26.4892 2.24C26.7305 2.24 26.8914 2.26667 26.9719 2.32C26.9719 2.37333 27.0523 2.4 27.2132 2.4C27.3742 2.45334 27.4546 2.42667 27.4546 2.32C27.4546 2.21333 27.4948 2.16 27.5753 2.16C27.6557 2.16 27.696 2.21333 27.696 2.32C27.696 2.48 27.7362 2.56 27.8166 2.56C27.8971 2.56 27.9775 2.48 28.058 2.32C28.1385 2.10667 28.1787 2.10667 28.1787 2.32C28.3396 2.48 28.4603 2.48 28.5407 2.32C28.6212 2.21333 28.6212 2.21333 28.5407 2.32C28.5407 2.42667 28.5809 2.45334 28.6614 2.4C28.8223 2.4 28.8223 2.45334 28.6614 2.56C28.5809 2.66667 28.5809 2.72 28.6614 2.72C28.7419 2.72 28.7821 2.69333 28.7821 2.64C28.7821 2.53333 28.8625 2.48 29.0234 2.48C29.1843 2.48 29.2246 2.45334 29.1441 2.4C29.0637 2.34667 29.0637 2.34667 29.1441 2.4C29.2246 2.4 29.2246 2.42667 29.1441 2.48C29.2246 2.53333 29.305 2.56 29.3855 2.56C29.2246 2.61333 29.2246 2.66667 29.3855 2.72C29.5464 2.77333 29.6671 2.8 29.7475 2.8C29.9889 2.69333 30.1096 2.69333 30.1096 2.8C30.0291 2.85333 30.0693 2.88 30.2302 2.88C30.3911 2.93333 30.4314 3.04 30.3509 3.2C30.3509 3.36 30.4314 3.46667 30.5923 3.52C30.5923 3.57333 30.552 3.62667 30.4716 3.68C30.3911 3.73333 30.3509 3.84 30.3509 4C30.4314 4.10667 30.4314 4.42667 30.3509 4.96C30.3509 5.17333 30.3509 5.28 30.3509 5.28C30.4314 5.22667 30.552 5.28 30.713 5.44C30.8739 5.54667 30.9543 5.6 30.9543 5.6C30.9543 5.6 30.9141 5.57333 30.8336 5.52C30.7532 5.46667 30.7532 5.49333 30.8336 5.6C30.9945 5.65333 31.075 5.65333 31.075 5.6C31.1554 5.54667 31.1957 5.57333 31.1957 5.68C31.2761 5.78667 31.3566 5.86667 31.437 5.92C31.5175 5.97333 31.5175 6.02667 31.437 6.08C31.3566 6.13334 31.3566 6.21333 31.437 6.32C31.5175 6.37333 31.5175 6.4 31.437 6.4V6.48C31.5175 6.53334 31.5175 6.58667 31.437 6.64C31.3566 6.69333 31.3164 6.8 31.3164 6.96C31.3164 7.12 31.3566 7.22667 31.437 7.28C31.5175 7.38667 31.5175 7.49333 31.437 7.6C31.3566 7.65334 31.3566 7.70667 31.437 7.76C31.5175 7.76 31.5577 7.73333 31.5577 7.68C31.6382 7.68 31.6784 7.70667 31.6784 7.76C31.6784 7.81333 31.6382 7.84 31.5577 7.84C31.4773 7.84 31.437 7.86667 31.437 7.92C31.5175 7.97334 31.5175 7.97334 31.437 7.92C31.437 7.86667 31.5175 7.84 31.6784 7.84C31.8393 7.84 31.7991 7.92 31.5577 8.08C31.3968 8.08 31.3164 8.21333 31.3164 8.48C31.3164 8.8 31.3164 8.98667 31.3164 9.04C31.3164 9.09334 31.3164 9.14667 31.3164 9.2C31.3164 9.25333 31.3164 9.33333 31.3164 9.44C31.3164 9.49333 31.3164 9.70667 31.3164 10.08C31.3164 10.6667 31.2761 10.96 31.1957 10.96C31.1957 10.9067 31.1957 10.9333 31.1957 11.04C31.1957 11.1467 31.2359 11.2 31.3164 11.2C31.3968 11.1467 31.437 11.0667 31.437 10.96C31.437 10.64 31.4773 10.3467 31.5577 10.08C31.5577 9.76 31.5979 9.54667 31.6784 9.44C31.6784 9.33333 31.6784 9.25333 31.6784 9.2C31.6784 9.30667 31.6784 9.49333 31.6784 9.76C31.6784 10.0267 31.7186 10.1333 31.7991 10.08C31.7991 10.1333 31.7588 10.16 31.6784 10.16C31.6784 10.2133 31.7186 10.24 31.7991 10.24C31.8795 10.2933 31.9197 10.5333 31.9197 10.96C31.9197 11.3867 31.8393 11.5733 31.6784 11.52C31.5979 11.4667 31.5577 11.4667 31.5577 11.52C31.5577 11.5733 31.6382 11.6 31.7991 11.6C31.8795 11.6533 31.8393 11.7067 31.6784 11.76C31.5979 11.8133 31.5979 11.8133 31.6784 11.76C31.9197 11.76 31.96 11.8133 31.7991 11.92C31.6382 11.92 31.5979 12.1067 31.6784 12.48C31.8393 12.8 31.9197 13.4933 31.9197 14.56C31.8393 16.16 31.8795 17.2267 32.0404 17.76C32.2013 18.24 32.1611 18.48 31.9197 18.48C31.5175 18.48 31.4773 18.4267 31.7991 18.32C31.8795 18.32 31.9197 18.32 31.9197 18.32C32.0002 18.2667 32.0002 18.24 31.9197 18.24C31.6784 18.2933 31.5979 18.2667 31.6784 18.16C31.8393 18.0533 31.8393 18 31.6784 18C31.5979 17.9467 31.5577 18.0267 31.5577 18.24C31.6382 18.4533 31.7588 18.56 31.9197 18.56C32.1611 18.56 32.4025 18.4533 32.6438 18.24C32.8852 18.0267 33.0863 17.92 33.2472 17.92C33.2472 17.92 33.7299 17.6267 34.6954 17.04C35.7413 16.4 37.0687 15.5733 38.6778 14.56C40.3673 13.5467 42.258 12.4 44.3497 11.12C46.522 9.84 48.7344 8.53333 50.9871 7.2C51.6307 6.82667 52.4353 6.37333 53.4007 5.84C54.4466 5.30667 55.412 4.8 56.297 4.32C57.182 3.84 57.9463 3.41333 58.5899 3.04C59.2336 2.66667 59.5554 2.48 59.5554 2.48C59.6358 2.42667 59.7163 2.42667 59.7967 2.48C59.8772 2.53333 59.8772 2.50667 59.7967 2.4C59.9576 2.4 60.1185 2.34667 60.2794 2.24C60.5208 2.08 60.7219 2 60.8829 2C60.9633 2 60.9633 1.97333 60.8829 1.92C60.8024 1.86667 60.8426 1.84 61.0035 1.84C61.6472 1.52 62.2505 1.25333 62.8137 1.04C63.1355 0.88 63.5378 0.693332 64.0205 0.479999C64.2619 0.373333 64.463 0.293334 64.6239 0.240002C64.7848 0.186669 64.9055 0.133335 64.986 0.079999C65.2273 -0.0266663 65.348 -0.0266663 65.348 0.079999C65.348 0.186667 65.3882 0.213335 65.4687 0.160003C65.6296 0.106667 65.5491 0.186666 65.2273 0.4C65.6296 0.293334 65.8709 0.240002 65.9514 0.240002C66.0318 0.186669 66.0721 0.213335 66.0721 0.320001C66.0721 0.373333 66.1123 0.346667 66.1927 0.240002C66.3537 0.133333 66.3939 0.133333 66.3134 0.240002C66.233 0.293334 66.2732 0.320001 66.4341 0.320001C66.5146 0.320001 66.595 0.293334 66.6755 0.240002C66.8364 0.186669 66.8766 0.186669 66.7961 0.240002V0.320001C66.8766 0.320001 66.957 0.346667 67.0375 0.4C67.1984 0.453332 67.1984 0.479999 67.0375 0.479999C66.957 0.479999 66.957 0.506666 67.0375 0.560002C67.1984 0.666668 67.2789 0.693334 67.2789 0.640001C67.3593 0.533333 67.5202 0.506666 67.7616 0.560002C67.842 0.560002 67.842 0.613335 67.7616 0.72C67.7616 0.826666 67.8018 0.853332 67.8823 0.799999C67.9627 0.799999 68.0432 0.826666 68.1236 0.879998C68.2845 0.879998 68.3248 0.879998 68.2443 0.879998C68.0834 0.933334 68.0029 0.986668 68.0029 1.04C68.0029 1.14667 67.9627 1.2 67.8823 1.2C67.8018 1.14667 67.8018 1.14667 67.8823 1.2C67.8823 1.41333 67.7616 1.52 67.5202 1.52C67.3593 1.52 67.2789 1.54667 67.2789 1.6C67.2789 1.65333 67.3191 1.68 67.3995 1.68V2C67.3191 2 67.2789 2 67.2789 2V1.84C67.4398 1.73333 67.4398 1.73333 67.2789 1.84C67.118 1.94667 66.9973 2 66.9168 2C66.8364 2 66.7961 2.02667 66.7961 2.08C66.8766 2.13333 66.957 2.13333 67.0375 2.08C67.118 2.02667 67.1984 2 67.2789 2C67.4398 2 67.5202 2.02667 67.5202 2.08C67.5202 2.08 67.6409 2.05334 67.8823 2C67.8823 2.05334 67.9627 2.02667 68.1236 1.92ZM66.9168 0.640001C66.9168 0.693334 66.9168 0.72 66.9168 0.72C66.9973 0.72 67.0375 0.693334 67.0375 0.640001C67.0375 0.586669 66.9973 0.586669 66.9168 0.640001ZM1.50849 38.08C1.50849 38.0267 1.46827 38.0267 1.38782 38.08C1.30736 38.1333 1.30736 38.16 1.38782 38.16C1.38782 38.16 1.42804 38.1333 1.50849 38.08ZM1.50849 37.76C1.34759 37.8133 1.34759 37.84 1.50849 37.84C1.6694 37.7867 1.70963 37.7067 1.62917 37.6L1.50849 37.52V37.6V37.76ZM1.74985 38C1.83031 37.9467 1.83031 37.92 1.74985 37.92C1.74985 37.8667 1.70963 37.8933 1.62917 38C1.54872 38.0533 1.58895 38.0533 1.74985 38ZM2.35325 37.52C2.43371 37.4133 2.51416 37.3867 2.59461 37.44C2.59461 37.44 2.59461 37.3867 2.59461 37.28H2.47393C2.39348 37.2267 2.35325 37.2267 2.35325 37.28C2.35325 37.3867 2.23257 37.4933 1.99121 37.6C1.74985 37.6533 1.70963 37.6533 1.87053 37.6C2.03144 37.6 2.11189 37.5733 2.11189 37.52C2.03144 37.4667 2.03144 37.4933 2.11189 37.6C2.19235 37.6 2.2728 37.5733 2.35325 37.52ZM2.59461 39.92C2.67506 39.92 2.71529 39.8933 2.71529 39.84C2.71529 39.7867 2.67506 39.76 2.59461 39.76V39.84C2.51416 39.84 2.47393 39.8667 2.47393 39.92C2.47393 39.92 2.51416 39.92 2.59461 39.92ZM3.43937 40.56H3.56005C3.56005 40.56 3.60027 40.56 3.68073 40.56H3.56005C3.47959 40.5067 3.43937 40.5067 3.43937 40.56ZM3.43937 36.4C3.51982 36.4 3.56005 36.3733 3.56005 36.32C3.47959 36.2667 3.43937 36.2933 3.43937 36.4C3.43937 36.4533 3.31869 36.48 3.07733 36.48C3.15778 36.48 3.15778 36.5333 3.07733 36.64C2.99688 36.6933 3.0371 36.6933 3.19801 36.64C3.35891 36.5333 3.43937 36.4533 3.43937 36.4ZM3.43937 36C3.51982 36 3.60027 35.9733 3.68073 35.92C3.76118 35.8133 3.72095 35.8133 3.56005 35.92L3.43937 36ZM3.92209 36.16C3.84163 36.1067 3.76118 36.1067 3.68073 36.16C3.60027 36.2133 3.6405 36.2133 3.80141 36.16H3.92209ZM3.80141 40.4C3.88186 40.4 3.92209 40.3733 3.92209 40.32H3.80141C3.80141 40.3733 3.80141 40.4 3.80141 40.4ZM4.16344 36.08C4.2439 36.1333 4.28413 36.1067 4.28413 36C4.28413 35.8933 4.2439 35.8667 4.16344 35.92C4.08299 35.9733 4.08299 36.0267 4.16344 36.08ZM4.76684 35.76C4.76684 35.7067 4.72662 35.6533 4.64616 35.6C4.48526 35.5467 4.44503 35.5733 4.52548 35.68C4.60594 35.7333 4.60594 35.76 4.52548 35.76C4.36458 35.8133 4.36458 35.84 4.52548 35.84C4.60594 35.84 4.68639 35.8133 4.76684 35.76ZM5.49092 41.12C5.57137 41.12 5.6116 41.12 5.6116 41.12C5.6116 41.0667 5.57137 41.04 5.49092 41.04C5.49092 41.0933 5.49092 41.12 5.49092 41.12ZM5.49092 40.96C5.57137 41.0133 5.6116 40.9867 5.6116 40.88C5.6116 40.7733 5.57137 40.72 5.49092 40.72C5.41047 40.72 5.41047 40.7467 5.49092 40.8C5.57137 40.8 5.53115 40.8 5.37024 40.8C5.04843 40.9067 5.0082 40.96 5.24956 40.96C5.08866 41.0133 5.04843 41.04 5.12888 41.04C5.20934 41.04 5.28979 41.0133 5.37024 40.96V40.88C5.45069 40.88 5.49092 40.9067 5.49092 40.96ZM6.33568 40.48C6.41613 40.3733 6.41613 40.3467 6.33568 40.4C6.17477 40.4533 6.17477 40.5067 6.33568 40.56H6.215C5.81273 40.56 5.77251 40.5867 6.09432 40.64C6.33568 40.6933 6.41613 40.64 6.33568 40.48ZM7.90451 36.16C7.90451 36.1067 7.86429 36.08 7.78383 36.08C7.70338 36.0267 7.70338 36.0533 7.78383 36.16C7.78383 36.2133 7.82406 36.2133 7.90451 36.16ZM4.64616 43.36V43.28V43.36ZM5.0082 43.28C5.0082 43.2267 4.96798 43.2267 4.88752 43.28C4.72662 43.3333 4.72662 43.36 4.88752 43.36C4.96798 43.36 5.0082 43.3333 5.0082 43.28ZM5.37024 42.88C5.37024 42.9333 5.41047 42.96 5.49092 42.96C5.57137 42.9067 5.57137 42.8533 5.49092 42.8C5.49092 42.7467 5.45069 42.72 5.37024 42.72C5.28979 42.72 5.28979 42.7467 5.37024 42.8C5.45069 42.8533 5.45069 42.88 5.37024 42.88ZM6.93908 40.96C6.85862 41.0667 6.89885 41.0667 7.05976 40.96C7.14021 40.8533 7.14021 40.8267 7.05976 40.88C6.9793 40.88 6.93908 40.9067 6.93908 40.96ZM6.33568 41.76C6.17477 41.7067 6.09432 41.7067 6.09432 41.76C6.09432 41.8133 6.17477 41.84 6.33568 41.84C6.41613 41.84 6.45636 41.84 6.45636 41.84C6.45636 41.7867 6.41613 41.76 6.33568 41.76ZM7.18043 42.56C7.26089 42.56 7.26089 42.5333 7.18043 42.48L7.05976 42.56H7.18043ZM7.18043 41.6C7.42179 41.4933 7.50225 41.4133 7.42179 41.36C7.34134 41.3067 7.30111 41.3333 7.30111 41.44C7.38157 41.4933 7.26089 41.52 6.93908 41.52C6.61726 41.4667 6.53681 41.4933 6.69772 41.6C6.85862 41.7067 6.8184 41.7333 6.57704 41.68C6.25522 41.5733 6.215 41.6 6.45636 41.76C6.53681 41.8133 6.41613 41.8933 6.09432 42C5.77251 42.1067 5.65183 42.1867 5.73228 42.24C5.81273 42.3467 5.93341 42.3467 6.09432 42.24C6.17477 42.08 6.215 42.0533 6.215 42.16C6.29545 42.16 6.33568 42.1333 6.33568 42.08C6.25522 42.0267 6.25522 42.0267 6.33568 42.08C6.41613 42.08 6.53681 42.0267 6.69772 41.92C6.85862 41.8133 6.93908 41.7333 6.93908 41.68C6.93908 41.6267 6.9793 41.6 7.05976 41.6C7.05976 41.5467 7.01953 41.5733 6.93908 41.68C7.01953 41.68 7.09998 41.6533 7.18043 41.6ZM8.02519 41.2C8.10564 41.1467 8.14587 41.12 8.14587 41.12C8.14587 41.0667 8.10564 41.0667 8.02519 41.12C7.86429 41.1733 7.78383 41.2267 7.78383 41.28C7.78383 41.28 7.70338 41.3067 7.54247 41.36C7.54247 41.4133 7.70338 41.36 8.02519 41.2ZM8.38723 35.76C8.46768 35.8133 8.54814 35.8133 8.62859 35.76C8.70904 35.7067 8.70904 35.68 8.62859 35.68C8.54814 35.68 8.46768 35.7067 8.38723 35.76ZM8.50791 39.84C8.50791 39.8933 8.54814 39.92 8.62859 39.92C8.62859 39.92 8.62859 39.8933 8.62859 39.84C8.62859 39.7867 8.58836 39.7867 8.50791 39.84ZM8.86995 42C8.9504 41.9467 8.99063 41.92 8.99063 41.92C8.91018 41.92 8.82972 41.9467 8.74927 42C8.58836 42.0533 8.54814 42.08 8.62859 42.08C8.70904 42.08 8.7895 42.0533 8.86995 42ZM8.86995 39.92C8.9504 39.92 8.99063 39.8933 8.99063 39.84C8.99063 39.7867 8.9504 39.7867 8.86995 39.84C8.70904 39.9467 8.66882 40 8.74927 40C8.74927 40 8.7895 39.9733 8.86995 39.92ZM9.35267 35.28C9.51357 35.3867 9.59403 35.4133 9.59403 35.36L9.35267 35.28ZM11.6456 30.88C11.5651 30.9867 11.5249 31.04 11.5249 31.04C11.6054 31.04 11.6858 30.9867 11.7663 30.88C11.9272 30.7733 11.9674 30.72 11.8869 30.72C11.8869 30.72 11.8065 30.7733 11.6456 30.88ZM11.6456 33.76C11.4847 33.8133 11.4042 33.8667 11.4042 33.92C11.4847 33.92 11.5651 33.8667 11.6456 33.76ZM11.1629 31.2C11.002 31.3067 11.002 31.3333 11.1629 31.28L11.4042 31.12C11.4042 31.0667 11.4042 31.04 11.4042 31.04H11.2835C11.2835 31.0933 11.2433 31.1467 11.1629 31.2ZM11.5249 34.48C11.2031 34.64 11.0824 34.72 11.1629 34.72L11.5249 34.48ZM11.0422 34.32C10.9617 34.3733 11.002 34.4 11.1629 34.4C11.4042 34.24 11.364 34.2133 11.0422 34.32ZM10.6801 34.8C10.7606 34.8 10.7606 34.7733 10.6801 34.72C10.5192 34.6133 10.3986 34.64 10.3181 34.8C10.2376 34.9067 10.2779 34.9067 10.4388 34.8C10.5192 34.7467 10.5997 34.7467 10.6801 34.8ZM11.0422 40.8C11.2031 40.8 11.2031 40.8 11.0422 40.8C10.9617 40.7467 11.002 40.6667 11.1629 40.56C11.3238 40.4533 11.4042 40.3733 11.4042 40.32C11.4847 40.2667 11.4444 40.2933 11.2835 40.4C11.1226 40.5067 11.0422 40.56 11.0422 40.56C11.0422 40.5067 11.002 40.5333 10.9215 40.64C10.841 40.7467 10.8008 40.8 10.8008 40.8C10.8008 40.8533 10.841 40.9333 10.9215 41.04C10.7606 41.04 10.7204 41.0667 10.8008 41.12C10.8008 41.1733 10.8813 41.1733 11.0422 41.12C11.2031 41.0133 11.2031 40.9333 11.0422 40.88V40.8ZM11.4042 40.72C11.5651 40.6667 11.6456 40.64 11.6456 40.64C11.6456 40.5867 11.5651 40.6133 11.4042 40.72C11.2433 40.8267 11.1629 40.88 11.1629 40.88C11.2433 40.88 11.3238 40.8267 11.4042 40.72ZM11.8869 40.32C11.8869 40.2133 11.7663 40.24 11.5249 40.4V40.48C11.8467 40.2667 11.9272 40.2667 11.7663 40.48C11.6054 40.5867 11.6456 40.5867 11.8869 40.48C12.1283 40.32 12.1283 40.2667 11.8869 40.32ZM11.8869 33.68C11.9674 33.6267 12.0076 33.6 12.0076 33.6C11.9272 33.6 11.8467 33.6267 11.7663 33.68C11.7663 33.68 11.8065 33.68 11.8869 33.68ZM12.1283 38.08C12.2087 38.1333 12.249 38.1333 12.249 38.08C12.249 37.9733 12.2087 37.9467 12.1283 38C12.0478 38 12.0478 38.0267 12.1283 38.08ZM12.1283 30.8C12.2892 30.7467 12.3294 30.72 12.249 30.72C12.1685 30.72 12.2088 30.6667 12.3697 30.56C12.6915 30.4533 12.7317 30.4 12.4903 30.4C12.4099 30.4 12.3697 30.4267 12.3697 30.48C12.4501 30.5333 12.4099 30.56 12.249 30.56C12.0881 30.56 12.0076 30.6133 12.0076 30.72C12.0076 30.8267 12.0478 30.8533 12.1283 30.8ZM12.249 33.44L12.3697 33.36L12.249 33.44ZM12.4903 37.28C12.3294 37.3867 12.2892 37.44 12.3697 37.44C12.4501 37.44 12.4903 37.4133 12.4903 37.36C12.5708 37.2533 12.5708 37.2267 12.4903 37.28ZM12.7317 37.84C12.9731 37.5733 12.9328 37.52 12.611 37.68C12.4501 37.7867 12.3697 37.8667 12.3697 37.92C12.3697 37.9733 12.4099 37.9467 12.4903 37.84C12.6512 37.7333 12.6915 37.7333 12.611 37.84C12.5306 37.9467 12.5708 37.9467 12.7317 37.84ZM13.5765 37.44C13.6569 37.3867 13.6569 37.36 13.5765 37.36C13.496 37.4133 13.4558 37.44 13.4558 37.44C13.4558 37.4933 13.496 37.4933 13.5765 37.44ZM14.6626 29.2C14.6626 29.1467 14.5821 29.1467 14.4212 29.2C13.9385 29.4667 13.7374 29.6 13.8178 29.6C13.8983 29.6 13.858 29.6533 13.6971 29.76C13.5362 29.8133 13.4558 29.8133 13.4558 29.76C13.5362 29.7067 13.496 29.7333 13.3351 29.84C13.1742 29.9467 13.0937 30 13.0937 30C12.8524 30 12.7317 30.1067 12.7317 30.32C12.7317 30.4267 12.8524 30.4 13.0937 30.24C13.4155 30.0267 13.5362 29.8933 13.4558 29.84H13.5765C13.7374 29.9467 13.8178 29.9467 13.8178 29.84C13.8983 29.7333 13.9385 29.7067 13.9385 29.76C14.0189 29.76 14.0592 29.7067 14.0592 29.6C14.0592 29.5467 14.0994 29.52 14.1799 29.52C14.3408 29.4667 14.381 29.4667 14.3005 29.52C14.3005 29.6267 14.3408 29.68 14.4212 29.68C14.5017 29.6267 14.5017 29.5733 14.4212 29.52C14.3408 29.4667 14.3408 29.4133 14.4212 29.36C14.5821 29.3067 14.6626 29.2533 14.6626 29.2ZM14.9039 29.2C14.9844 29.1467 15.0246 29.12 15.0246 29.12C14.9442 29.12 14.8637 29.1467 14.7832 29.2C14.7028 29.2533 14.743 29.2533 14.9039 29.2ZM15.266 36.4C15.3464 36.4 15.3866 36.4 15.3866 36.4C15.3866 36.3467 15.3464 36.32 15.266 36.32C15.1855 36.2667 15.1453 36.2667 15.1453 36.32C15.1453 36.3733 15.1855 36.4 15.266 36.4ZM15.99 28.64C16.3119 28.64 16.3119 28.5867 15.99 28.48C15.8291 28.4267 15.6682 28.48 15.5073 28.64C15.3464 28.8 15.1855 28.9067 15.0246 28.96C14.9442 28.96 14.8637 28.9867 14.7832 29.04C14.7832 29.04 14.8235 29.04 14.9039 29.04H15.0246C15.1051 28.9333 15.1453 28.9067 15.1453 28.96C15.2257 29.0133 15.3062 28.9867 15.3866 28.88C15.7085 28.7733 15.8694 28.72 15.8694 28.72C15.8694 28.6133 15.8291 28.6133 15.7487 28.72C15.7487 28.7733 15.7085 28.8 15.628 28.8C15.4671 28.8 15.4269 28.7733 15.5073 28.72C15.6682 28.6133 15.8291 28.5867 15.99 28.64ZM16.2314 28.56C16.3119 28.56 16.3521 28.5067 16.3521 28.4C16.3521 28.3467 16.3119 28.32 16.2314 28.32C16.2314 28.32 16.2314 28.3467 16.2314 28.4C16.2314 28.4533 16.2314 28.5067 16.2314 28.56ZM16.4728 28.24C16.3119 28.3467 16.3119 28.3467 16.4728 28.24C16.7141 28.1333 16.7543 28.08 16.5934 28.08C16.5934 28.08 16.5532 28.1333 16.4728 28.24ZM17.3175 27.76V27.84V27.92C17.398 27.92 17.4382 27.8933 17.4382 27.84C17.4382 27.7867 17.398 27.76 17.3175 27.76ZM17.1968 37.52V37.44H17.0762C17.0762 37.4933 17.1164 37.52 17.1968 37.52ZM17.3175 37.12C17.398 37.0133 17.3577 37.0133 17.1968 37.12C17.1164 37.2267 17.1566 37.2267 17.3175 37.12ZM17.6796 36.96V36.88C17.5187 36.88 17.4382 36.9333 17.4382 37.04C17.5187 37.1467 17.5991 37.12 17.6796 36.96ZM17.9209 27.36C17.9209 27.3067 17.8807 27.28 17.8002 27.28C17.7198 27.3333 17.7198 27.3867 17.8002 27.44C17.8807 27.4933 17.9209 27.4667 17.9209 27.36ZM24.7997 32.4C24.8801 32.3467 24.8399 32.3467 24.679 32.4C24.5181 32.5067 24.5181 32.56 24.679 32.56C24.8399 32.6133 24.8801 32.64 24.7997 32.64C24.7192 32.5867 24.7192 32.5067 24.7997 32.4ZM24.679 32.08C24.5181 32.1333 24.4778 32.16 24.5583 32.16C24.7192 32.16 24.7997 32.1333 24.7997 32.08C24.7997 32.0267 24.7594 32.0267 24.679 32.08ZM23.9549 23.68C23.794 23.7867 23.7538 23.84 23.8342 23.84C23.9147 23.7867 23.9549 23.7333 23.9549 23.68ZM23.7135 32.56C23.6331 32.72 23.5929 32.8 23.5929 32.8C23.6733 32.7467 23.7135 32.7467 23.7135 32.8C23.794 32.8533 23.794 32.8267 23.7135 32.72C23.8744 32.6667 23.9549 32.64 23.9549 32.64H24.0756C24.156 32.5867 24.1963 32.56 24.1963 32.56C24.4376 32.56 24.4376 32.48 24.1963 32.32H24.0756C24.0756 32.4267 24.0756 32.4533 24.0756 32.4C24.0756 32.3467 23.9549 32.4 23.7135 32.56ZM22.9895 33.04C22.909 33.04 22.8688 33.0667 22.8688 33.12C22.8688 33.12 22.909 33.12 22.9895 33.12V33.04ZM22.7481 26.24C22.5872 26.3467 22.5067 26.3733 22.5067 26.32C22.5067 26.4267 22.5872 26.4267 22.7481 26.32C22.909 26.16 22.909 26.1333 22.7481 26.24ZM21.9033 26.64C21.662 26.7467 21.5413 26.8267 21.5413 26.88C21.6218 26.88 21.7424 26.8 21.9033 26.64ZM21.9033 26.96C22.0642 26.8533 22.1045 26.8 22.024 26.8C22.024 26.7467 21.9436 26.7733 21.7827 26.88C21.6218 26.9867 21.5413 27.04 21.5413 27.04C21.6218 27.04 21.7424 27.0133 21.9033 26.96ZM21.5413 26C21.4609 26 21.4206 26.0267 21.4206 26.08C21.4206 26.08 21.4609 26.1067 21.5413 26.16V26.08C21.6218 26.0267 21.6218 26 21.5413 26ZM21.0586 27.36C21.0586 27.4667 21.0586 27.52 21.0586 27.52C21.0586 27.5733 21.0184 27.6 20.9379 27.6C20.9379 27.5467 20.8977 27.5467 20.8172 27.6C20.7368 27.6 20.7368 27.6267 20.8172 27.68C20.9781 27.68 21.0586 27.6533 21.0586 27.6C21.139 27.5467 21.2597 27.4667 21.4206 27.36C21.5815 27.2533 21.6218 27.2 21.5413 27.2C21.5413 27.1467 21.5011 27.12 21.4206 27.12C21.4206 27.12 21.4206 27.1467 21.4206 27.2C21.4206 27.3067 21.3402 27.36 21.1793 27.36C21.0988 27.3067 21.0586 27.3067 21.0586 27.36ZM20.8172 25.76C20.4954 25.8667 20.4552 25.92 20.6965 25.92L20.8172 25.76ZM20.0931 25.92C20.0931 25.92 20.1334 25.92 20.2138 25.92C20.2138 25.8667 20.1736 25.84 20.0931 25.84C20.0931 25.84 20.0931 25.8667 20.0931 25.92ZM19.1277 26.56C18.8864 26.72 18.8461 26.7733 19.007 26.72C19.007 26.6133 19.0875 26.56 19.2484 26.56C19.2484 26.5067 19.2886 26.4533 19.3691 26.4L19.1277 26.56ZM18.645 26.8V26.88C18.7254 26.9867 18.7657 26.9867 18.7657 26.88C18.7657 26.7733 18.7254 26.7467 18.645 26.8ZM18.0416 27.2C18.2025 27.0933 18.283 27.0933 18.283 27.2H18.4036C18.3232 27.1467 18.3232 27.0933 18.4036 27.04C18.5645 26.9867 18.5645 26.96 18.4036 26.96C18.3232 26.96 18.2025 27.0133 18.0416 27.12C17.9611 27.2267 17.9611 27.2533 18.0416 27.2ZM19.6104 35.76C19.6909 35.7067 19.6909 35.68 19.6104 35.68C19.53 35.68 19.4898 35.7067 19.4898 35.76C19.4898 35.76 19.53 35.76 19.6104 35.76ZM19.6104 28C19.6909 28 19.7713 27.9467 19.8518 27.84C19.9322 27.7333 19.9725 27.7067 19.9725 27.76C20.0529 27.76 20.0931 27.7333 20.0931 27.68C20.1736 27.6267 20.2541 27.6 20.3345 27.6C20.4954 27.5467 20.5759 27.4933 20.5759 27.44C20.6563 27.3333 20.7368 27.28 20.8172 27.28C20.8977 27.3333 20.9379 27.3333 20.9379 27.28C21.0184 27.1733 21.0988 27.12 21.1793 27.12C21.3402 27.0667 21.4206 27.0133 21.4206 26.96C21.5011 26.9067 21.4609 26.88 21.2999 26.88C21.2195 26.9333 21.2195 26.9867 21.2999 27.04C21.3804 27.0933 21.3804 27.0933 21.2999 27.04C21.2195 27.04 20.9781 27.12 20.5759 27.28C20.2541 27.44 19.892 27.6533 19.4898 27.92C19.0875 28.1333 18.7657 28.3467 18.5243 28.56C18.283 28.72 18.2025 28.8 18.283 28.8C18.283 28.7467 18.4841 28.6133 18.8864 28.4C19.2886 28.1333 19.53 28 19.6104 28ZM20.6965 27.76C20.6161 27.76 20.5759 27.7867 20.5759 27.84C20.5759 27.8933 20.6161 27.8667 20.6965 27.76ZM20.2138 35.44C20.1334 35.44 20.0931 35.44 20.0931 35.44C20.1736 35.3867 20.1334 35.36 19.9725 35.36C19.9725 35.4667 20.0127 35.52 20.0931 35.52C20.1736 35.52 20.2138 35.4933 20.2138 35.44ZM21.2999 34.8C21.3804 34.7467 21.3804 34.72 21.2999 34.72C21.2195 34.72 21.139 34.7733 21.0586 34.88C20.8977 34.9333 20.8172 34.96 20.8172 34.96C20.7368 34.8533 20.6563 34.9067 20.5759 35.12C20.5759 35.28 20.5356 35.3067 20.4552 35.2C20.3747 35.0933 20.2943 35.0933 20.2138 35.2C20.1334 35.3067 20.1736 35.3333 20.3345 35.28C20.4954 35.28 20.5759 35.2533 20.5759 35.2C20.6563 35.0933 20.6965 35.0667 20.6965 35.12H20.9379C20.9379 35.12 20.9781 35.0933 21.0586 35.04C21.0586 35.0933 21.0988 35.0933 21.1793 35.04C21.2597 34.9867 21.2597 34.9333 21.1793 34.88C21.0184 34.7733 20.9781 34.7467 21.0586 34.8C21.139 34.8533 21.2195 34.8533 21.2999 34.8ZM22.1447 34.8C22.1447 34.8533 22.1447 34.88 22.1447 34.88C22.2252 34.8267 22.2654 34.7733 22.2654 34.72C22.2654 34.6667 22.2252 34.64 22.1447 34.64C22.1447 34.64 22.1447 34.6933 22.1447 34.8ZM22.7481 34.24C22.909 34.24 22.909 34.24 22.7481 34.24C22.6676 34.1867 22.5872 34.16 22.5067 34.16C22.5067 34.2133 22.4263 34.24 22.2654 34.24C22.1849 34.24 22.2252 34.1867 22.3861 34.08C22.6274 33.92 22.7079 33.84 22.6274 33.84C22.6274 33.7867 22.5872 33.76 22.5067 33.76C22.4263 33.8133 22.4263 33.8667 22.5067 33.92C22.5872 33.92 22.5067 33.9733 22.2654 34.08C22.1045 34.1867 22.0642 34.2667 22.1447 34.32C22.2252 34.4267 22.1849 34.48 22.024 34.48C21.8631 34.48 21.8229 34.4267 21.9033 34.32C21.9033 34.2667 21.8631 34.2667 21.7827 34.32C21.7022 34.32 21.6218 34.3733 21.5413 34.48C21.3804 34.5333 21.3402 34.5867 21.4206 34.64C21.5011 34.6933 21.5011 34.7467 21.4206 34.8C21.2597 34.9067 21.2597 34.96 21.4206 34.96H21.662C21.7424 35.0667 21.7827 35.12 21.7827 35.12C21.8631 35.12 21.8229 35.0667 21.662 34.96C21.662 34.96 21.662 34.9333 21.662 34.88C21.7424 34.8267 21.8229 34.7733 21.9033 34.72C21.9838 34.6133 22.0642 34.56 22.1447 34.56C22.2252 34.56 22.2654 34.5067 22.2654 34.4C22.2654 34.24 22.3458 34.2133 22.5067 34.32C22.5872 34.3733 22.6274 34.3733 22.6274 34.32C22.6274 34.2133 22.6676 34.1867 22.7481 34.24ZM23.2308 33.84C23.3917 33.7333 23.3515 33.6533 23.1101 33.6C22.8688 33.5467 22.7481 33.5733 22.7481 33.68C22.7481 33.84 22.8286 33.8667 22.9895 33.76C23.1504 33.7067 23.2308 33.7067 23.2308 33.76C23.2308 33.76 23.1504 33.7867 22.9895 33.84C22.8286 33.9467 22.7481 34.0533 22.7481 34.16C22.7481 34.2133 22.8286 34.1867 22.9895 34.08C23.1504 34.0267 23.1906 33.9733 23.1101 33.92C23.1101 33.8667 23.1504 33.84 23.2308 33.84ZM23.4722 33.68C23.6331 33.5733 23.7135 33.52 23.7135 33.52C23.6331 33.52 23.5124 33.5733 23.3515 33.68C23.271 33.7867 23.3113 33.7867 23.4722 33.68ZM23.7135 33.44C23.794 33.3867 23.8744 33.3333 23.9549 33.28C24.0353 33.2267 24.0756 33.2 24.0756 33.2C24.0756 33.1467 24.0353 33.1467 23.9549 33.2C23.8744 33.1467 23.8342 33.12 23.8342 33.12C23.9147 33.12 23.8342 33.2 23.5929 33.36C23.4319 33.4667 23.3113 33.52 23.2308 33.52C23.1504 33.4667 23.1504 33.4667 23.2308 33.52C23.2308 33.6267 23.3917 33.6 23.7135 33.44ZM23.9549 32.88C24.1158 32.7733 24.1158 32.7733 23.9549 32.88C23.794 32.9333 23.7538 32.96 23.8342 32.96L23.9549 32.88ZM24.1963 33.12C24.3572 33.12 24.3974 33.0933 24.3169 33.04C24.3169 32.9333 24.2365 32.9333 24.0756 33.04C23.9951 33.0933 24.0353 33.12 24.1963 33.12ZM24.3169 32.24C24.4778 32.3467 24.5583 32.32 24.5583 32.16H24.4376C24.3572 32.16 24.3169 32.1867 24.3169 32.24ZM24.679 33.12C24.8399 33.0133 24.9203 32.96 24.9203 32.96C24.9203 32.9067 24.8399 32.9333 24.679 33.04C24.5181 33.1467 24.4376 33.2267 24.4376 33.28C24.4376 33.28 24.5181 33.2267 24.679 33.12ZM25.403 32.96C25.4835 32.9067 25.4433 32.88 25.2824 32.88C25.2019 32.88 25.2019 32.9067 25.2824 32.96C25.3628 32.96 25.403 32.96 25.403 32.96ZM26.0065 31.28V31.2C25.8455 31.2533 25.7651 31.3067 25.7651 31.36C25.8455 31.36 25.8455 31.36 25.7651 31.36C25.6042 31.36 25.4835 31.4133 25.403 31.52C25.3226 31.6267 25.3226 31.68 25.403 31.68C25.7249 31.68 25.8053 31.6267 25.6444 31.52C25.8053 31.52 25.8858 31.4667 25.8858 31.36C25.9662 31.36 26.0065 31.3333 26.0065 31.28ZM26.0065 15.44C26.1674 15.44 26.1674 15.3867 26.0065 15.28V15.44ZM27.696 2.48C27.6155 2.37333 27.5753 2.37333 27.5753 2.48C27.5753 2.58667 27.6155 2.64 27.696 2.64C27.696 2.64 27.696 2.58667 27.696 2.48ZM27.3339 2.56C27.4144 2.61333 27.4546 2.64 27.4546 2.64C27.4546 2.58667 27.4144 2.56 27.3339 2.56C27.3339 2.50667 27.3339 2.50667 27.3339 2.56ZM27.4546 2.88C27.4546 2.93333 27.4546 3.01333 27.4546 3.12C27.4546 3.17334 27.4948 3.14667 27.5753 3.04C27.6557 2.77333 27.6155 2.69333 27.4546 2.8C27.2937 2.85333 27.2937 2.88 27.4546 2.88ZM27.5753 33.2C27.5753 33.3067 27.5753 33.3333 27.5753 33.28C27.6557 33.2267 27.6557 33.1733 27.5753 33.12V33.2ZM27.5753 34.08C27.5753 34.1333 27.5753 34.16 27.5753 34.16C27.6557 34.16 27.696 34.1333 27.696 34.08C27.696 34.0267 27.6557 34 27.5753 34C27.5753 34 27.5753 34.0267 27.5753 34.08ZM27.696 34.48C27.7764 34.5867 27.8166 34.64 27.8166 34.64C27.8166 34.5867 27.7764 34.5333 27.696 34.48C27.696 34.3733 27.696 34.3733 27.696 34.48ZM27.8166 35.04C27.8166 35.3067 27.8166 35.44 27.8166 35.44C27.8971 35.3867 27.9373 35.2533 27.9373 35.04V34.88L27.8166 34.72V35.04ZM27.9373 35.68C28.0178 35.5733 28.0178 35.4933 27.9373 35.44C27.9373 35.3867 27.9373 35.44 27.9373 35.6V35.68ZM28.058 36.16V36V36.16ZM28.1787 36.56V36.48C28.1787 36.48 28.1787 36.5067 28.1787 36.56ZM28.2994 37.44C28.2189 37.3333 28.1787 37.3333 28.1787 37.44C28.1787 37.4933 28.2189 37.52 28.2994 37.52V37.44ZM28.42 41.36C28.42 41.2533 28.3798 41.1733 28.2994 41.12C28.2994 41.0667 28.2994 41.12 28.2994 41.28C28.2994 41.3867 28.3396 41.4133 28.42 41.36ZM28.42 37.84V37.76C28.3396 37.6533 28.2994 37.6533 28.2994 37.76C28.2994 37.8133 28.3396 37.84 28.42 37.84ZM28.42 41.68C28.5005 41.68 28.5407 41.68 28.5407 41.68C28.5407 41.6267 28.5005 41.6 28.42 41.6V41.68ZM28.42 2.72C28.5809 2.61333 28.5809 2.56 28.42 2.56C28.2591 2.66667 28.2591 2.72 28.42 2.72ZM30.4716 6C30.4716 5.89333 30.4314 5.86667 30.3509 5.92C30.3509 5.92 30.3911 5.94667 30.4716 6ZM30.9543 5.76C30.9543 5.70667 30.8739 5.70667 30.713 5.76C30.552 5.81333 30.552 5.84 30.713 5.84C30.7934 5.84 30.8336 5.84 30.8336 5.84C30.8336 5.78667 30.8739 5.76 30.9543 5.76ZM31.9197 18C31.9197 17.9467 31.9197 17.92 31.9197 17.92V18ZM31.6784 17.6C31.8393 17.4933 31.8393 17.44 31.6784 17.44C31.6784 17.3867 31.6784 17.3333 31.6784 17.28C31.5979 17.28 31.5577 17.3333 31.5577 17.44C31.5577 17.6 31.5979 17.6533 31.6784 17.6ZM31.6784 17.2C31.6784 17.1467 31.6382 17.0933 31.5577 17.04C31.5577 16.9867 31.5577 17.0133 31.5577 17.12C31.6382 17.1733 31.6784 17.2 31.6784 17.2ZM31.3164 11.2C31.2359 11.2 31.1957 11.2267 31.1957 11.28C31.2761 11.28 31.3566 11.28 31.437 11.28C31.437 11.2267 31.3968 11.2 31.3164 11.2ZM31.437 12.88V13.28C31.437 13.44 31.437 13.6267 31.437 13.84V13.68C31.5175 13.4133 31.5577 13.28 31.5577 13.28C31.5577 13.28 31.5577 13.4133 31.5577 13.68C31.5577 13.84 31.5979 13.9467 31.6784 14C31.6784 14 31.6784 14.0267 31.6784 14.08V13.92C31.6784 13.76 31.6382 13.6 31.5577 13.44V12.96C31.5577 13.0133 31.5175 12.9867 31.437 12.88ZM31.5577 14.56C31.4773 14.6133 31.4773 14.64 31.5577 14.64C31.6382 14.8 31.6784 14.7467 31.6784 14.48C31.7588 14.2133 31.7588 14.16 31.6784 14.32C31.5979 14.3733 31.5577 14.4 31.5577 14.4C31.6382 14.4 31.6382 14.4533 31.5577 14.56ZM31.6784 14.8C31.6784 14.7467 31.6382 14.72 31.5577 14.72C31.5577 14.72 31.5577 14.7467 31.5577 14.8C31.5577 14.8533 31.5577 14.88 31.5577 14.88C31.6382 14.88 31.6784 14.8533 31.6784 14.8ZM31.5577 14.96C31.5577 14.96 31.5175 15.0667 31.437 15.28C31.437 15.44 31.437 15.6267 31.437 15.84C31.437 16.0533 31.437 16.24 31.437 16.4C31.5175 16.56 31.5979 16.64 31.6784 16.64C31.6784 16.32 31.6784 16.0267 31.6784 15.76C31.6784 15.2267 31.6382 14.96 31.5577 14.96ZM31.6784 17.76C31.5175 17.7067 31.437 17.7333 31.437 17.84C31.5175 17.8933 31.6382 17.8933 31.7991 17.84C31.8795 17.84 31.9197 17.6533 31.9197 17.28C31.8393 17.6 31.7588 17.76 31.6784 17.76ZM31.7991 18.72C31.8795 18.6667 31.8795 18.64 31.7991 18.64C31.7186 18.64 31.6784 18.6667 31.6784 18.72C31.6784 18.7733 31.6784 18.8 31.6784 18.8C31.7588 18.8 31.7991 18.7733 31.7991 18.72ZM35.2988 51.52C35.2988 51.4667 35.2585 51.44 35.1781 51.44C35.1781 51.44 35.1781 51.4667 35.1781 51.52C35.1781 51.6267 35.1781 51.6533 35.1781 51.6C35.2585 51.6 35.2988 51.5733 35.2988 51.52ZM34.8161 51.04C34.7356 51.04 34.6954 51.0667 34.6954 51.12C34.6954 51.1733 34.7356 51.2 34.8161 51.2V51.12C34.8965 51.12 34.9367 51.0933 34.9367 51.04C34.9367 51.04 34.8965 51.04 34.8161 51.04ZM37.109 51.04C37.0285 50.9333 36.9883 50.9067 36.9883 50.96C37.0687 51.0667 37.1492 51.12 37.2296 51.12C37.2296 51.0667 37.1894 51.0133 37.109 50.96C37.109 50.96 37.109 50.9867 37.109 51.04ZM36.7469 48.56C36.7469 48.6667 36.7469 48.72 36.7469 48.72C36.8274 48.6667 36.8676 48.6133 36.8676 48.56C36.8676 48.5067 36.8274 48.48 36.7469 48.48C36.7469 48.48 36.7469 48.5067 36.7469 48.56ZM36.3849 50.48V50.24C36.3044 50.08 36.224 50 36.1435 50C36.1435 50 36.1838 50.08 36.2642 50.24L36.3849 50.48ZM36.3849 47.68C36.3849 47.6267 36.3447 47.6 36.2642 47.6C36.1838 47.4933 36.1435 47.4933 36.1435 47.6C36.224 47.7067 36.3044 47.7333 36.3849 47.68ZM36.2642 47.36C36.1838 47.3067 36.1435 47.28 36.1435 47.28C36.0631 47.3333 36.0631 47.3867 36.1435 47.44C36.3044 47.4933 36.3447 47.4667 36.2642 47.36ZM36.1435 46.96V46.88C35.9826 46.8267 35.9424 46.8533 36.0229 46.96C36.1033 47.0133 36.1435 47.0133 36.1435 46.96ZM35.9022 46.32C35.9022 46.48 35.9424 46.5867 36.0229 46.64C36.0229 46.64 36.0229 46.6667 36.0229 46.72V46.48L35.9022 46.24V46.32ZM36.0229 45.36C36.0229 45.2533 35.9826 45.1733 35.9022 45.12C35.9022 45.0667 35.9022 45.0933 35.9022 45.2C35.9022 45.4667 35.9424 45.52 36.0229 45.36ZM35.9022 44.72C35.8217 44.72 35.7815 44.72 35.7815 44.72C35.7815 44.8267 35.7815 44.88 35.7815 44.88C35.8619 44.8267 35.9022 44.7733 35.9022 44.72ZM35.9022 45.92C35.8217 45.92 35.7815 45.9733 35.7815 46.08C35.8619 46.1333 35.9022 46.1333 35.9022 46.08C35.9826 46.0267 35.9826 45.9733 35.9022 45.92ZM35.0574 41.44C35.0574 41.3333 35.0172 41.28 34.9367 41.28C34.9367 41.28 34.9367 41.3333 34.9367 41.44C35.0172 41.6 35.0574 41.6 35.0574 41.44ZM34.9367 40.96V41.04C34.9367 41.1467 34.9367 41.1733 34.9367 41.12C35.0172 41.0667 35.0172 41.0133 34.9367 40.96ZM34.6954 49.36C34.6954 49.3067 34.6552 49.28 34.5747 49.28C34.5747 49.28 34.5747 49.3067 34.5747 49.36C34.7356 49.4667 34.8161 49.5733 34.8161 49.68C34.8161 49.84 34.8161 49.8933 34.8161 49.84C34.8965 49.7867 34.9367 49.7333 34.9367 49.68C34.9367 49.52 34.8563 49.4133 34.6954 49.36ZM34.3333 51.12C34.3333 51.2267 34.3333 51.2533 34.3333 51.2C34.4138 51.2 34.454 51.1733 34.454 51.12C34.454 51.0667 34.4138 51.04 34.3333 51.04C34.3333 51.04 34.3333 51.0667 34.3333 51.12ZM33.2472 37.68C33.2472 37.5733 33.207 37.5467 33.1265 37.6C33.1265 37.6533 33.1265 37.7067 33.1265 37.76C33.207 37.8133 33.2472 37.7867 33.2472 37.68ZM32.8852 18.4C32.9656 18.3467 32.9254 18.3733 32.7645 18.48C32.6036 18.5333 32.5634 18.56 32.6438 18.56C32.7243 18.6133 32.8047 18.56 32.8852 18.4ZM32.7645 28.08C32.9254 27.9733 32.9254 27.92 32.7645 27.92C32.6841 27.9733 32.6036 28.0267 32.5231 28.08C32.5231 28.1333 32.6036 28.1333 32.7645 28.08ZM33.3679 27.2C33.0461 27.4133 32.8852 27.4933 32.8852 27.44C32.8852 27.3867 33.0059 27.36 33.2472 27.36C33.3277 27.4133 33.4081 27.4133 33.4886 27.36C33.6495 27.1467 33.7299 27.04 33.7299 27.04L33.8506 26.96C33.7702 26.96 33.6093 27.04 33.3679 27.2ZM33.0059 23.76C33.1668 23.6533 33.207 23.6 33.1265 23.6C33.1265 23.6 33.0461 23.6533 32.8852 23.76C32.8047 23.8667 32.7645 23.92 32.7645 23.92C32.845 23.92 32.9254 23.8667 33.0059 23.76ZM33.8506 26.4C33.9311 26.2933 33.9311 26.2667 33.8506 26.32C33.6897 26.4267 33.6093 26.5067 33.6093 26.56C33.6897 26.56 33.7702 26.5067 33.8506 26.4ZM34.3333 22.4C34.4942 22.2933 34.5345 22.24 34.454 22.24C34.454 22.24 34.3736 22.2933 34.2127 22.4C34.1322 22.5067 34.092 22.56 34.092 22.56C34.092 22.56 34.1724 22.5067 34.3333 22.4ZM34.8161 22.16C34.8965 22.0533 34.8965 22 34.8161 22C34.8161 22 34.7758 22.0533 34.6954 22.16C34.6149 22.2133 34.5747 22.2667 34.5747 22.32C34.5747 22.32 34.6552 22.2667 34.8161 22.16ZM37.471 24.32C37.5515 24.2667 37.5515 24.24 37.471 24.24C37.471 24.24 37.3906 24.2933 37.2296 24.4C37.0687 24.4533 37.0285 24.48 37.109 24.48C37.1894 24.48 37.2699 24.4533 37.3503 24.4C37.3503 24.3467 37.3503 24.3467 37.3503 24.4C37.4308 24.4533 37.471 24.4267 37.471 24.32ZM40.7294 22.48C40.9707 22.2133 41.0914 22.08 41.0914 22.08C41.0109 22.08 40.85 22.1867 40.6087 22.4C40.3673 22.56 40.1662 22.64 40.0053 22.64C39.8444 22.6933 39.7639 22.7467 39.7639 22.8C39.8444 22.8533 39.8041 22.9067 39.6432 22.96C39.4823 23.0667 39.4019 23.12 39.4019 23.12C39.4019 23.2267 39.4421 23.2267 39.5226 23.12C39.603 23.0133 39.6432 22.9867 39.6432 23.04C39.7237 23.0933 39.8041 23.0667 39.8846 22.96C40.0455 22.8533 40.126 22.8533 40.126 22.96C40.0455 23.0133 40.0455 23.04 40.126 23.04C40.2064 22.9867 40.2869 22.9067 40.3673 22.8C40.5282 22.7467 40.6891 22.6667 40.85 22.56C40.7696 22.56 40.6891 22.5867 40.6087 22.64C40.3673 22.7467 40.2064 22.8 40.126 22.8C40.0455 22.7467 40.0455 22.7467 40.126 22.8C40.0455 22.8 40.0053 22.7733 40.0053 22.72C40.1662 22.6667 40.2064 22.6933 40.126 22.8C40.126 22.8533 40.3271 22.7467 40.7294 22.48ZM41.3328 22L41.4534 21.92C41.6143 21.8667 41.6948 21.84 41.6948 21.84C41.7752 21.7867 41.8959 21.7333 42.0568 21.68C42.0568 21.6267 41.9362 21.68 41.6948 21.84C41.6143 21.8933 41.4937 21.9467 41.3328 22ZM42.1775 21.92C42.258 21.8667 42.258 21.84 42.1775 21.84C42.0971 21.84 42.0568 21.8667 42.0568 21.92C42.0568 21.9733 42.0568 22 42.0568 22C42.1373 22 42.1775 21.9733 42.1775 21.92ZM42.5396 21.28C42.5396 21.3333 42.5798 21.36 42.6602 21.36C42.7407 21.3067 42.7407 21.2533 42.6602 21.2L42.5396 21.28ZM42.9016 21.12C42.982 21.0667 43.0223 21.0133 43.0223 20.96C43.1832 20.8533 43.1832 20.8533 43.0223 20.96C42.8614 21.0667 42.8211 21.12 42.9016 21.12ZM43.0223 21.12C43.1027 21.1733 43.1429 21.1733 43.1429 21.12C43.1429 21.0133 43.1027 20.9867 43.0223 21.04C43.0223 21.04 43.0223 21.0667 43.0223 21.12ZM43.505 20.72C43.505 20.6133 43.505 20.56 43.505 20.56V20.64V20.72ZM43.9877 20.64C43.9877 20.5867 43.9475 20.5867 43.867 20.64C43.7061 20.7467 43.6257 20.8 43.6257 20.8C43.7061 20.8 43.8268 20.7467 43.9877 20.64ZM44.1084 20.4C44.1084 20.2933 44.0279 20.2933 43.867 20.4H43.9877C43.9877 20.4 44.0279 20.4 44.1084 20.4ZM43.0223 22.08C43.1027 22.0267 43.1429 21.9733 43.1429 21.92C43.1429 21.8667 43.1027 21.8667 43.0223 21.92C42.8614 21.9733 42.7809 22.0533 42.7809 22.16C42.7809 22.2133 42.8614 22.1867 43.0223 22.08ZM44.5911 21.12C44.5107 21.0133 44.39 21.0133 44.2291 21.12C44.0682 21.1733 43.9877 21.2533 43.9877 21.36C43.9877 21.4667 44.0279 21.4667 44.1084 21.36C44.2693 21.2533 44.39 21.2 44.4704 21.2C44.5509 21.1467 44.5911 21.12 44.5911 21.12ZM44.3497 20.08C44.2693 20.1867 44.2693 20.2133 44.3497 20.16C44.5107 20.1067 44.6313 20.0267 44.7118 19.92C44.8727 19.8133 44.8727 19.8133 44.7118 19.92C44.5509 19.9733 44.4302 20.0267 44.3497 20.08ZM44.7118 20.56C44.8727 20.5067 44.9531 20.48 44.9531 20.48C44.9531 20.4267 44.8727 20.4533 44.7118 20.56C44.6313 20.6667 44.5911 20.72 44.5911 20.72C44.5911 20.72 44.6313 20.6667 44.7118 20.56ZM47.2461 18.64L47.1254 18.72C47.0449 18.8267 47.0047 18.88 47.0047 18.88L47.1254 18.72C47.2058 18.72 47.2461 18.72 47.2461 18.72C47.3265 18.6667 47.3265 18.64 47.2461 18.64ZM46.7633 18.56C46.7633 18.6667 46.884 18.64 47.1254 18.48C47.2058 18.3733 47.1656 18.3733 47.0047 18.48C46.9242 18.5333 46.8438 18.56 46.7633 18.56ZM46.4013 18.88C46.3208 18.8267 46.2806 18.8267 46.2806 18.88C46.2806 18.9333 46.3208 18.96 46.4013 18.96C46.4818 18.96 46.522 18.96 46.522 18.96C46.522 18.9067 46.4818 18.88 46.4013 18.88ZM45.0738 10.96C44.9129 11.0133 44.8727 11.0667 44.9531 11.12C45.0336 11.1733 45.0738 11.1467 45.0738 11.04C45.0738 10.9867 45.114 10.96 45.1945 10.96C45.275 11.0133 45.275 11.0133 45.1945 10.96C45.1945 10.8533 45.1543 10.8533 45.0738 10.96ZM45.1945 19.68C45.0336 19.7333 44.9531 19.7867 44.9531 19.84C45.0336 19.84 45.114 19.7867 45.1945 19.68ZM45.1945 20.24C45.275 20.1867 45.275 20.16 45.1945 20.16C45.0336 20.2667 44.9531 20.3467 44.9531 20.4C45.0336 20.4 45.114 20.3467 45.1945 20.24ZM45.3152 19.76C45.2347 19.8667 45.275 19.8933 45.4359 19.84C45.6772 19.68 45.637 19.6533 45.3152 19.76ZM45.7979 19.76C45.8784 19.6533 45.9186 19.6 45.9186 19.6C45.8381 19.6533 45.7979 19.7067 45.7979 19.76C45.637 19.8667 45.5565 19.92 45.5565 19.92C45.3956 19.92 45.3554 19.9467 45.4359 20C45.4359 20.16 45.5565 20.08 45.7979 19.76ZM46.0393 19.28C46.1197 19.28 46.1197 19.28 46.0393 19.28C45.9588 19.2267 45.999 19.1733 46.1599 19.12C46.2404 19.0133 46.2806 18.96 46.2806 18.96C46.2806 18.9067 46.1599 18.9867 45.9186 19.2L45.6772 19.36C45.7577 19.3067 45.7979 19.28 45.7979 19.28C45.9588 19.28 46.0393 19.28 46.0393 19.28ZM46.4013 19.44C46.4818 19.3867 46.522 19.36 46.522 19.36C46.522 19.3067 46.4818 19.3067 46.4013 19.36C46.1599 19.4667 46.0393 19.5467 46.0393 19.6C46.1197 19.6 46.2404 19.5467 46.4013 19.44ZM46.6427 19.04C46.7231 18.9867 46.7633 18.96 46.7633 18.96C46.7633 18.8533 46.6829 18.8533 46.522 18.96C46.3611 19.0667 46.2806 19.1733 46.2806 19.28C46.2806 19.3333 46.3208 19.3067 46.4013 19.2C46.5622 19.04 46.6427 18.9867 46.6427 19.04ZM47.3667 19.04C47.4472 18.9867 47.4874 18.96 47.4874 18.96C47.4874 18.9067 47.4472 18.9067 47.3667 18.96C47.2863 19.0133 47.2058 19.04 47.1254 19.04C47.1254 19.04 47.1656 19.0133 47.2461 18.96C47.3265 18.8533 47.3265 18.8267 47.2461 18.88C47.0851 18.9867 47.0047 19.0667 47.0047 19.12C47.0851 19.1733 47.0851 19.1733 47.0047 19.12V19.04C47.0047 19.04 46.9645 19.0667 46.884 19.12C46.8036 19.2267 46.7633 19.2533 46.7633 19.2C46.8438 19.1467 46.9242 19.1467 47.0047 19.2C47.1656 19.3067 47.2461 19.3333 47.2461 19.28C47.2461 19.2267 47.2058 19.2 47.1254 19.2C47.1254 19.2533 47.2058 19.2 47.3667 19.04ZM47.7288 18.64C47.5679 18.6933 47.4874 18.7467 47.4874 18.8C47.5679 18.8 47.6483 18.7467 47.7288 18.64ZM47.8494 18.32C47.9299 18.2133 47.8897 18.1867 47.7288 18.24C47.6483 18.2933 47.6081 18.3467 47.6081 18.4C47.6081 18.4533 47.6885 18.4267 47.8494 18.32ZM48.0908 18.48H48.3322C48.3322 18.4267 48.2517 18.4 48.0908 18.4C48.0104 18.4 48.0104 18.4267 48.0908 18.48ZM49.1769 10.64C49.2574 10.5867 49.2574 10.56 49.1769 10.56C49.0965 10.6133 49.016 10.6667 48.9356 10.72H49.0562C49.0562 10.72 49.0965 10.6933 49.1769 10.64ZM49.0562 17.92C48.8953 17.9733 48.8149 18.0267 48.8149 18.08C48.8953 18.08 48.9758 18.0267 49.0562 17.92ZM48.4529 17.92C48.4529 17.9733 48.6138 17.8933 48.9356 17.68C49.016 17.5733 49.1367 17.4667 49.2976 17.36C49.2976 17.4133 49.2574 17.4667 49.1769 17.52C49.016 17.68 48.8551 17.76 48.6942 17.76C48.6138 17.7067 48.5735 17.7067 48.5735 17.76C48.654 17.8133 48.654 17.84 48.5735 17.84C48.4931 17.84 48.4529 17.8667 48.4529 17.92ZM49.4183 17.28C49.4987 17.3333 49.5792 17.3333 49.6596 17.28C49.8206 17.1733 49.901 17.0933 49.901 17.04C49.901 16.9867 49.8206 17.0133 49.6596 17.12C49.5792 17.2267 49.4987 17.2533 49.4183 17.2V17.28ZM55.2109 12.16C55.1305 12.16 55.0902 12.1867 55.0902 12.24C55.0902 12.24 55.1305 12.24 55.2109 12.24C55.2914 12.1867 55.2914 12.16 55.2109 12.16ZM55.0902 12.72C54.9293 12.8267 54.8891 12.88 54.9695 12.88C55.1305 12.8267 55.2109 12.7733 55.2109 12.72C55.2914 12.6667 55.2511 12.6667 55.0902 12.72ZM54.6075 12.56C54.4466 12.6667 54.3661 12.72 54.3661 12.72C54.3661 12.7733 54.4466 12.7467 54.6075 12.64C54.7684 12.5333 54.7684 12.5067 54.6075 12.56ZM51.1078 9.36C50.9469 9.41333 50.9067 9.44 50.9871 9.44C51.0676 9.44 51.148 9.41333 51.2285 9.36C51.3089 9.25333 51.3089 9.2 51.2285 9.2C51.148 9.2 51.1078 9.22667 51.1078 9.28V9.36ZM51.1078 16.32C50.9469 16.3733 50.8664 16.4267 50.8664 16.48C50.9469 16.48 51.0676 16.4267 51.2285 16.32C51.3894 16.2133 51.4296 16.16 51.3492 16.16C51.3492 16.16 51.2687 16.2133 51.1078 16.32ZM50.263 16.88C50.424 16.72 50.3837 16.72 50.1424 16.88C49.901 17.04 49.8608 17.0933 50.0217 17.04C50.1021 16.9867 50.1424 16.96 50.1424 16.96C50.2228 16.96 50.263 16.9333 50.263 16.88ZM50.0217 10C50.0217 10.1067 50.0217 10.1333 50.0217 10.08C50.1021 10.0267 50.2228 9.97333 50.3837 9.92C50.4642 9.86667 50.424 9.86667 50.263 9.92C50.1021 9.92 50.0217 9.94667 50.0217 10ZM50.3837 17.04C50.4642 17.0933 50.5044 17.0933 50.5044 17.04C50.5044 16.9333 50.4642 16.9067 50.3837 16.96C50.3033 16.96 50.3033 16.9867 50.3837 17.04ZM50.6251 17.04C50.6251 17.1467 50.6653 17.1733 50.7458 17.12C50.9067 17.0133 50.9871 16.9333 50.9871 16.88C50.9871 16.9333 50.8664 16.96 50.6251 16.96V17.04ZM51.1078 16.8L51.3492 16.72C51.2687 16.72 51.1883 16.7467 51.1078 16.8C51.0274 16.8533 51.0274 16.8533 51.1078 16.8ZM51.4698 14.48C51.5503 14.4267 51.5101 14.4267 51.3492 14.48C51.1883 14.5867 51.1078 14.64 51.1078 14.64C51.1883 14.64 51.3089 14.5867 51.4698 14.48ZM51.5905 9.04C51.671 8.93333 51.6307 8.93333 51.4698 9.04C51.3894 9.14667 51.3492 9.22667 51.3492 9.28C51.3492 9.44 51.4296 9.36 51.5905 9.04ZM52.0732 16.4V16.32L51.9526 16.4H52.0732ZM51.9526 8.88C52.1135 8.77333 52.1939 8.69334 52.1939 8.64C52.1939 8.58667 52.1537 8.61333 52.0732 8.72C51.9123 8.82667 51.8319 8.88 51.8319 8.88C51.8319 8.93333 51.8721 8.93333 51.9526 8.88ZM52.3146 8.56C52.2341 8.61334 52.1939 8.66667 52.1939 8.72C52.1939 8.72 52.2744 8.66667 52.4353 8.56C52.4353 8.50667 52.3951 8.50667 52.3146 8.56ZM52.556 16.24C52.7169 16.1333 52.7169 16.1067 52.556 16.16C52.3951 16.2133 52.3146 16.2667 52.3146 16.32H52.4353C52.4353 16.32 52.4755 16.2933 52.556 16.24ZM55.3316 14.32V14.16C55.2511 14.1067 55.2109 14.1333 55.2109 14.24C55.2109 14.2933 55.2511 14.32 55.3316 14.32ZM55.6936 13.6C55.7741 13.4933 55.8143 13.44 55.8143 13.44C55.8143 13.44 55.6936 13.52 55.4523 13.68C55.2109 13.7867 55.05 13.84 54.9695 13.84C54.9695 13.7867 54.9695 13.8133 54.9695 13.92C54.9695 13.9733 54.8891 14 54.7282 14C54.5673 14 54.5271 14.0267 54.6075 14.08C54.688 14.1333 54.6477 14.16 54.4868 14.16C54.4064 14.16 54.3259 14.1867 54.2455 14.24C54.2455 14.2933 54.2857 14.2933 54.3661 14.24C54.5271 14.1867 54.5673 14.1867 54.4868 14.24C54.4868 14.2933 54.4466 14.32 54.3661 14.32C54.2052 14.32 53.9237 14.48 53.5214 14.8C53.1191 15.0667 52.8778 15.2 52.7973 15.2L52.6766 15.28C52.5962 15.3333 52.556 15.3867 52.556 15.44L52.7973 15.28C52.7973 15.3333 52.918 15.28 53.1594 15.12C53.4812 14.9067 53.6823 14.8 53.7628 14.8C53.9237 14.8 54.0041 14.7733 54.0041 14.72C54.0846 14.6133 54.165 14.5867 54.2455 14.64C54.3259 14.6933 54.3661 14.6667 54.3661 14.56C54.4466 14.4533 54.5271 14.4267 54.6075 14.48C54.688 14.48 54.7282 14.4267 54.7282 14.32C54.8086 14.32 54.9293 14.24 55.0902 14.08C55.2511 13.92 55.3316 13.8667 55.3316 13.92C55.2511 13.9733 55.2511 14.0267 55.3316 14.08C55.412 14.08 55.4523 14.0267 55.4523 13.92C55.3718 13.8133 55.3316 13.7867 55.3316 13.84C55.412 13.84 55.5327 13.76 55.6936 13.6ZM57.3831 11.36V11.28C57.3831 11.2267 57.3429 11.2 57.2625 11.2C57.3429 11.3067 57.3831 11.36 57.3831 11.36ZM57.5038 10.72C57.5843 10.6667 57.5843 10.64 57.5038 10.64C57.3429 10.7467 57.3027 10.8 57.3831 10.8C57.4636 10.8 57.5038 10.7733 57.5038 10.72ZM58.2279 11.84C58.1474 11.8933 58.1474 11.9467 58.2279 12C58.3083 12.0533 58.3083 12.0267 58.2279 11.92V11.84ZM58.4693 10.88C58.3888 10.9333 58.3486 10.9067 58.3486 10.8C58.2681 10.8533 58.2279 10.9067 58.2279 10.96C58.3083 11.0133 58.3888 10.9867 58.4693 10.88ZM60.1588 3.6V3.68C60.0783 3.78667 60.0783 3.81334 60.1588 3.76C60.2392 3.70667 60.2392 3.65333 60.1588 3.6ZM60.1588 3.28C59.9979 3.33333 59.9174 3.38667 59.9174 3.44C59.9979 3.49333 60.0783 3.46667 60.1588 3.36V3.28ZM59.676 3.84C59.5956 3.89334 59.5956 3.92 59.676 3.92C59.7565 3.92 59.7967 3.89334 59.7967 3.84C59.8772 3.78667 59.837 3.78667 59.676 3.84ZM59.314 3.92C59.1531 4.02667 59.1531 4.08 59.314 4.08C59.3945 4.08 59.4347 4.05333 59.4347 4C59.5151 3.89334 59.4749 3.86667 59.314 3.92ZM59.0726 10.72C59.1531 10.6667 59.1531 10.64 59.0726 10.64C58.9117 10.5333 58.8715 10.48 58.952 10.48C58.8715 10.48 58.8313 10.56 58.8313 10.72C58.9117 10.8267 58.9922 10.8267 59.0726 10.72ZM59.0726 3.04C59.0726 3.09333 59.1129 3.06667 59.1933 2.96C59.3542 2.85333 59.3542 2.82667 59.1933 2.88C59.1129 2.98667 59.0726 3.04 59.0726 3.04ZM59.9174 11.12L59.7967 11.04C59.7163 11.04 59.676 11.0933 59.676 11.2C59.7565 11.2533 59.837 11.2267 59.9174 11.12ZM59.9174 10.96C59.9174 10.9067 59.9174 10.88 59.9174 10.88V10.96ZM60.2794 10.88V10.8C60.199 10.8 60.1588 10.8267 60.1588 10.88C60.1588 10.9333 60.199 10.9333 60.2794 10.88ZM59.676 10.4C59.9979 10.2933 60.3197 10.1333 60.6415 9.92C60.8024 9.76 60.7622 9.78667 60.5208 10C60.2794 10.16 60.0783 10.1867 59.9174 10.08C59.9174 10.0267 59.837 10.0267 59.676 10.08C59.5956 10.1333 59.5554 10.1867 59.5554 10.24C59.5554 10.2933 59.5956 10.2933 59.676 10.24C59.7565 10.1333 59.837 10.1067 59.9174 10.16C59.9174 10.2133 59.837 10.2667 59.676 10.32C59.5151 10.32 59.3945 10.32 59.314 10.32V10.56C59.1531 10.6133 59.1129 10.64 59.1933 10.64C59.3542 10.5867 59.4347 10.5333 59.4347 10.48C59.4347 10.4267 59.4347 10.4267 59.4347 10.48C59.5151 10.5333 59.5956 10.5067 59.676 10.4ZM60.7622 10.48C60.7622 10.48 60.8024 10.48 60.8829 10.48C60.8829 10.3733 60.7622 10.4 60.5208 10.56C60.3599 10.6667 60.3599 10.6667 60.5208 10.56L60.7622 10.48ZM61.0035 10.4C61.0035 10.3467 61.0035 10.32 61.0035 10.32H60.8829C60.8829 10.3733 60.9231 10.4 61.0035 10.4ZM61.4862 9.2V9.12C61.4058 9.12 61.3656 9.14667 61.3656 9.2C61.3656 9.2 61.4058 9.2 61.4862 9.2ZM62.8137 2.08C62.7333 2.08 62.693 2.08 62.693 2.08C62.7735 2.08 62.8137 2.08 62.8137 2.08ZM63.7792 8.32C63.9401 8.26667 64.0205 8.24 64.0205 8.24C64.0205 8.18667 64.0205 8.16 64.0205 8.16L63.6585 8.4C63.6585 8.4 63.6987 8.37333 63.7792 8.32ZM64.2619 8.48C64.5032 8.32 64.463 8.32 64.1412 8.48C63.8998 8.58667 63.8194 8.64 63.8998 8.64C63.9803 8.64 64.0205 8.64 64.0205 8.64C64.0205 8.58667 64.0607 8.56 64.1412 8.56C64.1412 8.56 64.1814 8.53333 64.2619 8.48ZM67.7616 5.12C67.6007 5.22667 67.6007 5.28 67.7616 5.28V5.2C67.842 5.14667 67.842 5.12 67.7616 5.12ZM66.7961 5.92C66.6352 5.97333 66.5548 6 66.5548 6C66.6352 6 66.7157 5.97333 66.7961 5.92C66.8766 5.86667 66.9168 5.89333 66.9168 6C66.9973 6 67.0375 6 67.0375 6C67.0375 5.94667 67.0777 5.89333 67.1582 5.84C67.1582 5.78667 67.118 5.76 67.0375 5.76C67.0375 5.76 67.0375 5.78667 67.0375 5.84C67.0375 5.78667 66.9571 5.81333 66.7961 5.92ZM65.9514 0.479999C65.7905 0.533334 65.71 0.586669 65.71 0.640001C65.71 0.640001 65.7905 0.613335 65.9514 0.560002C66.1123 0.453334 66.1123 0.426666 65.9514 0.479999ZM66.0721 7.04C65.9112 7.09333 65.8307 7.14667 65.8307 7.2C65.8307 7.2 65.9112 7.17333 66.0721 7.12C66.233 7.01333 66.233 6.98667 66.0721 7.04ZM66.5548 7.12C66.4743 7.06667 66.3939 7.09333 66.3134 7.2C66.3134 7.25334 66.2732 7.25334 66.1927 7.2C66.1123 7.2 66.0721 7.22667 66.0721 7.28C66.1525 7.33333 66.1525 7.33333 66.0721 7.28H65.9514C66.0318 7.33333 66.1123 7.36 66.1927 7.36C66.3537 7.30667 66.4341 7.25334 66.4341 7.2C66.4341 7.14667 66.4743 7.12 66.5548 7.12ZM67.7616 2.48C67.6811 2.48 67.6409 2.50667 67.6409 2.56C67.6409 2.56 67.6811 2.56 67.7616 2.56C67.842 2.56 67.8823 2.53333 67.8823 2.48C67.9627 2.42667 67.9225 2.42667 67.7616 2.48ZM36.8676 24.96C36.7872 25.0667 36.7872 25.12 36.8676 25.12C36.9481 25.12 36.9481 25.1467 36.8676 25.2V25.12C36.7872 25.0667 36.7067 25.04 36.6263 25.04C36.7872 24.9867 36.8676 24.96 36.8676 24.96Z" fill="#B9965A"/>
</svg>
