<svg width="46" height="53" viewBox="0 0 46 53" fill="none" xmlns="http://www.w3.org/2000/svg">
<path d="M45.1598 1.92C45.2664 1.86667 45.3198 1.86667 45.3198 1.92C45.3198 1.92 45.2931 1.92 45.2398 1.92C45.1864 1.92 45.1064 1.97333 44.9998 2.08C44.8931 2.18667 44.8131 2.24 44.7598 2.24C44.7064 2.24 44.6798 2.26667 44.6798 2.32C44.6798 2.37333 44.7331 2.37333 44.8398 2.32C44.8931 2.32 44.9464 2.34667 44.9998 2.4C45.1064 2.45334 45.1064 2.50667 44.9998 2.56C44.9464 2.61333 44.9731 2.69333 45.0798 2.8C45.1864 2.90667 45.1864 2.98667 45.0798 3.04C45.0264 3.04 45.0264 2.98667 45.0798 2.88C45.0798 2.77333 44.9998 2.77333 44.8398 2.88C44.7331 2.98667 44.7331 3.04 44.8398 3.04C44.8931 3.04 44.9198 3.06667 44.9198 3.12C44.9198 3.12 44.8931 3.12 44.8398 3.12C44.7331 3.28 44.7331 3.33333 44.8398 3.28C44.9998 3.17334 44.9998 3.2 44.8398 3.36C44.7864 3.41333 44.7598 3.49333 44.7598 3.6C44.7598 3.65333 44.7864 3.65333 44.8398 3.6V3.68H44.7598C44.7064 3.62667 44.6798 3.65333 44.6798 3.76C44.6798 3.81334 44.6264 3.84 44.5198 3.84C44.4131 3.84 44.3864 3.86667 44.4398 3.92C44.4931 3.97333 44.4664 3.97333 44.3598 3.92C44.2531 3.92 44.1998 3.94667 44.1998 4C44.2531 4 44.3064 4 44.3598 4H44.5198C44.5198 3.94667 44.5464 3.92 44.5998 3.92C44.6531 3.86667 44.6531 3.86667 44.5998 3.92C44.7064 3.86667 44.7864 3.84 44.8398 3.84C44.8398 3.94667 44.8131 4 44.7598 4C44.7598 3.94667 44.7064 3.97333 44.5998 4.08L44.5198 4.16C44.6798 4 44.7064 4.02667 44.5998 4.24C44.5464 4.29334 44.5198 4.32 44.5198 4.32C44.5198 4.26667 44.4664 4.29334 44.3598 4.4C44.3064 4.50667 44.1998 4.61333 44.0398 4.72C43.9331 4.82667 43.9331 4.85333 44.0398 4.8C44.1464 4.74667 44.2264 4.72 44.2798 4.72C44.3864 4.72 44.4931 4.69334 44.5998 4.64C44.7064 4.53333 44.7598 4.56 44.7598 4.72V4.88C44.8131 4.88 44.8131 4.88 44.7598 4.88C44.7598 4.82667 44.8131 4.8 44.9198 4.8C45.0798 4.8 45.1064 4.85333 44.9998 4.96C44.9464 5.06667 44.9198 5.12 44.9198 5.12C44.9731 5.17333 44.9731 5.25333 44.9198 5.36C44.8664 5.46667 44.7864 5.54667 44.6798 5.6L44.5198 5.76C44.5731 5.86667 44.5731 5.94667 44.5198 6C44.4664 6 44.4664 6 44.5198 6C44.5731 6 44.5998 5.97333 44.5998 5.92C44.6531 5.86667 44.7064 5.86667 44.7598 5.92C44.6531 6.02667 44.5731 6.10667 44.5198 6.16C44.4131 6.32 44.3864 6.42667 44.4398 6.48L44.5198 6.4H44.6798C44.7864 6.29333 44.8398 6.32 44.8398 6.48C44.8931 6.64 44.8664 6.64 44.7598 6.48C44.7598 6.58667 44.7064 6.64 44.5998 6.64C44.5464 6.58667 44.5198 6.61333 44.5198 6.72C44.5198 6.77333 44.4398 6.82667 44.2798 6.88C44.1731 6.93333 44.1731 6.98667 44.2798 7.04C44.3331 7.09333 44.3064 7.17333 44.1998 7.28C44.0931 7.28 44.0131 7.33333 43.9598 7.44C43.9064 7.49333 43.8264 7.52 43.7198 7.52C43.6664 7.52 43.6398 7.54667 43.6398 7.6C43.6398 7.65334 43.6131 7.68 43.5598 7.68C43.4531 7.68 43.3998 7.70667 43.3998 7.76C43.4531 7.81333 43.3731 7.89333 43.1598 8C42.9998 8.10667 42.8931 8.21333 42.8398 8.32C42.8398 8.37333 42.8931 8.34667 42.9998 8.24C43.1064 8.13333 43.1331 8.13333 43.0798 8.24C43.0264 8.29333 42.9731 8.34667 42.9198 8.4V8.48C43.0264 8.37333 42.9998 8.4 42.8398 8.56C42.7331 8.66667 42.7331 8.66667 42.8398 8.56C42.8931 8.45333 42.8398 8.48 42.6798 8.64C42.5731 8.74667 42.4931 8.8 42.4398 8.8C42.3864 8.8 42.3064 8.85333 42.1998 8.96C42.1464 9.06667 42.1464 9.14667 42.1998 9.2H42.1198C42.0664 9.14667 42.0398 9.12 42.0398 9.12C42.0931 9.06667 42.1198 9.04 42.1198 9.04C42.0664 9.04 42.0131 9.06667 41.9598 9.12C41.9598 9.12 41.9331 9.12 41.8798 9.12C41.8798 9.17333 41.8531 9.22667 41.7998 9.28C41.7464 9.28 41.6931 9.30667 41.6398 9.36C41.5864 9.41333 41.5864 9.46667 41.6398 9.52C41.6398 9.57333 41.6398 9.6 41.6398 9.6C41.6931 9.6 41.7198 9.57333 41.7198 9.52V9.36C41.8264 9.36 41.8264 9.44 41.7198 9.6C41.6664 9.70667 41.6398 9.70667 41.6398 9.6C41.6398 9.49333 41.5598 9.52 41.3998 9.68C41.2398 9.78667 41.0531 9.94667 40.8398 10.16C40.6264 10.3733 40.3598 10.6133 40.0398 10.88C40.0398 10.9867 39.9864 11.04 39.8798 11.04C39.7731 11.04 39.7198 11.0667 39.7198 11.12C39.7198 11.1733 39.6398 11.28 39.4798 11.44C39.3198 11.5467 39.1864 11.6533 39.0798 11.76C38.9198 11.92 38.8398 12 38.8398 12C38.8398 11.9467 38.7864 11.9733 38.6798 12.08C38.5198 12.2933 38.4131 12.4 38.3598 12.4C38.3064 12.3467 38.3064 12.2933 38.3598 12.24C38.4131 12.1333 38.4398 12.1067 38.4398 12.16C38.4398 12.16 38.4131 12.1867 38.3598 12.24C38.3064 12.2933 38.2531 12.3467 38.1998 12.4C38.1998 12.4533 38.1731 12.5067 38.1198 12.56C38.1198 12.6133 38.0931 12.6667 38.0398 12.72C37.9331 12.72 37.8264 12.8 37.7198 12.96C37.6131 13.0667 37.5598 13.0667 37.5598 12.96C37.5598 12.9067 37.6131 12.8533 37.7198 12.8C37.8264 12.6933 37.9331 12.6133 38.0398 12.56C37.9864 12.5067 37.8798 12.56 37.7198 12.72C37.6131 12.8267 37.5598 12.9067 37.5598 12.96C37.5064 13.12 37.4531 13.2 37.3998 13.2C37.3464 13.2 37.2931 13.2267 37.2398 13.28C37.2398 13.28 37.2664 13.28 37.3198 13.28C37.3731 13.28 37.3464 13.3067 37.2398 13.36C37.1864 13.4133 37.1864 13.44 37.2398 13.44C37.3464 13.44 37.3731 13.4133 37.3198 13.36C37.3198 13.2533 37.3731 13.2533 37.4798 13.36C37.5864 13.52 37.5864 13.6267 37.4798 13.68C37.3731 13.68 37.3731 13.6267 37.4798 13.52C37.5331 13.4133 37.5331 13.3867 37.4798 13.44C37.3731 13.5467 37.2931 13.5733 37.2398 13.52C37.2398 13.4667 37.2664 13.4667 37.3198 13.52C37.3731 13.5733 37.3731 13.6533 37.3198 13.76C37.2664 13.8133 37.2131 13.84 37.1598 13.84V13.76C37.2131 13.7067 37.1864 13.7067 37.0798 13.76C37.0264 13.8133 36.9731 13.8667 36.9198 13.92C36.8664 13.9733 36.8398 14.0267 36.8398 14.08C36.8398 14.1333 36.8664 14.1067 36.9198 14C37.0264 13.8933 37.0798 13.8667 37.0798 13.92C37.1331 13.92 37.1064 13.9733 36.9998 14.08C36.3598 14.6667 36.0664 14.96 36.1198 14.96C36.0664 14.96 36.0131 15.0133 35.9598 15.12C35.9064 15.2267 35.8798 15.2267 35.8798 15.12C35.9331 15.0667 35.9064 15.0933 35.7998 15.2C35.7464 15.3067 35.7198 15.3867 35.7198 15.44C35.6664 15.44 35.5864 15.4933 35.4798 15.6C35.3731 15.7067 35.2931 15.7333 35.2398 15.68C35.2398 15.6267 35.2664 15.6267 35.3198 15.68C35.3198 15.7333 35.2664 15.8133 35.1598 15.92C35.0531 16.0267 35.0531 16.0267 35.1598 15.92C35.2664 15.8133 35.2931 15.7867 35.2398 15.84C35.1864 15.8933 35.1064 15.9733 34.9998 16.08C34.8931 16.1867 34.7864 16.2933 34.6798 16.4C34.5731 16.4533 34.5198 16.48 34.5198 16.48H34.4398C34.3864 16.48 34.3598 16.5067 34.3598 16.56C34.3598 16.6133 34.3864 16.64 34.4398 16.64C34.4931 16.5867 34.5198 16.5867 34.5198 16.64C34.5198 16.64 34.4664 16.6933 34.3598 16.8C34.2531 16.9067 34.0398 17.0933 33.7198 17.36C33.6664 17.4133 33.5864 17.44 33.4798 17.44C33.4264 17.3867 33.3998 17.3333 33.3998 17.28C33.3464 17.28 33.3198 17.3067 33.3198 17.36C33.4264 17.4133 33.4264 17.4667 33.3198 17.52C33.2131 17.5733 33.1598 17.6533 33.1598 17.76C33.1598 17.8133 33.2131 17.7867 33.3198 17.68C33.4264 17.52 33.4531 17.4667 33.3998 17.52C33.3464 17.6267 33.3464 17.6533 33.3998 17.6C33.4531 17.5467 33.3464 17.6533 33.0798 17.92C33.1331 17.8133 33.1331 17.7333 33.0798 17.68C33.0264 17.68 32.9731 17.7067 32.9198 17.76C32.8664 17.8133 32.8931 17.8133 32.9998 17.76L32.8398 17.92C32.7864 17.9733 32.7331 18.0267 32.6798 18.08C32.5198 18.1333 32.4398 18.2133 32.4398 18.32C32.4398 18.48 32.3864 18.56 32.2798 18.56C32.2264 18.56 32.2531 18.5067 32.3598 18.4C32.2531 18.4533 32.1998 18.5067 32.1998 18.56C32.2531 18.56 32.2264 18.56 32.1198 18.56C32.1731 18.56 32.1464 18.6133 32.0398 18.72C31.9864 18.72 31.9598 18.6933 31.9598 18.64C32.0131 18.5867 32.0131 18.6133 31.9598 18.72C31.9064 18.8267 31.7731 18.96 31.5598 19.12C31.3464 19.28 31.1864 19.4133 31.0798 19.52C30.9731 19.6267 30.8931 19.68 30.8398 19.68C30.8398 19.6267 30.8931 19.5467 30.9998 19.44C31.0531 19.3867 31.0531 19.36 30.9998 19.36C30.9998 19.36 30.8931 19.4667 30.6798 19.68C30.5198 19.84 30.4398 19.9467 30.4398 20C30.4398 20 30.4664 20 30.5198 20C30.4664 19.9467 30.4664 19.8933 30.5198 19.84C30.5731 19.7867 30.5998 19.8133 30.5998 19.92C30.5998 20.0267 30.5198 20.08 30.3598 20.08C30.3064 20.08 30.2798 20.16 30.2798 20.32C30.2798 20.4267 30.2531 20.48 30.1998 20.48C30.1464 20.4267 30.1198 20.4267 30.1198 20.48C30.1731 20.5333 30.1464 20.56 30.0398 20.56C29.9864 20.6133 29.9598 20.6133 29.9598 20.56C30.0131 20.5067 30.0131 20.48 29.9598 20.48C29.9598 20.5333 29.9331 20.6133 29.8798 20.72C29.8798 20.7733 29.8531 20.7733 29.7998 20.72C29.7464 20.7733 29.6931 20.8 29.6398 20.8C29.6398 20.8533 29.6131 20.9067 29.5598 20.96C29.5064 20.9067 29.4798 20.9067 29.4798 20.96C29.4798 20.96 29.5064 20.9867 29.5598 21.04C29.5598 21.0933 29.6131 21.0667 29.7198 20.96C29.7731 20.8533 29.8531 20.7467 29.9598 20.64C30.1198 20.5333 30.2264 20.48 30.2798 20.48L29.8798 20.88C29.6131 21.1467 29.4798 21.3067 29.4798 21.36C29.4798 21.4133 29.4798 21.3867 29.4798 21.28C29.4264 21.3867 29.2931 21.5467 29.0798 21.76C28.8664 21.9733 28.7331 22.08 28.6798 22.08C28.5731 22.08 28.4664 22.16 28.3598 22.32C28.2531 22.4267 28.2264 22.4267 28.2798 22.32C28.3864 22.1067 28.3331 22.1067 28.1198 22.32C28.0131 22.3733 27.9598 22.4 27.9598 22.4C27.9064 22.4 27.9331 22.3467 28.0398 22.24C28.1464 22.1333 28.2264 22.08 28.2798 22.08H28.3598C28.3598 22.0267 28.4131 21.9467 28.5198 21.84C28.6264 21.7333 28.7331 21.6267 28.8398 21.52C28.9464 21.4133 28.9998 21.3333 28.9998 21.28C29.0531 21.2267 29.0264 21.2533 28.9198 21.36C28.7598 21.4667 28.7598 21.44 28.9198 21.28C29.1331 21.0667 29.2131 20.9867 29.1598 21.04C29.1064 21.04 29.1064 21.0133 29.1598 20.96C29.2131 20.8533 29.2398 20.8267 29.2398 20.88C29.2931 20.9333 29.3198 20.9067 29.3198 20.8C29.3198 20.64 29.3464 20.5867 29.3998 20.64C29.4531 20.64 29.4798 20.64 29.4798 20.64C29.5331 20.5867 29.5331 20.56 29.4798 20.56C29.4264 20.5067 29.3198 20.6133 29.1598 20.88C29.1064 20.88 29.0798 20.9067 29.0798 20.96C29.0798 20.96 29.0531 20.96 28.9998 20.96C28.9464 20.96 28.8398 21.04 28.6798 21.2C28.5198 21.3067 28.4664 21.3867 28.5198 21.44H28.4398C28.5464 21.3333 28.4931 21.3867 28.2798 21.6C28.0664 21.76 27.9864 21.84 28.0398 21.84C28.0398 21.84 27.9864 21.8933 27.8798 22C27.8264 22.0533 27.7998 22.08 27.7998 22.08C27.7998 22.0267 27.7998 22 27.7998 22C27.8531 21.9467 27.8531 21.92 27.7998 21.92C27.7998 21.92 27.7464 21.9733 27.6398 22.08C27.4264 22.2933 27.3464 22.3467 27.3998 22.24C27.4531 22.1333 27.4264 22.1333 27.3198 22.24C27.2131 22.3467 27.1864 22.4 27.2398 22.4C27.2931 22.4 27.2131 22.5067 26.9998 22.72C26.7864 22.88 26.7064 22.96 26.7598 22.96C26.8131 22.96 26.7864 22.9867 26.6798 23.04C26.7331 22.9867 26.7331 22.9867 26.6798 23.04C26.6264 23.04 26.5464 23.0933 26.4398 23.2C26.3331 23.2533 26.2798 23.28 26.2798 23.28C26.2798 23.3333 26.2264 23.36 26.1198 23.36C26.0664 23.4133 26.0131 23.44 25.9598 23.44C25.9598 23.3867 25.9064 23.4133 25.7998 23.52C25.6931 23.6267 25.6664 23.6533 25.7198 23.6C25.7731 23.4933 25.8531 23.4667 25.9598 23.52C26.0131 23.52 26.0664 23.4933 26.1198 23.44C26.1731 23.3333 26.2264 23.3067 26.2798 23.36C26.2798 23.4667 26.2531 23.52 26.1998 23.52C26.1998 23.4667 26.1198 23.4933 25.9598 23.6L25.7998 23.76C25.7998 23.76 25.7731 23.76 25.7198 23.76C25.7198 23.8133 25.6931 23.8933 25.6398 24C25.5864 24.0533 25.5331 24.0533 25.4798 24C25.4264 23.9467 25.4264 23.9467 25.4798 24C25.5331 24 25.5598 23.9467 25.5598 23.84C25.5064 23.8933 25.4531 23.92 25.3998 23.92C25.3998 23.92 25.4264 23.8933 25.4798 23.84C25.5331 23.7333 25.4531 23.7867 25.2398 24C25.0798 24.16 25.0531 24.16 25.1598 24C25.2131 23.8933 25.1598 23.9467 24.9998 24.16C24.8398 24.3733 24.8131 24.48 24.9198 24.48C24.8664 24.48 24.9464 24.4267 25.1598 24.32C25.2664 24.2133 25.3198 24.1867 25.3198 24.24C25.3198 24.24 25.2664 24.2933 25.1598 24.4C24.9998 24.5067 24.9464 24.5867 24.9998 24.64C25.0531 24.64 25.0264 24.64 24.9198 24.64C24.8664 24.5867 24.8131 24.6133 24.7598 24.72C24.7598 24.7733 24.7864 24.7733 24.8398 24.72C24.9464 24.6667 24.9731 24.6933 24.9198 24.8C24.8664 24.9067 24.7864 24.9067 24.6798 24.8C24.6264 24.7467 24.6264 24.6933 24.6798 24.64C24.7331 24.5867 24.8131 24.56 24.9198 24.56C24.9731 24.5067 24.9464 24.48 24.8398 24.48C24.7864 24.4267 24.7064 24.4533 24.5998 24.56C24.5464 24.6667 24.4664 24.72 24.3598 24.72C24.4131 24.7733 24.3864 24.8267 24.2798 24.88C24.2264 24.9333 24.2264 24.9067 24.2798 24.8C24.3331 24.7467 24.2798 24.8 24.1198 24.96C23.9598 25.12 23.8798 25.2267 23.8798 25.28C23.8798 25.3333 23.8264 25.36 23.7198 25.36C23.6664 25.36 23.6398 25.3867 23.6398 25.44C23.6931 25.4933 23.6664 25.5733 23.5598 25.68C23.5064 25.68 23.4798 25.68 23.4798 25.68C23.4798 25.6267 23.5064 25.5733 23.5598 25.52C23.5064 25.52 23.3998 25.6 23.2398 25.76L22.6798 26.32C22.6264 26.32 22.4664 26.48 22.1998 26.8C21.9864 27.0667 21.9064 27.1733 21.9598 27.12C22.1198 26.96 22.1998 26.9067 22.1998 26.96C22.1998 26.9067 22.2798 26.8 22.4398 26.64C22.5998 26.48 22.7064 26.4267 22.7598 26.48C22.8664 26.2133 22.9464 26.08 22.9998 26.08C23.1064 26.0267 23.2664 25.92 23.4798 25.76C23.6931 25.6 23.7998 25.5467 23.7998 25.6C23.7998 25.4933 23.8531 25.3867 23.9598 25.28C24.1198 25.1733 24.2264 25.0933 24.2798 25.04L24.4398 25.2H24.3598C24.2531 25.2533 24.2264 25.28 24.2798 25.28C24.3331 25.2267 24.3331 25.1733 24.2798 25.12C24.2798 25.12 24.1998 25.2 24.0398 25.36C23.8798 25.52 23.8798 25.5467 24.0398 25.44C24.1998 25.3333 24.2798 25.3067 24.2798 25.36C24.3331 25.4133 24.3064 25.44 24.1998 25.44C23.9864 25.44 23.8798 25.52 23.8798 25.68C23.7731 25.6267 23.7198 25.6267 23.7198 25.68C23.7731 25.68 23.7731 25.7333 23.7198 25.84C23.6664 25.8933 23.6131 25.8933 23.5598 25.84L23.4798 25.92C23.4264 25.92 23.3731 25.9467 23.3198 26C23.2131 26.1067 23.1331 26.1867 23.0798 26.24V26.32H23.1598C23.2664 26.32 23.2664 26.3733 23.1598 26.48C23.1064 26.5867 23.0264 26.6667 22.9198 26.72C23.0264 26.56 23.0531 26.48 22.9998 26.48C22.9464 26.48 22.9464 26.4533 22.9998 26.4C23.0531 26.3467 22.9198 26.4533 22.5998 26.72C22.4398 26.8267 22.3598 26.9067 22.3598 26.96C22.4131 26.96 22.4931 26.9067 22.5998 26.8C22.7064 26.6933 22.6531 26.7467 22.4398 26.96C22.2798 27.1733 22.2264 27.28 22.2798 27.28L22.1998 27.36C22.1998 27.4133 22.1464 27.4933 22.0398 27.6C21.8264 27.8133 21.7731 27.92 21.8798 27.92C21.9331 27.92 22.0398 27.84 22.1998 27.68C22.3064 27.5733 22.3598 27.52 22.3598 27.52C22.4131 27.52 22.4398 27.4933 22.4398 27.44C22.3864 27.44 22.4131 27.4133 22.5198 27.36C22.6264 27.2533 22.6264 27.2533 22.5198 27.36C22.4664 27.4133 22.4664 27.44 22.5198 27.44C22.6264 27.44 22.4931 27.6 22.1198 27.92C21.7998 28.1867 21.6398 28.48 21.6398 28.8C21.6398 29.1733 21.6931 29.2533 21.7998 29.04C21.7998 28.9333 21.7998 29.04 21.7998 29.36C21.8531 29.68 21.9064 30.0533 21.9598 30.48C22.0131 30.9067 22.0398 31.28 22.0398 31.6C22.0931 31.92 22.1464 32.0533 22.1998 32C22.2531 31.9467 22.2798 31.9733 22.2798 32.08C22.2798 32.1867 22.2264 32.24 22.1198 32.24C22.0664 32.1867 22.0398 32.2133 22.0398 32.32C22.0931 32.5867 22.1464 32.6933 22.1998 32.64C22.3064 32.5333 22.3064 32.48 22.1998 32.48C22.0931 32.48 22.0664 32.4533 22.1198 32.4C22.2264 32.2933 22.2531 32.4 22.1998 32.72C22.1998 33.04 22.2531 33.3867 22.3598 33.76C22.3598 33.8667 22.3331 33.92 22.2798 33.92C22.3331 34.0267 22.3864 34.2133 22.4398 34.48C22.5464 34.7467 22.5998 34.9333 22.5998 35.04C22.6531 35.3067 22.6264 35.4133 22.5198 35.36C22.4131 35.3067 22.3598 35.3067 22.3598 35.36C22.3598 35.4133 22.4131 35.44 22.5198 35.44C22.6264 35.4933 22.6531 35.6 22.5998 35.76C22.5998 35.8667 22.6264 35.92 22.6798 35.92C22.6264 35.92 22.5998 35.9733 22.5998 36.08C22.5464 36.1867 22.5198 36.1067 22.5198 35.84C22.5198 35.5733 22.4664 35.52 22.3598 35.68H22.4398C22.4931 35.6267 22.4931 35.8133 22.4398 36.24C22.4398 36.6133 22.4664 36.7733 22.5198 36.72C22.5731 36.72 22.5731 36.6933 22.5198 36.64C22.5198 36.5867 22.5464 36.56 22.5998 36.56C22.6531 36.5067 22.6531 36.6133 22.5998 36.88C22.5998 37.0933 22.5998 37.2267 22.5998 37.28C22.5998 37.3333 22.5998 37.36 22.5998 37.36C22.6531 37.36 22.6798 37.4133 22.6798 37.52C22.6798 37.5733 22.6531 37.5467 22.5998 37.44C22.5464 37.3867 22.4931 37.3867 22.4398 37.44C22.4398 37.44 22.4931 37.4933 22.5998 37.6C22.7064 37.7067 22.7064 37.8133 22.5998 37.92C22.5464 37.9733 22.5731 38.0533 22.6798 38.16C22.7864 38.2133 22.8131 38.24 22.7598 38.24C22.7598 38.1867 22.7331 38.16 22.6798 38.16L22.7598 38.24V38.16C22.8664 38.32 22.8664 38.4533 22.7598 38.56C22.7064 38.6667 22.7064 38.6933 22.7598 38.64C22.8131 38.6933 22.8398 38.72 22.8398 38.72C22.8931 38.7733 22.9198 38.8267 22.9198 38.88C22.8664 38.88 22.8398 38.88 22.8398 38.88C22.8398 38.8267 22.8131 38.8 22.7598 38.8C22.7598 38.7467 22.7598 38.7733 22.7598 38.88C22.7598 38.9867 22.7598 39.0667 22.7598 39.12C22.8131 39.12 22.8664 39.1733 22.9198 39.28C22.9198 39.2267 22.9464 39.2533 22.9998 39.36C22.9998 39.7333 23.0264 39.9733 23.0798 40.08C23.1864 40.1867 23.1864 40.2667 23.0798 40.32C23.0264 40.3733 23.0264 40.4267 23.0798 40.48C23.1864 40.5333 23.2398 40.5867 23.2398 40.64C23.2931 41.0667 23.3464 41.3067 23.3998 41.36C23.4531 41.4133 23.4531 41.44 23.3998 41.44C23.3464 41.44 23.3464 41.52 23.3998 41.68C23.4531 41.7867 23.4531 41.84 23.3998 41.84C23.2931 41.84 23.2398 41.8933 23.2398 42C23.2931 42.0533 23.3198 42.0533 23.3198 42C23.3198 41.8933 23.3464 41.84 23.3998 41.84C23.4531 41.84 23.4531 41.8667 23.3998 41.92V42C23.4531 42 23.4798 42.0533 23.4798 42.16C23.4798 42.2133 23.4531 42.2667 23.3998 42.32C23.3464 42.32 23.3464 42.3467 23.3998 42.4C23.5064 42.5067 23.5331 42.56 23.4798 42.56C23.4264 42.5067 23.3998 42.56 23.3998 42.72C23.4531 42.7733 23.4798 42.8 23.4798 42.8C23.4798 42.7467 23.4798 42.72 23.4798 42.72C23.5331 42.72 23.5331 42.8 23.4798 42.96C23.4798 43.12 23.5064 43.2267 23.5598 43.28C23.4531 43.28 23.4264 43.3067 23.4798 43.36C23.5331 43.4133 23.5598 43.6 23.5598 43.92C23.5598 44.1333 23.5598 44.2667 23.5598 44.32C23.6131 44.32 23.6398 44.32 23.6398 44.32C23.6931 44.2667 23.7198 44.24 23.7198 44.24C23.7731 44.1867 23.7998 44.2133 23.7998 44.32C23.7998 44.48 23.7998 44.56 23.7998 44.56C23.7998 44.5067 23.8264 44.5867 23.8798 44.8C23.9864 45.2267 24.0664 45.6267 24.1198 46C24.2264 46.32 24.3064 46.64 24.3598 46.96C24.4131 47.28 24.4398 47.4933 24.4398 47.6C24.4931 47.8667 24.5198 48.08 24.5198 48.24C24.5731 48.3467 24.5464 48.4 24.4398 48.4C24.3331 48.3467 24.2798 48.3467 24.2798 48.4C24.2798 48.4 24.3331 48.4 24.4398 48.4C24.7064 48.4 24.7331 48.5067 24.5198 48.72H24.5998C24.8131 48.72 24.8398 48.8 24.6798 48.96C24.6798 49.0133 24.6798 49.0133 24.6798 48.96C24.7331 48.8533 24.7064 48.8 24.5998 48.8C24.3864 48.6933 24.3064 48.6667 24.3598 48.72C24.4131 48.9867 24.4664 49.2267 24.5198 49.44C24.6264 49.6533 24.6798 49.84 24.6798 50C24.7331 50.2133 24.7864 50.3733 24.8398 50.48C24.9464 50.6933 24.9198 50.7467 24.7598 50.64C24.6531 50.5867 24.6531 50.6133 24.7598 50.72C24.8131 50.7733 24.8398 50.8533 24.8398 50.96C24.8931 51.0667 24.8664 51.0667 24.7598 50.96C24.7598 50.9067 24.7331 50.88 24.6798 50.88C24.6798 50.88 24.6798 50.8533 24.6798 50.8C24.6264 50.8 24.5998 50.8 24.5998 50.8C24.5464 50.8 24.5731 50.88 24.6798 51.04C24.7864 51.2533 24.7864 51.3067 24.6798 51.2C24.5731 51.2 24.5731 51.2267 24.6798 51.28C24.7864 51.3867 24.8131 51.44 24.7598 51.44C24.7064 51.44 24.7064 51.4667 24.7598 51.52V51.6C24.7064 51.6 24.6531 51.5467 24.5998 51.44C24.5464 51.3333 24.5198 51.3067 24.5198 51.36C24.5198 51.4133 24.4931 51.4133 24.4398 51.36C24.4398 51.3067 24.4398 51.2533 24.4398 51.2C24.3864 51.1467 24.3331 51.0667 24.2798 50.96C24.2798 50.6933 24.2531 50.5867 24.1998 50.64C24.1464 50.64 24.1731 50.8 24.2798 51.12C24.3864 51.44 24.3864 51.5467 24.2798 51.44C24.1731 51.28 24.0931 50.9867 24.0398 50.56C23.9864 50.1867 23.9064 50.0267 23.7998 50.08C23.7464 50.1867 23.7731 50.4 23.8798 50.72C24.0398 51.04 24.0664 51.12 23.9598 50.96C23.9064 50.8533 23.8798 50.8 23.8798 50.8C23.8798 50.6933 23.8531 50.5333 23.7998 50.32C23.7464 50.16 23.6931 50.1067 23.6398 50.16C23.6398 50.0533 23.5864 50 23.4798 50C23.3731 50 23.3198 50 23.3198 50C23.3731 50.0533 23.4264 50.08 23.4798 50.08C23.5331 50.0267 23.5331 50.0267 23.4798 50.08C23.4264 50.1867 23.4531 50.2667 23.5598 50.32C23.6131 50.4267 23.5864 50.48 23.4798 50.48C23.4264 50.48 23.4264 50.5333 23.4798 50.64C23.4798 50.7467 23.4531 50.8533 23.3998 50.96C23.3998 51.0667 23.3998 51.0667 23.3998 50.96C23.3998 50.8533 23.3731 50.8 23.3198 50.8C23.3198 50.8 23.3464 50.7467 23.3998 50.64C23.3998 50.5333 23.3464 50.4533 23.2398 50.4C23.1864 50.3467 23.1864 50.32 23.2398 50.32C23.2931 50.3733 23.3464 50.3733 23.3998 50.32C23.4531 50.2667 23.4531 50.24 23.3998 50.24C23.2931 50.24 23.2664 50.2133 23.3198 50.16C23.3731 50.1067 23.3731 50.08 23.3198 50.08C23.2664 50.08 23.2131 50.0267 23.1598 49.92C23.1598 49.8133 23.1331 49.8133 23.0798 49.92C23.0798 49.9733 23.1064 50 23.1598 50C23.2131 49.9467 23.2398 49.9467 23.2398 50C23.2398 50.1067 23.1864 50.1867 23.0798 50.24C23.0264 50.2933 22.9998 50.32 22.9998 50.32C22.9464 50.4267 22.9198 50.48 22.9198 50.48C22.9731 50.48 22.9998 50.4533 22.9998 50.4C22.9998 50.24 23.0531 50.2667 23.1598 50.48C23.2664 50.6933 23.2664 50.72 23.1598 50.56C23.0531 50.4533 23.0798 50.64 23.2398 51.12C23.2398 51.28 23.2664 51.36 23.3198 51.36C23.3198 51.2533 23.3464 51.2533 23.3998 51.36C23.4531 51.52 23.4264 51.6267 23.3198 51.68C23.4264 51.7333 23.4798 51.8133 23.4798 51.92C23.4798 52.08 23.5064 52.2133 23.5598 52.32C23.4531 52.32 23.3731 52.3467 23.3198 52.4C23.2664 52.5067 23.2664 52.5867 23.3198 52.64V52.56C23.3198 52.4 23.3731 52.4267 23.4798 52.64C23.5331 52.8 23.5598 52.88 23.5598 52.88C23.5598 52.88 23.4798 52.8 23.3198 52.64C23.3731 52.7467 23.3998 52.8 23.3998 52.8L23.4798 52.88C23.4798 52.9333 23.4798 52.96 23.4798 52.96L23.3998 52.88V52.8C23.2931 52.6933 23.2131 52.6667 23.1598 52.72C23.0531 52.72 23.0798 52.64 23.2398 52.48C23.2931 52.4267 23.2931 52.4 23.2398 52.4C23.1331 52.4533 23.0531 52.4267 22.9998 52.32C22.9464 52.2133 22.9731 52.2133 23.0798 52.32C23.1331 52.3733 23.1331 52.2933 23.0798 52.08C23.0264 51.92 22.9731 51.84 22.9198 51.84C22.8664 51.7867 22.8664 51.7867 22.9198 51.84C22.9731 51.9467 22.9731 52 22.9198 52C22.8131 52 22.7864 51.9467 22.8398 51.84C22.8931 51.7333 22.8931 51.68 22.8398 51.68C22.7864 51.7333 22.7331 51.68 22.6798 51.52C22.6798 51.36 22.6798 51.2533 22.6798 51.2C22.6264 51.1467 22.5998 51.0133 22.5998 50.8C22.5998 50.64 22.5464 50.5333 22.4398 50.48C22.4398 50.2667 22.4931 50.16 22.5998 50.16C22.5464 50.16 22.5464 50.1333 22.5998 50.08C22.6531 50.0267 22.6531 49.9733 22.5998 49.92C22.5998 49.92 22.5464 49.9733 22.4398 50.08C22.3864 50.1333 22.3598 50.1333 22.3598 50.08V50C22.4131 50.0533 22.4398 50 22.4398 49.84C22.4931 49.7333 22.4664 49.7333 22.3598 49.84C22.3064 49.7333 22.2531 49.68 22.1998 49.68C22.1464 49.7333 22.1198 49.7333 22.1198 49.68C22.1198 49.5733 22.0931 49.4933 22.0398 49.44C22.0398 49.3867 22.0131 49.3333 21.9598 49.28C21.8531 49.28 21.8264 49.36 21.8798 49.52C21.9864 49.68 22.0664 49.92 22.1198 50.24C22.1198 50.3467 22.1464 50.4 22.1998 50.4C22.3064 50.4533 22.3064 50.5067 22.1998 50.56V50.72C22.1464 50.6667 22.0931 50.6667 22.0398 50.72C22.0398 50.7733 22.0398 50.7467 22.0398 50.64C22.0931 50.5333 22.0398 50.24 21.8798 49.76C21.7198 49.28 21.6664 49.0133 21.7198 48.96C21.7731 48.9067 21.7731 48.88 21.7198 48.88C21.7198 48.88 21.6931 48.88 21.6398 48.88C21.6398 48.7733 21.6131 48.7467 21.5598 48.8C21.5064 48.8 21.4798 48.72 21.4798 48.56C21.4264 48.5067 21.3731 48.4533 21.3198 48.4C21.2664 48.2933 21.2664 48.24 21.3198 48.24L21.1598 48C21.1598 48 21.1064 47.8133 20.9998 47.44C20.9464 47.0667 20.8931 46.88 20.8398 46.88C20.7864 46.88 20.7864 46.9067 20.8398 46.96C20.8398 47.0133 20.8131 47.0133 20.7598 46.96C20.6531 46.9067 20.6264 46.9333 20.6798 47.04C20.7331 47.0933 20.7331 47.1467 20.6798 47.2C20.6264 47.2 20.5998 47.1733 20.5998 47.12C20.5464 47.1733 20.4664 47.1467 20.3598 47.04C20.2531 46.9333 20.1731 46.88 20.1198 46.88V46.72C20.1198 46.6667 20.0931 46.6933 20.0398 46.8C19.9331 46.9067 19.9064 46.9067 19.9598 46.8C20.0131 46.64 19.9864 46.56 19.8798 46.56C19.8264 46.56 19.7998 46.6133 19.7998 46.72C19.8531 46.8267 19.9064 46.9333 19.9598 47.04C20.0131 47.1467 20.0131 47.2 19.9598 47.2C19.9064 47.2 19.8264 46.9867 19.7198 46.56C19.6131 46.08 19.4798 45.52 19.3198 44.88C19.1598 44.1867 18.9998 43.44 18.8398 42.64C18.7331 41.7867 18.6264 40.9867 18.5198 40.24C18.5198 40.08 18.5464 40 18.5998 40C18.6531 40 18.6264 39.9733 18.5198 39.92C18.4131 39.8133 18.3864 39.7067 18.4398 39.6C18.5464 39.44 18.5464 39.36 18.4398 39.36V39.28C18.3864 39.28 18.3864 39.2 18.4398 39.04C18.4931 38.88 18.4664 38.8 18.3598 38.8C18.3064 38.8 18.3064 38.8 18.3598 38.8C18.4664 38.7467 18.4664 38.64 18.3598 38.48C18.2531 38.32 18.1998 38.0533 18.1998 37.68C18.1998 37.3067 18.1198 36.8267 17.9598 36.24C17.8531 35.76 17.7464 35.1467 17.6398 34.4C17.5864 33.6 17.5331 33.2 17.4798 33.2V32.48C17.2131 32.7467 16.9198 32.9867 16.5998 33.2C16.4398 33.36 16.3864 33.4133 16.4398 33.36C16.4931 33.2533 16.4664 33.2533 16.3598 33.36C16.3064 33.4667 16.2531 33.4933 16.1998 33.44C16.1998 33.3867 16.1998 33.3867 16.1998 33.44C16.1998 33.4933 16.1731 33.52 16.1198 33.52C16.1198 33.52 16.1198 33.5467 16.1198 33.6H16.1998C16.1464 33.7067 16.0664 33.7333 15.9598 33.68C15.9064 33.6267 15.8798 33.6267 15.8798 33.68C15.8264 33.84 15.7731 33.92 15.7198 33.92C15.7198 33.92 15.6664 33.9733 15.5598 34.08C15.6664 34.0267 15.6131 34.08 15.3998 34.24C15.1331 34.4533 14.9998 34.56 14.9998 34.56C15.0531 34.56 14.9998 34.6667 14.8398 34.88C14.6798 35.04 14.5731 35.12 14.5198 35.12C14.5198 35.12 14.4931 35.1733 14.4398 35.28C14.3864 35.3867 14.3331 35.4133 14.2798 35.36C14.2798 35.3067 14.1998 35.3867 14.0398 35.6C13.9864 35.7067 13.9331 35.76 13.8798 35.76C13.8264 35.7067 13.7998 35.7067 13.7998 35.76C13.7464 35.8667 13.6931 35.8933 13.6398 35.84C13.6398 35.7867 13.6398 35.8133 13.6398 35.92C13.5864 35.8667 13.5598 35.8667 13.5598 35.92C13.5064 36.0267 13.4798 36.0533 13.4798 36C13.4798 35.9467 13.4264 35.9733 13.3198 36.08C13.3198 36.1867 13.2931 36.24 13.2398 36.24C13.1864 36.24 13.1864 36.2133 13.2398 36.16L13.1598 36.24C13.1064 36.2933 13.1064 36.32 13.1598 36.32C13.2664 36.2133 13.2664 36.2133 13.1598 36.32C13.1064 36.3733 13.0531 36.4 12.9998 36.4C12.9464 36.4 12.8931 36.4533 12.8398 36.56C12.7864 36.6133 12.7331 36.64 12.6798 36.64C12.6798 36.6933 12.6531 36.72 12.5998 36.72C12.5998 36.72 12.5998 36.6933 12.5998 36.64C12.5998 36.5867 12.6264 36.5333 12.6798 36.48C12.7331 36.3733 12.7864 36.2667 12.8398 36.16C12.5731 36.48 12.4664 36.56 12.5198 36.4L12.3598 36.56C12.3598 36.5067 12.3064 36.5333 12.1998 36.64C12.1464 36.64 12.0931 36.6667 12.0398 36.72C11.9864 36.6667 11.9331 36.6933 11.8798 36.8C11.8798 36.9067 11.9864 36.88 12.1998 36.72C12.3064 36.5067 12.3598 36.48 12.3598 36.64C12.3598 36.7467 12.4131 36.7467 12.5198 36.64C12.5731 36.5867 12.5998 36.6133 12.5998 36.72C12.5998 36.7733 12.5731 36.7733 12.5198 36.72C12.4664 36.6667 12.3598 36.7467 12.1998 36.96C12.0931 37.1733 12.0664 37.2267 12.1198 37.12C12.1731 37.0667 12.1731 37.04 12.1198 37.04C12.0664 36.9867 12.0398 37.0133 12.0398 37.12C11.9864 37.2267 11.9331 37.3067 11.8798 37.36C11.8264 37.4133 11.7998 37.4133 11.7998 37.36C11.7998 37.3067 11.7731 37.28 11.7198 37.28C11.6664 37.3333 11.6664 37.3867 11.7198 37.44C11.7731 37.4933 11.7464 37.52 11.6398 37.52H11.5598C11.5598 37.4667 11.5331 37.44 11.4798 37.44C11.4798 37.44 11.4798 37.4667 11.4798 37.52C11.3731 37.6267 11.3198 37.68 11.3198 37.68C11.3198 37.6267 11.2664 37.6533 11.1598 37.76C11.1064 37.8133 11.0798 37.84 11.0798 37.84C11.0798 37.7867 11.1064 37.7333 11.1598 37.68C11.2664 37.5733 11.2931 37.52 11.2398 37.52C11.2398 37.52 11.1864 37.5733 11.0798 37.68C10.9731 37.7867 10.9198 37.8133 10.9198 37.76C10.9198 37.7067 10.9198 37.7333 10.9198 37.84C10.9198 37.8933 10.8931 37.9467 10.8398 38C10.7864 38.0533 10.7864 38.0267 10.8398 37.92C10.8931 37.8133 10.8664 37.8133 10.7598 37.92C10.6531 38.0267 10.5998 38.0533 10.5998 38L10.5198 38.08C10.4131 38.1333 10.3864 38.1067 10.4398 38C10.4931 37.8933 10.5731 37.84 10.6798 37.84V37.76C10.6264 37.7067 10.6264 37.6533 10.6798 37.6C10.7331 37.4933 10.7864 37.4667 10.8398 37.52C10.7864 37.52 10.8664 37.44 11.0798 37.28C11.1864 37.1733 11.1598 37.1733 10.9998 37.28C10.8398 37.3867 10.6531 37.52 10.4398 37.68C10.2798 37.84 10.1198 37.9733 9.95976 38.08C9.85309 38.1867 9.87976 38.1867 10.0398 38.08C10.0931 38.08 10.1464 38.1067 10.1998 38.16C10.3064 38.16 10.3331 38.16 10.2798 38.16H10.1998C10.1998 38.1067 10.1464 38.16 10.0398 38.32C9.98642 38.4267 9.90642 38.4267 9.79976 38.32C9.79976 38.2667 9.77309 38.24 9.71976 38.24C9.71976 38.24 9.71976 38.2667 9.71976 38.32V38.4C9.82642 38.4 9.82642 38.48 9.71976 38.64C9.61309 38.8 9.55976 38.8533 9.55976 38.8C9.50642 38.7467 9.47976 38.7733 9.47976 38.88C9.53309 38.9333 9.58642 38.9333 9.63976 38.88C9.74642 38.8267 9.77309 38.88 9.71976 39.04C9.66642 39.1467 9.61309 39.1467 9.55976 39.04C9.55976 38.88 9.47976 38.88 9.31976 39.04C9.26642 39.0933 9.23976 39.12 9.23976 39.12C9.13309 39.12 9.07976 39.0933 9.07976 39.04C9.13309 38.9867 9.18642 38.9867 9.23976 39.04C9.23976 39.0933 9.23976 39.12 9.23976 39.12C9.29309 39.12 9.31976 39.0933 9.31976 39.04C9.31976 38.8267 9.18642 38.9067 8.91976 39.28C8.75976 39.44 8.62642 39.5733 8.51976 39.68C8.30642 39.8933 8.27976 39.9467 8.43976 39.84C8.54642 39.7867 8.57309 39.7867 8.51976 39.84C8.51976 39.84 8.46642 39.8933 8.35976 40C8.25309 40.0533 8.19976 40.08 8.19976 40.08C8.09309 40.08 8.09309 40.0267 8.19976 39.92C8.30642 39.8133 8.30642 39.8133 8.19976 39.92C8.09309 40.0267 8.03976 40.0533 8.03976 40C8.09309 39.9467 8.06642 39.9733 7.95976 40.08C7.85309 40.1867 7.82642 40.24 7.87976 40.24C7.93309 40.24 7.95976 40.2133 7.95976 40.16C8.06642 40.0533 8.11976 40.16 8.11976 40.48C8.11976 40.5867 8.01309 40.64 7.79976 40.64C7.85309 40.6933 7.79976 40.7733 7.63976 40.88C7.47976 40.9333 7.34642 41.0133 7.23976 41.12C7.07976 41.28 6.99976 41.3333 6.99976 41.28C7.05309 41.2267 7.02642 41.2 6.91976 41.2C6.86642 41.2 6.86642 41.1733 6.91976 41.12C6.97309 41.0667 6.97309 41.0133 6.91976 40.96C6.86642 40.96 6.83976 41.0133 6.83976 41.12C6.73309 41.0667 6.73309 41.12 6.83976 41.28C6.89309 41.44 6.89309 41.4933 6.83976 41.44C6.78642 41.44 6.78642 41.4667 6.83976 41.52C6.83976 41.52 6.78642 41.5467 6.67976 41.6C6.57309 41.6 6.51976 41.6533 6.51976 41.76C6.46642 41.7067 6.41309 41.7067 6.35976 41.76L6.27976 41.84C6.33309 41.84 6.33309 41.8667 6.27976 41.92C6.17309 41.9733 6.14642 42 6.19976 42C6.25309 42 6.27976 42.0267 6.27976 42.08C6.22642 42.1333 6.17309 42.1333 6.11976 42.08C6.01309 41.9733 5.98642 41.9467 6.03976 42C6.09309 42.0533 6.09309 42.1333 6.03976 42.24C5.93309 42.3467 5.90642 42.3733 5.95976 42.32C5.95976 42.2133 5.90642 42.16 5.79976 42.16C5.85309 42.16 5.87976 42.2133 5.87976 42.32C5.87976 42.4267 5.87976 42.4533 5.87976 42.4C5.87976 42.3467 5.82642 42.3467 5.71976 42.4C5.66642 42.4533 5.63976 42.4533 5.63976 42.4C5.58642 42.2933 5.55976 42.2667 5.55976 42.32L5.63976 42.24C5.69309 42.24 5.71976 42.2133 5.71976 42.16C5.66642 42.1067 5.61309 42.1067 5.55976 42.16C5.45309 42.2133 5.39976 42.2667 5.39976 42.32C5.45309 42.32 5.45309 42.32 5.39976 42.32C5.34642 42.32 5.23976 42.3733 5.07976 42.48C4.91976 42.64 4.83976 42.6933 4.83976 42.64C4.78642 42.5867 4.75976 42.6133 4.75976 42.72C4.75976 42.7733 4.75976 42.8 4.75976 42.8C4.70642 42.7467 4.65309 42.7733 4.59976 42.88C4.54642 42.9867 4.54642 43.0133 4.59976 42.96C4.59976 42.9067 4.65309 42.88 4.75976 42.88C4.86642 42.8267 4.91976 42.7733 4.91976 42.72C4.91976 42.6667 4.97309 42.64 5.07976 42.64V42.8C5.13309 42.7467 5.15976 42.7467 5.15976 42.8C5.15976 42.8533 5.13309 42.88 5.07976 42.88C5.02642 42.88 4.97309 42.9067 4.91976 42.96C4.86642 43.0133 4.78642 43.0667 4.67976 43.12C4.62642 43.1733 4.62642 43.2267 4.67976 43.28C4.67976 43.28 4.62642 43.28 4.51976 43.28C4.46642 43.28 4.38642 43.3333 4.27976 43.44C4.22642 43.4933 4.17309 43.5467 4.11976 43.6C4.06642 43.6533 3.98642 43.7333 3.87976 43.84C3.71976 43.8933 3.61309 43.8933 3.55976 43.84C3.55976 43.7867 3.58642 43.76 3.63976 43.76C3.63976 43.76 3.77309 43.6267 4.03976 43.36C4.19976 43.3067 4.27976 43.28 4.27976 43.28C4.33309 43.28 4.38642 43.2533 4.43976 43.2C4.43976 43.0933 4.41309 43.0133 4.35976 42.96C4.30642 42.96 4.27976 42.96 4.27976 42.96V43.04C4.17309 43.04 4.14642 43.0667 4.19976 43.12C4.25309 43.12 4.22642 43.1467 4.11976 43.2C4.01309 43.2533 3.98642 43.3067 4.03976 43.36C4.09309 43.36 4.09309 43.36 4.03976 43.36C3.98642 43.3067 3.95976 43.3333 3.95976 43.44C3.95976 43.4933 3.90642 43.4667 3.79976 43.36C3.74642 43.3067 3.69309 43.3067 3.63976 43.36C3.58642 43.4133 3.55976 43.44 3.55976 43.44C3.55976 43.3867 3.53309 43.4133 3.47976 43.52C3.37309 43.5733 3.34642 43.6 3.39976 43.6C3.39976 43.6533 3.37309 43.7067 3.31976 43.76C3.26642 43.76 3.26642 43.7333 3.31976 43.68C3.31976 43.6267 3.26642 43.6267 3.15976 43.68C3.05309 43.7333 3.05309 43.7333 3.15976 43.68C3.21309 43.5733 3.10642 43.5467 2.83976 43.6L2.99976 43.44C3.05309 43.44 3.07976 43.44 3.07976 43.44C3.02642 43.4933 2.97309 43.52 2.91976 43.52H2.75976V43.44C2.65309 43.4933 2.62642 43.5467 2.67976 43.6C2.73309 43.6 2.67976 43.5733 2.51976 43.52L2.59976 43.44C2.65309 43.3867 2.62642 43.3867 2.51976 43.44C2.41309 43.76 2.14642 43.92 1.71976 43.92C1.66642 43.92 1.77309 43.84 2.03976 43.68C2.25309 43.52 2.49309 43.3333 2.75976 43.12C3.02642 42.9067 3.29309 42.72 3.55976 42.56C3.77309 42.4 3.85309 42.2933 3.79976 42.24C3.69309 42.1867 3.69309 42.1333 3.79976 42.08C3.90642 42.0267 3.95976 41.9733 3.95976 41.92C4.01309 41.92 4.03976 41.8933 4.03976 41.84C4.03976 41.7333 4.01309 41.7067 3.95976 41.76C3.85309 41.8667 3.79976 41.8667 3.79976 41.76C3.79976 41.6533 3.85309 41.6 3.95976 41.6C4.06642 41.5467 4.11976 41.4933 4.11976 41.44C4.11976 41.3333 4.14642 41.3067 4.19976 41.36C4.19976 41.4133 4.22642 41.3867 4.27976 41.28C4.27976 41.2267 4.22642 41.1733 4.11976 41.12C4.11976 41.1733 4.19976 41.12 4.35976 40.96C4.35976 41.0133 4.41309 40.9867 4.51976 40.88C4.57309 40.7733 4.59976 40.7467 4.59976 40.8V40.72C4.65309 40.6667 4.73309 40.64 4.83976 40.64C4.89309 40.5867 4.86642 40.6133 4.75976 40.72C4.70642 40.8267 4.75976 40.8 4.91976 40.64C5.07976 40.48 5.07976 40.4533 4.91976 40.56C4.81309 40.6667 4.78642 40.6933 4.83976 40.64C4.89309 40.5333 4.97309 40.48 5.07976 40.48C5.13309 40.5333 5.18642 40.5333 5.23976 40.48C5.29309 40.4267 5.29309 40.4 5.23976 40.4C5.23976 40.3467 5.21309 40.3467 5.15976 40.4C5.15976 40.4533 5.13309 40.4533 5.07976 40.4C5.07976 40.3467 5.15976 40.32 5.31976 40.32C5.42642 40.32 5.50642 40.2933 5.55976 40.24C5.55976 40.1867 5.50642 40.1867 5.39976 40.24C5.34642 40.24 5.34642 40.2133 5.39976 40.16C5.45309 40.1067 5.50642 40.0533 5.55976 40C5.50642 40 5.34642 40.1067 5.07976 40.32C4.81309 40.5333 4.65309 40.64 4.59976 40.64C4.65309 40.6933 4.62642 40.72 4.51976 40.72C4.41309 40.6667 4.33309 40.6933 4.27976 40.8C4.22642 40.8533 4.17309 40.8533 4.11976 40.8C4.06642 40.8 4.06642 40.8267 4.11976 40.88C4.17309 40.88 4.14642 40.9333 4.03976 41.04C3.93309 41.1467 3.87976 41.1467 3.87976 41.04C3.77309 41.1467 3.71976 41.2 3.71976 41.2C3.61309 41.2 3.58642 41.2 3.63976 41.2C3.63976 41.1467 3.61309 41.12 3.55976 41.12C3.50642 41.1733 3.50642 41.1733 3.55976 41.12C3.61309 41.0133 3.50642 41.0667 3.23976 41.28C3.13309 41.3867 3.07976 41.4667 3.07976 41.52C3.02642 41.5733 3.05309 41.5467 3.15976 41.44C3.21309 41.44 3.26642 41.4667 3.31976 41.52C3.31976 41.5733 3.29309 41.5733 3.23976 41.52C3.18642 41.4667 3.15976 41.4667 3.15976 41.52C3.21309 41.6267 3.21309 41.7067 3.15976 41.76C3.10642 41.76 3.10642 41.7067 3.15976 41.6C2.73309 41.4933 2.59976 41.52 2.75976 41.68C2.86642 41.7333 2.86642 41.7333 2.75976 41.68C2.65309 41.6267 2.59976 41.6533 2.59976 41.76C2.59976 41.8133 2.59976 41.8667 2.59976 41.92C2.54642 41.92 2.51976 41.8933 2.51976 41.84C2.57309 41.7867 2.57309 41.76 2.51976 41.76C2.46642 41.76 2.43976 41.7867 2.43976 41.84C2.38642 41.9467 2.35976 41.9733 2.35976 41.92C2.30642 41.8667 2.27976 41.8667 2.27976 41.92C2.27976 41.9733 2.25309 42 2.19976 42C2.14642 42 2.11976 42.0267 2.11976 42.08C1.95976 42.24 1.77309 42.32 1.55976 42.32C1.55976 42.32 1.61309 42.2667 1.71976 42.16C1.93309 42.0533 2.01309 42 1.95976 42C2.01309 42.0533 2.11976 42 2.27976 41.84C2.43976 41.68 2.57309 41.5733 2.67976 41.52C2.78642 41.52 2.83976 41.4933 2.83976 41.44C2.78642 41.3867 2.78642 41.4133 2.83976 41.52C2.89309 41.4667 2.91976 41.44 2.91976 41.44C2.91976 41.3867 2.97309 41.3067 3.07976 41.2C3.29309 41.0933 3.37309 41.04 3.31976 41.04C3.21309 40.9867 3.15976 40.9867 3.15976 41.04C3.15976 41.04 3.05309 41.0667 2.83976 41.12C2.78642 41.12 2.75976 41.0933 2.75976 41.04C2.75976 41.04 2.73309 41.0667 2.67976 41.12C2.57309 41.28 2.51976 41.36 2.51976 41.36C2.51976 41.3067 2.54642 41.2533 2.59976 41.2C2.70642 41.0933 2.67976 41.0933 2.51976 41.2C2.30642 41.3067 2.17309 41.36 2.11976 41.36C2.01309 41.4667 1.95976 41.4933 1.95976 41.44C2.01309 41.3867 2.03976 41.36 2.03976 41.36C1.98642 41.3067 1.93309 41.3067 1.87976 41.36L1.95976 41.28C2.17309 41.0667 2.17309 40.96 1.95976 40.96C1.85309 40.96 1.77309 40.9333 1.71976 40.88C1.66642 40.8267 1.69309 40.7733 1.79976 40.72C1.90642 40.72 1.90642 40.7733 1.79976 40.88C1.63976 40.9333 1.69309 40.9067 1.95976 40.8C2.06642 40.7467 2.11976 40.72 2.11976 40.72C2.11976 40.6667 2.09309 40.6667 2.03976 40.72C1.98642 40.72 2.01309 40.6933 2.11976 40.64C2.17309 40.5333 2.22642 40.48 2.27976 40.48C2.33309 40.48 2.38642 40.4533 2.43976 40.4C2.43976 40.3467 2.38642 40.3467 2.27976 40.4H2.11976C2.11976 40.4 2.09309 40.4 2.03976 40.4C2.14642 40.4533 2.17309 40.5067 2.11976 40.56C2.01309 40.6133 1.93309 40.6133 1.87976 40.56C1.87976 40.5067 1.82642 40.5067 1.71976 40.56C1.66642 40.6133 1.61309 40.6667 1.55976 40.72C1.45309 40.72 1.39976 40.6933 1.39976 40.64C1.50642 40.5333 1.61309 40.48 1.71976 40.48C1.77309 40.4267 1.82642 40.3733 1.87976 40.32C1.98642 40.3733 2.01309 40.3733 1.95976 40.32C1.90642 40.2133 1.93309 40.16 2.03976 40.16C2.14642 40.16 2.19976 40.1333 2.19976 40.08C2.14642 40.0267 2.17309 40 2.27976 40C2.43976 40.0533 2.49309 40.0267 2.43976 39.92C2.33309 39.8133 2.27976 39.8133 2.27976 39.92C2.27976 39.8667 2.19976 39.92 2.03976 40.08C1.87976 40.24 1.77309 40.32 1.71976 40.32C1.66642 40.2667 1.63976 40.2667 1.63976 40.32C1.63976 40.2667 1.55976 40.2933 1.39976 40.4C1.29309 40.4533 1.26642 40.4533 1.31976 40.4C1.37309 40.2933 1.42642 40.24 1.47976 40.24C1.53309 40.24 1.55976 40.2133 1.55976 40.16C1.50642 40.1067 1.45309 40.1067 1.39976 40.16C1.34642 40.2133 1.31976 40.24 1.31976 40.24C1.31976 40.1867 1.37309 40.1067 1.47976 40C1.58642 39.9467 1.63976 39.92 1.63976 39.92C1.58642 39.92 1.50642 39.9467 1.39976 40C1.29309 40 1.23976 39.9467 1.23976 39.84C1.23976 39.68 1.29309 39.5733 1.39976 39.52C1.45309 39.4133 1.53309 39.3067 1.63976 39.2C1.69309 39.0933 1.74642 39.0667 1.79976 39.12C1.79976 39.1733 1.79976 39.1733 1.79976 39.12C1.74642 39.0133 1.74642 38.96 1.79976 38.96C1.85309 38.96 1.90642 38.9333 1.95976 38.88C1.85309 38.88 1.79976 38.8267 1.79976 38.72C1.79976 38.6133 1.79976 38.56 1.79976 38.56C1.74642 38.56 1.71976 38.5867 1.71976 38.64C1.77309 38.6933 1.74642 38.7467 1.63976 38.8C1.47976 38.8 1.45309 38.7733 1.55976 38.72C1.61309 38.6667 1.58642 38.64 1.47976 38.64C1.42642 38.64 1.39976 38.6133 1.39976 38.56C1.45309 38.4533 1.42642 38.4267 1.31976 38.48C1.21309 38.48 1.21309 38.4267 1.31976 38.32V38.16C1.31976 38.1067 1.29309 38.08 1.23976 38.08C1.23976 38.08 1.21309 38.1067 1.15976 38.16C1.10642 38.16 1.07976 38.1867 1.07976 38.24C1.02642 38.24 0.973089 38.24 0.919756 38.24H0.759756C0.759756 38.24 0.759756 38.2133 0.759756 38.16C0.706422 38.1067 0.653089 38.1067 0.599756 38.16C0.546422 38.16 0.573089 38.1333 0.679755 38.08C0.893089 37.9733 0.946423 37.92 0.839756 37.92C0.679756 37.8667 0.626422 37.8667 0.679755 37.92C0.733089 37.9733 0.599756 38 0.279756 38C0.386422 37.9467 0.466423 37.92 0.519756 37.92C0.573089 37.8667 0.653089 37.8133 0.759756 37.76C0.919756 37.6533 0.999756 37.6 0.999756 37.6C0.946422 37.6 0.973089 37.5467 1.07976 37.44C1.02642 37.5467 1.05309 37.6 1.15976 37.6C1.21309 37.5467 1.26642 37.4667 1.31976 37.36C1.26642 37.4133 1.23976 37.3867 1.23976 37.28C1.23976 37.2267 1.29309 37.2 1.39976 37.2C1.45309 37.1467 1.50642 37.12 1.55976 37.12C1.55976 37.0667 1.61309 36.9867 1.71976 36.88C1.77309 36.7733 1.82642 36.72 1.87976 36.72C1.87976 36.6133 1.85309 36.6133 1.79976 36.72C1.74642 36.7733 1.69309 36.7733 1.63976 36.72C1.63976 36.9333 1.53309 37.04 1.31976 37.04C1.21309 37.1467 1.18642 37.1467 1.23976 37.04C1.29309 36.9333 1.26642 36.96 1.15976 37.12C1.05309 37.2267 1.02642 37.28 1.07976 37.28C1.13309 37.28 1.15976 37.3067 1.15976 37.36C1.15976 37.4667 1.15976 37.4667 1.15976 37.36C1.10642 37.2533 1.02642 37.2533 0.919756 37.36C0.866423 37.4133 0.813089 37.44 0.759756 37.44C0.706422 37.3867 0.626422 37.4133 0.519756 37.52C0.413089 37.6267 0.306423 37.68 0.199756 37.68C0.0930893 37.68 0.0397559 37.6533 0.0397559 37.6C-0.0135775 37.4933 -0.0135775 37.44 0.0397559 37.44C0.093089 37.4933 0.119756 37.4667 0.119756 37.36C0.119756 37.2533 0.173089 37.2 0.279756 37.2C0.333089 37.2 0.413089 37.1733 0.519756 37.12C0.626422 37.0667 0.546422 37.0667 0.279756 37.12C0.173089 37.12 0.146422 37.0933 0.199756 37.04C0.306423 36.9867 0.386423 36.9333 0.439756 36.88C0.439756 36.8267 0.386422 36.8 0.279756 36.8C0.173089 36.8533 0.146422 36.8267 0.199756 36.72C0.253089 36.6133 0.333089 36.56 0.439756 36.56C0.493089 36.56 0.599756 36.5067 0.759756 36.4C0.866423 36.2933 0.946422 36.24 0.999756 36.24C1.10642 36.1867 1.69309 35.7333 2.75976 34.88C3.82642 34.0267 4.97309 33.0667 6.19976 32C7.63976 30.72 9.26642 29.3067 11.0798 27.76C11.1331 27.76 11.1598 27.76 11.1598 27.76C11.1598 27.7067 11.3198 27.52 11.6398 27.2C12.0131 26.88 12.1998 26.6933 12.1998 26.64C12.1998 26.64 12.2264 26.64 12.2798 26.64L12.3598 26.56C12.4131 26.56 12.4931 26.5067 12.5998 26.4C12.9731 26.08 13.1064 25.9733 12.9998 26.08C12.9464 26.1867 12.9731 26.2133 13.0798 26.16C13.0798 26.1067 13.0798 26.08 13.0798 26.08C13.0798 25.9733 13.1598 25.8933 13.3198 25.84C13.3731 25.7333 13.4264 25.6533 13.4798 25.6C13.5331 25.6 13.5598 25.6267 13.5598 25.68C13.6664 25.68 13.6931 25.68 13.6398 25.68C13.5864 25.6267 13.7198 25.4667 14.0398 25.2C14.8931 24.4 15.4798 23.84 15.7998 23.52C16.1731 23.2 16.3864 23.0133 16.4398 22.96C16.5464 22.8533 16.5731 22.8267 16.5198 22.88C16.5198 22.88 16.5464 22.8 16.5998 22.64C16.6531 22.5867 16.6798 22.56 16.6798 22.56C16.6798 22.5067 16.6531 22.5067 16.5998 22.56C16.5998 21.44 16.5731 20.4533 16.5198 19.6C16.5198 18.8533 16.5198 18.1867 16.5198 17.6C16.5198 16.96 16.4931 16.64 16.4398 16.64L16.5198 15.68V14.72C16.5731 13.8667 16.6264 13.04 16.6798 12.24C16.7331 11.6 16.7598 10.96 16.7598 10.32C16.8131 9.62667 16.8398 9.09334 16.8398 8.72C16.8398 8.56 16.8664 8.45333 16.9198 8.4C16.8664 8.34667 16.8664 8.32 16.9198 8.32C16.9731 8.32 16.9731 8.21334 16.9198 8C16.8664 7.78667 16.8664 7.70667 16.9198 7.76C16.9731 7.76 16.9998 7.73333 16.9998 7.68C16.9998 7.62667 16.9731 7.62667 16.9198 7.68V7.52C16.9198 7.41333 16.9198 7.22667 16.9198 6.96C16.9731 6.69333 16.9998 6.34667 16.9998 5.92C17.0531 5.6 17.0798 5.38667 17.0798 5.28C17.0798 5.17333 17.0531 5.12 16.9998 5.12C16.9998 5.06667 16.9998 5.04 16.9998 5.04C16.9998 5.04 16.9998 4.96 16.9998 4.8C17.0531 4.64 17.0798 4.42667 17.0798 4.16C17.0264 4.10667 16.9998 4.16 16.9998 4.32C16.9464 4.42667 16.9198 4.48 16.9198 4.48V4.56C16.9198 4.50667 16.9198 4.42667 16.9198 4.32C16.9198 4.26667 16.9198 4.21333 16.9198 4.16C16.9731 4.10667 16.9998 4.02667 16.9998 3.92C16.9998 3.76 17.0264 3.57333 17.0798 3.36C17.1864 3.41333 17.2131 3.38667 17.1598 3.28C17.1598 3.12 17.1864 3.06667 17.2398 3.12C17.1864 3.12 17.2131 2.98667 17.3198 2.72C17.3198 2.66667 17.2931 2.66667 17.2398 2.72C17.1864 2.77333 17.1864 2.74667 17.2398 2.64C17.2931 2.48 17.3464 2.4 17.3998 2.4C17.4531 2.4 17.4531 2.37333 17.3998 2.32C17.3464 2.26667 17.3998 2.24 17.5598 2.24C17.7198 2.24 17.8264 2.26667 17.8798 2.32C17.8798 2.37333 17.9331 2.4 18.0398 2.4C18.1464 2.45334 18.1998 2.42667 18.1998 2.32C18.1998 2.21333 18.2264 2.16 18.2798 2.16C18.3331 2.16 18.3598 2.21333 18.3598 2.32C18.3598 2.48 18.3864 2.56 18.4398 2.56C18.4931 2.56 18.5464 2.48 18.5998 2.32C18.6531 2.10667 18.6798 2.10667 18.6798 2.32C18.7864 2.48 18.8664 2.48 18.9198 2.32C18.9731 2.21333 18.9731 2.21333 18.9198 2.32C18.9198 2.42667 18.9464 2.45334 18.9998 2.4C19.1064 2.4 19.1064 2.45334 18.9998 2.56C18.9464 2.66667 18.9464 2.72 18.9998 2.72C19.0531 2.72 19.0798 2.69333 19.0798 2.64C19.0798 2.53333 19.1331 2.48 19.2398 2.48C19.3464 2.48 19.3731 2.45334 19.3198 2.4C19.2664 2.34667 19.2664 2.34667 19.3198 2.4C19.3731 2.4 19.3731 2.42667 19.3198 2.48C19.3731 2.53333 19.4264 2.56 19.4798 2.56C19.3731 2.61333 19.3731 2.66667 19.4798 2.72C19.5864 2.77333 19.6664 2.8 19.7198 2.8C19.8798 2.69333 19.9598 2.69333 19.9598 2.8C19.9064 2.85333 19.9331 2.88 20.0398 2.88C20.1464 2.93333 20.1731 3.04 20.1198 3.2C20.1198 3.36 20.1731 3.46667 20.2798 3.52C20.2798 3.57333 20.2531 3.62667 20.1998 3.68C20.1464 3.73333 20.1198 3.84 20.1198 4C20.1731 4.10667 20.1731 4.42667 20.1198 4.96C20.1198 5.17333 20.1198 5.28 20.1198 5.28C20.1731 5.22667 20.2531 5.28 20.3598 5.44C20.4664 5.54667 20.5198 5.6 20.5198 5.6C20.5198 5.6 20.4931 5.57333 20.4398 5.52C20.3864 5.46667 20.3864 5.49333 20.4398 5.6C20.5464 5.65333 20.5998 5.65333 20.5998 5.6C20.6531 5.54667 20.6798 5.57333 20.6798 5.68C20.7331 5.78667 20.7864 5.86667 20.8398 5.92C20.8931 5.97333 20.8931 6.02667 20.8398 6.08C20.7864 6.13334 20.7864 6.21333 20.8398 6.32C20.8931 6.37333 20.8931 6.4 20.8398 6.4V6.48C20.8931 6.53334 20.8931 6.58667 20.8398 6.64C20.7864 6.69333 20.7598 6.8 20.7598 6.96C20.7598 7.12 20.7864 7.22667 20.8398 7.28C20.8931 7.38667 20.8931 7.49333 20.8398 7.6C20.7864 7.65334 20.7864 7.70667 20.8398 7.76C20.8931 7.76 20.9198 7.73333 20.9198 7.68C20.9731 7.68 20.9998 7.70667 20.9998 7.76C20.9998 7.81333 20.9731 7.84 20.9198 7.84C20.8664 7.84 20.8398 7.86667 20.8398 7.92C20.8931 7.97334 20.8931 7.97334 20.8398 7.92C20.8398 7.86667 20.8931 7.84 20.9998 7.84C21.1064 7.84 21.0798 7.92 20.9198 8.08C20.8131 8.08 20.7598 8.21333 20.7598 8.48C20.7598 8.8 20.7598 8.98667 20.7598 9.04C20.7598 9.09334 20.7598 9.14667 20.7598 9.2C20.7598 9.25333 20.7598 9.33333 20.7598 9.44C20.7598 9.49333 20.7598 9.70667 20.7598 10.08C20.7598 10.6667 20.7331 10.96 20.6798 10.96C20.6798 10.9067 20.6798 10.9333 20.6798 11.04C20.6798 11.1467 20.7064 11.2 20.7598 11.2C20.8131 11.1467 20.8398 11.0667 20.8398 10.96C20.8398 10.64 20.8664 10.3467 20.9198 10.08C20.9198 9.76 20.9464 9.54667 20.9998 9.44C20.9998 9.33333 20.9998 9.25333 20.9998 9.2C20.9998 9.30667 20.9998 9.49333 20.9998 9.76C20.9998 10.0267 21.0264 10.1333 21.0798 10.08C21.0798 10.1333 21.0531 10.16 20.9998 10.16C20.9998 10.2133 21.0264 10.24 21.0798 10.24C21.1331 10.2933 21.1598 10.5333 21.1598 10.96C21.1598 11.3867 21.1064 11.5733 20.9998 11.52C20.9464 11.4667 20.9198 11.4667 20.9198 11.52C20.9198 11.5733 20.9731 11.6 21.0798 11.6C21.1331 11.6533 21.1064 11.7067 20.9998 11.76C20.9464 11.8133 20.9464 11.8133 20.9998 11.76C21.1598 11.76 21.1864 11.8133 21.0798 11.92C20.9731 11.92 20.9464 12.1067 20.9998 12.48C21.1064 12.8 21.1598 13.4933 21.1598 14.56C21.1064 16.16 21.1331 17.2267 21.2398 17.76C21.3464 18.24 21.3198 18.48 21.1598 18.48C20.8931 18.48 20.8664 18.4267 21.0798 18.32C21.1331 18.32 21.1598 18.32 21.1598 18.32C21.2131 18.2667 21.2131 18.24 21.1598 18.24C20.9998 18.2933 20.9464 18.2667 20.9998 18.16C21.1064 18.0533 21.1064 18 20.9998 18C20.9464 17.9467 20.9198 18.0267 20.9198 18.24C20.9731 18.4533 21.0531 18.56 21.1598 18.56C21.3198 18.56 21.4798 18.4533 21.6398 18.24C21.7998 18.0267 21.9331 17.92 22.0398 17.92C22.0398 17.92 22.3598 17.6267 22.9998 17.04C23.6931 16.4 24.5731 15.5733 25.6398 14.56C26.7598 13.5467 28.0131 12.4 29.3998 11.12C30.8398 9.84 32.3064 8.53333 33.7998 7.2C34.2264 6.82667 34.7598 6.37333 35.3998 5.84C36.0931 5.30667 36.7331 4.8 37.3198 4.32C37.9064 3.84 38.4131 3.41333 38.8398 3.04C39.2664 2.66667 39.4798 2.48 39.4798 2.48C39.5331 2.42667 39.5864 2.42667 39.6398 2.48C39.6931 2.53333 39.6931 2.50667 39.6398 2.4C39.7464 2.4 39.8531 2.34667 39.9598 2.24C40.1198 2.08 40.2531 2 40.3598 2C40.4131 2 40.4131 1.97333 40.3598 1.92C40.3064 1.86667 40.3331 1.84 40.4398 1.84C40.8664 1.52 41.2664 1.25333 41.6398 1.04C41.8531 0.88 42.1198 0.693332 42.4398 0.479999C42.5998 0.373333 42.7331 0.293334 42.8398 0.240002C42.9464 0.186669 43.0264 0.133335 43.0798 0.079999C43.2398 -0.0266663 43.3198 -0.0266663 43.3198 0.079999C43.3198 0.186667 43.3464 0.213335 43.3998 0.160003C43.5064 0.106667 43.4531 0.186666 43.2398 0.4C43.5064 0.293334 43.6664 0.240002 43.7198 0.240002C43.7731 0.186669 43.7998 0.213335 43.7998 0.320001C43.7998 0.373333 43.8264 0.346667 43.8798 0.240002C43.9864 0.133333 44.0131 0.133333 43.9598 0.240002C43.9064 0.293334 43.9331 0.320001 44.0398 0.320001C44.0931 0.320001 44.1464 0.293334 44.1998 0.240002C44.3064 0.186669 44.3331 0.186669 44.2798 0.240002V0.320001C44.3331 0.320001 44.3864 0.346667 44.4398 0.4C44.5464 0.453332 44.5464 0.479999 44.4398 0.479999C44.3864 0.479999 44.3864 0.506666 44.4398 0.560002C44.5464 0.666668 44.5998 0.693334 44.5998 0.640001C44.6531 0.533333 44.7598 0.506666 44.9198 0.560002C44.9731 0.560002 44.9731 0.613335 44.9198 0.72C44.9198 0.826666 44.9464 0.853332 44.9998 0.799999C45.0531 0.799999 45.1064 0.826666 45.1598 0.879998C45.2664 0.879998 45.2931 0.879998 45.2398 0.879998C45.1331 0.933334 45.0798 0.986668 45.0798 1.04C45.0798 1.14667 45.0531 1.2 44.9998 1.2C44.9464 1.14667 44.9464 1.14667 44.9998 1.2C44.9998 1.41333 44.9198 1.52 44.7598 1.52C44.6531 1.52 44.5998 1.54667 44.5998 1.6C44.5998 1.65333 44.6264 1.68 44.6798 1.68V2C44.6264 2 44.5998 2 44.5998 2V1.84C44.7064 1.73333 44.7064 1.73333 44.5998 1.84C44.4931 1.94667 44.4131 2 44.3598 2C44.3064 2 44.2798 2.02667 44.2798 2.08C44.3331 2.13333 44.3864 2.13333 44.4398 2.08C44.4931 2.02667 44.5464 2 44.5998 2C44.7064 2 44.7598 2.02667 44.7598 2.08C44.7598 2.08 44.8398 2.05334 44.9998 2C44.9998 2.05334 45.0531 2.02667 45.1598 1.92ZM44.3598 0.640001C44.3598 0.693334 44.3598 0.72 44.3598 0.72C44.4131 0.72 44.4398 0.693334 44.4398 0.640001C44.4398 0.586669 44.4131 0.586669 44.3598 0.640001ZM0.999756 38.08C0.999756 38.0267 0.973089 38.0267 0.919756 38.08C0.866423 38.1333 0.866423 38.16 0.919756 38.16C0.919756 38.16 0.946422 38.1333 0.999756 38.08ZM0.999756 37.76C0.893089 37.8133 0.893089 37.84 0.999756 37.84C1.10642 37.7867 1.13309 37.7067 1.07976 37.6L0.999756 37.52V37.6V37.76ZM1.15976 38C1.21309 37.9467 1.21309 37.92 1.15976 37.92C1.15976 37.8667 1.13309 37.8933 1.07976 38C1.02642 38.0533 1.05309 38.0533 1.15976 38ZM1.55976 37.52C1.61309 37.4133 1.66642 37.3867 1.71976 37.44C1.71976 37.44 1.71976 37.3867 1.71976 37.28H1.63976C1.58642 37.2267 1.55976 37.2267 1.55976 37.28C1.55976 37.3867 1.47976 37.4933 1.31976 37.6C1.15976 37.6533 1.13309 37.6533 1.23976 37.6C1.34642 37.6 1.39976 37.5733 1.39976 37.52C1.34642 37.4667 1.34642 37.4933 1.39976 37.6C1.45309 37.6 1.50642 37.5733 1.55976 37.52ZM1.71976 39.92C1.77309 39.92 1.79976 39.8933 1.79976 39.84C1.79976 39.7867 1.77309 39.76 1.71976 39.76V39.84C1.66642 39.84 1.63976 39.8667 1.63976 39.92C1.63976 39.92 1.66642 39.92 1.71976 39.92ZM2.27976 40.56H2.35976C2.35976 40.56 2.38642 40.56 2.43976 40.56H2.35976C2.30642 40.5067 2.27976 40.5067 2.27976 40.56ZM2.27976 36.4C2.33309 36.4 2.35976 36.3733 2.35976 36.32C2.30642 36.2667 2.27976 36.2933 2.27976 36.4C2.27976 36.4533 2.19976 36.48 2.03976 36.48C2.09309 36.48 2.09309 36.5333 2.03976 36.64C1.98642 36.6933 2.01309 36.6933 2.11976 36.64C2.22642 36.5333 2.27976 36.4533 2.27976 36.4ZM2.27976 36C2.33309 36 2.38642 35.9733 2.43976 35.92C2.49309 35.8133 2.46642 35.8133 2.35976 35.92L2.27976 36ZM2.59976 36.16C2.54642 36.1067 2.49309 36.1067 2.43976 36.16C2.38642 36.2133 2.41309 36.2133 2.51976 36.16H2.59976ZM2.51976 40.4C2.57309 40.4 2.59976 40.3733 2.59976 40.32H2.51976C2.51976 40.3733 2.51976 40.4 2.51976 40.4ZM2.75976 36.08C2.81309 36.1333 2.83976 36.1067 2.83976 36C2.83976 35.8933 2.81309 35.8667 2.75976 35.92C2.70642 35.9733 2.70642 36.0267 2.75976 36.08ZM3.15976 35.76C3.15976 35.7067 3.13309 35.6533 3.07976 35.6C2.97309 35.5467 2.94642 35.5733 2.99976 35.68C3.05309 35.7333 3.05309 35.76 2.99976 35.76C2.89309 35.8133 2.89309 35.84 2.99976 35.84C3.05309 35.84 3.10642 35.8133 3.15976 35.76ZM3.63976 41.12C3.69309 41.12 3.71976 41.12 3.71976 41.12C3.71976 41.0667 3.69309 41.04 3.63976 41.04C3.63976 41.0933 3.63976 41.12 3.63976 41.12ZM3.63976 40.96C3.69309 41.0133 3.71976 40.9867 3.71976 40.88C3.71976 40.7733 3.69309 40.72 3.63976 40.72C3.58642 40.72 3.58642 40.7467 3.63976 40.8C3.69309 40.8 3.66642 40.8 3.55976 40.8C3.34642 40.9067 3.31976 40.96 3.47976 40.96C3.37309 41.0133 3.34642 41.04 3.39976 41.04C3.45309 41.04 3.50642 41.0133 3.55976 40.96V40.88C3.61309 40.88 3.63976 40.9067 3.63976 40.96ZM4.19976 40.48C4.25309 40.3733 4.25309 40.3467 4.19976 40.4C4.09309 40.4533 4.09309 40.5067 4.19976 40.56H4.11976C3.85309 40.56 3.82642 40.5867 4.03976 40.64C4.19976 40.6933 4.25309 40.64 4.19976 40.48ZM5.23976 36.16C5.23976 36.1067 5.21309 36.08 5.15976 36.08C5.10642 36.0267 5.10642 36.0533 5.15976 36.16C5.15976 36.2133 5.18642 36.2133 5.23976 36.16ZM3.07976 43.36V43.28V43.36ZM3.31976 43.28C3.31976 43.2267 3.29309 43.2267 3.23976 43.28C3.13309 43.3333 3.13309 43.36 3.23976 43.36C3.29309 43.36 3.31976 43.3333 3.31976 43.28ZM3.55976 42.88C3.55976 42.9333 3.58642 42.96 3.63976 42.96C3.69309 42.9067 3.69309 42.8533 3.63976 42.8C3.63976 42.7467 3.61309 42.72 3.55976 42.72C3.50642 42.72 3.50642 42.7467 3.55976 42.8C3.61309 42.8533 3.61309 42.88 3.55976 42.88ZM4.59976 40.96C4.54642 41.0667 4.57309 41.0667 4.67976 40.96C4.73309 40.8533 4.73309 40.8267 4.67976 40.88C4.62642 40.88 4.59976 40.9067 4.59976 40.96ZM4.19976 41.76C4.09309 41.7067 4.03976 41.7067 4.03976 41.76C4.03976 41.8133 4.09309 41.84 4.19976 41.84C4.25309 41.84 4.27976 41.84 4.27976 41.84C4.27976 41.7867 4.25309 41.76 4.19976 41.76ZM4.75976 42.56C4.81309 42.56 4.81309 42.5333 4.75976 42.48L4.67976 42.56H4.75976ZM4.75976 41.6C4.91976 41.4933 4.97309 41.4133 4.91976 41.36C4.86642 41.3067 4.83976 41.3333 4.83976 41.44C4.89309 41.4933 4.81309 41.52 4.59976 41.52C4.38642 41.4667 4.33309 41.4933 4.43976 41.6C4.54642 41.7067 4.51976 41.7333 4.35976 41.68C4.14642 41.5733 4.11976 41.6 4.27976 41.76C4.33309 41.8133 4.25309 41.8933 4.03976 42C3.82642 42.1067 3.74642 42.1867 3.79976 42.24C3.85309 42.3467 3.93309 42.3467 4.03976 42.24C4.09309 42.08 4.11976 42.0533 4.11976 42.16C4.17309 42.16 4.19976 42.1333 4.19976 42.08C4.14642 42.0267 4.14642 42.0267 4.19976 42.08C4.25309 42.08 4.33309 42.0267 4.43976 41.92C4.54642 41.8133 4.59976 41.7333 4.59976 41.68C4.59976 41.6267 4.62642 41.6 4.67976 41.6C4.67976 41.5467 4.65309 41.5733 4.59976 41.68C4.65309 41.68 4.70642 41.6533 4.75976 41.6ZM5.31976 41.2C5.37309 41.1467 5.39976 41.12 5.39976 41.12C5.39976 41.0667 5.37309 41.0667 5.31976 41.12C5.21309 41.1733 5.15976 41.2267 5.15976 41.28C5.15976 41.28 5.10642 41.3067 4.99976 41.36C4.99976 41.4133 5.10642 41.36 5.31976 41.2ZM5.55976 35.76C5.61309 35.8133 5.66642 35.8133 5.71976 35.76C5.77309 35.7067 5.77309 35.68 5.71976 35.68C5.66642 35.68 5.61309 35.7067 5.55976 35.76ZM5.63976 39.84C5.63976 39.8933 5.66642 39.92 5.71976 39.92C5.71976 39.92 5.71976 39.8933 5.71976 39.84C5.71976 39.7867 5.69309 39.7867 5.63976 39.84ZM5.87976 42C5.93309 41.9467 5.95976 41.92 5.95976 41.92C5.90642 41.92 5.85309 41.9467 5.79976 42C5.69309 42.0533 5.66642 42.08 5.71976 42.08C5.77309 42.08 5.82642 42.0533 5.87976 42ZM5.87976 39.92C5.93309 39.92 5.95976 39.8933 5.95976 39.84C5.95976 39.7867 5.93309 39.7867 5.87976 39.84C5.77309 39.9467 5.74642 40 5.79976 40C5.79976 40 5.82642 39.9733 5.87976 39.92ZM6.19976 35.28C6.30642 35.3867 6.35976 35.4133 6.35976 35.36L6.19976 35.28ZM7.71976 30.88C7.66642 30.9867 7.63976 31.04 7.63976 31.04C7.69309 31.04 7.74642 30.9867 7.79976 30.88C7.90642 30.7733 7.93309 30.72 7.87976 30.72C7.87976 30.72 7.82642 30.7733 7.71976 30.88ZM7.71976 33.76C7.61309 33.8133 7.55976 33.8667 7.55976 33.92C7.61309 33.92 7.66642 33.8667 7.71976 33.76ZM7.39976 31.2C7.29309 31.3067 7.29309 31.3333 7.39976 31.28L7.55976 31.12C7.55976 31.0667 7.55976 31.04 7.55976 31.04H7.47976C7.47976 31.0933 7.45309 31.1467 7.39976 31.2ZM7.63976 34.48C7.42642 34.64 7.34642 34.72 7.39976 34.72L7.63976 34.48ZM7.31976 34.32C7.26642 34.3733 7.29309 34.4 7.39976 34.4C7.55976 34.24 7.53309 34.2133 7.31976 34.32ZM7.07976 34.8C7.13309 34.8 7.13309 34.7733 7.07976 34.72C6.97309 34.6133 6.89309 34.64 6.83976 34.8C6.78642 34.9067 6.81309 34.9067 6.91976 34.8C6.97309 34.7467 7.02642 34.7467 7.07976 34.8ZM7.31976 40.8C7.42642 40.8 7.42642 40.8 7.31976 40.8C7.26642 40.7467 7.29309 40.6667 7.39976 40.56C7.50642 40.4533 7.55976 40.3733 7.55976 40.32C7.61309 40.2667 7.58642 40.2933 7.47976 40.4C7.37309 40.5067 7.31976 40.56 7.31976 40.56C7.31976 40.5067 7.29309 40.5333 7.23976 40.64C7.18642 40.7467 7.15976 40.8 7.15976 40.8C7.15976 40.8533 7.18642 40.9333 7.23976 41.04C7.13309 41.04 7.10642 41.0667 7.15976 41.12C7.15976 41.1733 7.21309 41.1733 7.31976 41.12C7.42642 41.0133 7.42642 40.9333 7.31976 40.88V40.8ZM7.55976 40.72C7.66642 40.6667 7.71976 40.64 7.71976 40.64C7.71976 40.5867 7.66642 40.6133 7.55976 40.72C7.45309 40.8267 7.39976 40.88 7.39976 40.88C7.45309 40.88 7.50642 40.8267 7.55976 40.72ZM7.87976 40.32C7.87976 40.2133 7.79976 40.24 7.63976 40.4V40.48C7.85309 40.2667 7.90642 40.2667 7.79976 40.48C7.69309 40.5867 7.71976 40.5867 7.87976 40.48C8.03976 40.32 8.03976 40.2667 7.87976 40.32ZM7.87976 33.68C7.93309 33.6267 7.95976 33.6 7.95976 33.6C7.90642 33.6 7.85309 33.6267 7.79976 33.68C7.79976 33.68 7.82642 33.68 7.87976 33.68ZM8.03976 38.08C8.09309 38.1333 8.11976 38.1333 8.11976 38.08C8.11976 37.9733 8.09309 37.9467 8.03976 38C7.98642 38 7.98642 38.0267 8.03976 38.08ZM8.03976 30.8C8.14642 30.7467 8.17309 30.72 8.11976 30.72C8.06642 30.72 8.09309 30.6667 8.19976 30.56C8.41309 30.4533 8.43976 30.4 8.27976 30.4C8.22642 30.4 8.19976 30.4267 8.19976 30.48C8.25309 30.5333 8.22642 30.56 8.11976 30.56C8.01309 30.56 7.95976 30.6133 7.95976 30.72C7.95976 30.8267 7.98642 30.8533 8.03976 30.8ZM8.11976 33.44L8.19976 33.36L8.11976 33.44ZM8.27976 37.28C8.17309 37.3867 8.14642 37.44 8.19976 37.44C8.25309 37.44 8.27976 37.4133 8.27976 37.36C8.33309 37.2533 8.33309 37.2267 8.27976 37.28ZM8.43976 37.84C8.59976 37.5733 8.57309 37.52 8.35976 37.68C8.25309 37.7867 8.19976 37.8667 8.19976 37.92C8.19976 37.9733 8.22642 37.9467 8.27976 37.84C8.38642 37.7333 8.41309 37.7333 8.35976 37.84C8.30642 37.9467 8.33309 37.9467 8.43976 37.84ZM8.99976 37.44C9.05309 37.3867 9.05309 37.36 8.99976 37.36C8.94642 37.4133 8.91976 37.44 8.91976 37.44C8.91976 37.4933 8.94642 37.4933 8.99976 37.44ZM9.71976 29.2C9.71976 29.1467 9.66642 29.1467 9.55976 29.2C9.23976 29.4667 9.10642 29.6 9.15976 29.6C9.21309 29.6 9.18642 29.6533 9.07976 29.76C8.97309 29.8133 8.91976 29.8133 8.91976 29.76C8.97309 29.7067 8.94642 29.7333 8.83976 29.84C8.73309 29.9467 8.67976 30 8.67976 30C8.51976 30 8.43976 30.1067 8.43976 30.32C8.43976 30.4267 8.51976 30.4 8.67976 30.24C8.89309 30.0267 8.97309 29.8933 8.91976 29.84H8.99976C9.10642 29.9467 9.15976 29.9467 9.15976 29.84C9.21309 29.7333 9.23976 29.7067 9.23976 29.76C9.29309 29.76 9.31976 29.7067 9.31976 29.6C9.31976 29.5467 9.34642 29.52 9.39976 29.52C9.50642 29.4667 9.53309 29.4667 9.47976 29.52C9.47976 29.6267 9.50642 29.68 9.55976 29.68C9.61309 29.6267 9.61309 29.5733 9.55976 29.52C9.50642 29.4667 9.50642 29.4133 9.55976 29.36C9.66642 29.3067 9.71976 29.2533 9.71976 29.2ZM9.87976 29.2C9.93309 29.1467 9.95976 29.12 9.95976 29.12C9.90642 29.12 9.85309 29.1467 9.79976 29.2C9.74642 29.2533 9.77309 29.2533 9.87976 29.2ZM10.1198 36.4C10.1731 36.4 10.1998 36.4 10.1998 36.4C10.1998 36.3467 10.1731 36.32 10.1198 36.32C10.0664 36.2667 10.0398 36.2667 10.0398 36.32C10.0398 36.3733 10.0664 36.4 10.1198 36.4ZM10.5998 28.64C10.8131 28.64 10.8131 28.5867 10.5998 28.48C10.4931 28.4267 10.3864 28.48 10.2798 28.64C10.1731 28.8 10.0664 28.9067 9.95976 28.96C9.90642 28.96 9.85309 28.9867 9.79976 29.04C9.79976 29.04 9.82642 29.04 9.87976 29.04H9.95976C10.0131 28.9333 10.0398 28.9067 10.0398 28.96C10.0931 29.0133 10.1464 28.9867 10.1998 28.88C10.4131 28.7733 10.5198 28.72 10.5198 28.72C10.5198 28.6133 10.4931 28.6133 10.4398 28.72C10.4398 28.7733 10.4131 28.8 10.3598 28.8C10.2531 28.8 10.2264 28.7733 10.2798 28.72C10.3864 28.6133 10.4931 28.5867 10.5998 28.64ZM10.7598 28.56C10.8131 28.56 10.8398 28.5067 10.8398 28.4C10.8398 28.3467 10.8131 28.32 10.7598 28.32C10.7598 28.32 10.7598 28.3467 10.7598 28.4C10.7598 28.4533 10.7598 28.5067 10.7598 28.56ZM10.9198 28.24C10.8131 28.3467 10.8131 28.3467 10.9198 28.24C11.0798 28.1333 11.1064 28.08 10.9998 28.08C10.9998 28.08 10.9731 28.1333 10.9198 28.24ZM11.4798 27.76V27.84V27.92C11.5331 27.92 11.5598 27.8933 11.5598 27.84C11.5598 27.7867 11.5331 27.76 11.4798 27.76ZM11.3998 37.52V37.44H11.3198C11.3198 37.4933 11.3464 37.52 11.3998 37.52ZM11.4798 37.12C11.5331 37.0133 11.5064 37.0133 11.3998 37.12C11.3464 37.2267 11.3731 37.2267 11.4798 37.12ZM11.7198 36.96V36.88C11.6131 36.88 11.5598 36.9333 11.5598 37.04C11.6131 37.1467 11.6664 37.12 11.7198 36.96ZM11.8798 27.36C11.8798 27.3067 11.8531 27.28 11.7998 27.28C11.7464 27.3333 11.7464 27.3867 11.7998 27.44C11.8531 27.4933 11.8798 27.4667 11.8798 27.36ZM16.4398 32.4C16.4931 32.3467 16.4664 32.3467 16.3598 32.4C16.2531 32.5067 16.2531 32.56 16.3598 32.56C16.4664 32.6133 16.4931 32.64 16.4398 32.64C16.3864 32.5867 16.3864 32.5067 16.4398 32.4ZM16.3598 32.08C16.2531 32.1333 16.2264 32.16 16.2798 32.16C16.3864 32.16 16.4398 32.1333 16.4398 32.08C16.4398 32.0267 16.4131 32.0267 16.3598 32.08ZM15.8798 23.68C15.7731 23.7867 15.7464 23.84 15.7998 23.84C15.8531 23.7867 15.8798 23.7333 15.8798 23.68ZM15.7198 32.56C15.6664 32.72 15.6398 32.8 15.6398 32.8C15.6931 32.7467 15.7198 32.7467 15.7198 32.8C15.7731 32.8533 15.7731 32.8267 15.7198 32.72C15.8264 32.6667 15.8798 32.64 15.8798 32.64H15.9598C16.0131 32.5867 16.0398 32.56 16.0398 32.56C16.1998 32.56 16.1998 32.48 16.0398 32.32H15.9598C15.9598 32.4267 15.9598 32.4533 15.9598 32.4C15.9598 32.3467 15.8798 32.4 15.7198 32.56ZM15.2398 33.04C15.1864 33.04 15.1598 33.0667 15.1598 33.12C15.1598 33.12 15.1864 33.12 15.2398 33.12V33.04ZM15.0798 26.24C14.9731 26.3467 14.9198 26.3733 14.9198 26.32C14.9198 26.4267 14.9731 26.4267 15.0798 26.32C15.1864 26.16 15.1864 26.1333 15.0798 26.24ZM14.5198 26.64C14.3598 26.7467 14.2798 26.8267 14.2798 26.88C14.3331 26.88 14.4131 26.8 14.5198 26.64ZM14.5198 26.96C14.6264 26.8533 14.6531 26.8 14.5998 26.8C14.5998 26.7467 14.5464 26.7733 14.4398 26.88C14.3331 26.9867 14.2798 27.04 14.2798 27.04C14.3331 27.04 14.4131 27.0133 14.5198 26.96ZM14.2798 26C14.2264 26 14.1998 26.0267 14.1998 26.08C14.1998 26.08 14.2264 26.1067 14.2798 26.16V26.08C14.3331 26.0267 14.3331 26 14.2798 26ZM13.9598 27.36C13.9598 27.4667 13.9598 27.52 13.9598 27.52C13.9598 27.5733 13.9331 27.6 13.8798 27.6C13.8798 27.5467 13.8531 27.5467 13.7998 27.6C13.7464 27.6 13.7464 27.6267 13.7998 27.68C13.9064 27.68 13.9598 27.6533 13.9598 27.6C14.0131 27.5467 14.0931 27.4667 14.1998 27.36C14.3064 27.2533 14.3331 27.2 14.2798 27.2C14.2798 27.1467 14.2531 27.12 14.1998 27.12C14.1998 27.12 14.1998 27.1467 14.1998 27.2C14.1998 27.3067 14.1464 27.36 14.0398 27.36C13.9864 27.3067 13.9598 27.3067 13.9598 27.36ZM13.7998 25.76C13.5864 25.8667 13.5598 25.92 13.7198 25.92L13.7998 25.76ZM13.3198 25.92C13.3198 25.92 13.3464 25.92 13.3998 25.92C13.3998 25.8667 13.3731 25.84 13.3198 25.84C13.3198 25.84 13.3198 25.8667 13.3198 25.92ZM12.6798 26.56C12.5198 26.72 12.4931 26.7733 12.5998 26.72C12.5998 26.6133 12.6531 26.56 12.7598 26.56C12.7598 26.5067 12.7864 26.4533 12.8398 26.4L12.6798 26.56ZM12.3598 26.8V26.88C12.4131 26.9867 12.4398 26.9867 12.4398 26.88C12.4398 26.7733 12.4131 26.7467 12.3598 26.8ZM11.9598 27.2C12.0664 27.0933 12.1198 27.0933 12.1198 27.2H12.1998C12.1464 27.1467 12.1464 27.0933 12.1998 27.04C12.3064 26.9867 12.3064 26.96 12.1998 26.96C12.1464 26.96 12.0664 27.0133 11.9598 27.12C11.9064 27.2267 11.9064 27.2533 11.9598 27.2ZM12.9998 35.76C13.0531 35.7067 13.0531 35.68 12.9998 35.68C12.9464 35.68 12.9198 35.7067 12.9198 35.76C12.9198 35.76 12.9464 35.76 12.9998 35.76ZM12.9998 28C13.0531 28 13.1064 27.9467 13.1598 27.84C13.2131 27.7333 13.2398 27.7067 13.2398 27.76C13.2931 27.76 13.3198 27.7333 13.3198 27.68C13.3731 27.6267 13.4264 27.6 13.4798 27.6C13.5864 27.5467 13.6398 27.4933 13.6398 27.44C13.6931 27.3333 13.7464 27.28 13.7998 27.28C13.8531 27.3333 13.8798 27.3333 13.8798 27.28C13.9331 27.1733 13.9864 27.12 14.0398 27.12C14.1464 27.0667 14.1998 27.0133 14.1998 26.96C14.2531 26.9067 14.2264 26.88 14.1198 26.88C14.0664 26.9333 14.0664 26.9867 14.1198 27.04C14.1731 27.0933 14.1731 27.0933 14.1198 27.04C14.0664 27.04 13.9064 27.12 13.6398 27.28C13.4264 27.44 13.1864 27.6533 12.9198 27.92C12.6531 28.1333 12.4398 28.3467 12.2798 28.56C12.1198 28.72 12.0664 28.8 12.1198 28.8C12.1198 28.7467 12.2531 28.6133 12.5198 28.4C12.7864 28.1333 12.9464 28 12.9998 28ZM13.7198 27.76C13.6664 27.76 13.6398 27.7867 13.6398 27.84C13.6398 27.8933 13.6664 27.8667 13.7198 27.76ZM13.3998 35.44C13.3464 35.44 13.3198 35.44 13.3198 35.44C13.3731 35.3867 13.3464 35.36 13.2398 35.36C13.2398 35.4667 13.2664 35.52 13.3198 35.52C13.3731 35.52 13.3998 35.4933 13.3998 35.44ZM14.1198 34.8C14.1731 34.7467 14.1731 34.72 14.1198 34.72C14.0664 34.72 14.0131 34.7733 13.9598 34.88C13.8531 34.9333 13.7998 34.96 13.7998 34.96C13.7464 34.8533 13.6931 34.9067 13.6398 35.12C13.6398 35.28 13.6131 35.3067 13.5598 35.2C13.5064 35.0933 13.4531 35.0933 13.3998 35.2C13.3464 35.3067 13.3731 35.3333 13.4798 35.28C13.5864 35.28 13.6398 35.2533 13.6398 35.2C13.6931 35.0933 13.7198 35.0667 13.7198 35.12H13.8798C13.8798 35.12 13.9064 35.0933 13.9598 35.04C13.9598 35.0933 13.9864 35.0933 14.0398 35.04C14.0931 34.9867 14.0931 34.9333 14.0398 34.88C13.9331 34.7733 13.9064 34.7467 13.9598 34.8C14.0131 34.8533 14.0664 34.8533 14.1198 34.8ZM14.6798 34.8C14.6798 34.8533 14.6798 34.88 14.6798 34.88C14.7331 34.8267 14.7598 34.7733 14.7598 34.72C14.7598 34.6667 14.7331 34.64 14.6798 34.64C14.6798 34.64 14.6798 34.6933 14.6798 34.8ZM15.0798 34.24C15.1864 34.24 15.1864 34.24 15.0798 34.24C15.0264 34.1867 14.9731 34.16 14.9198 34.16C14.9198 34.2133 14.8664 34.24 14.7598 34.24C14.7064 34.24 14.7331 34.1867 14.8398 34.08C14.9998 33.92 15.0531 33.84 14.9998 33.84C14.9998 33.7867 14.9731 33.76 14.9198 33.76C14.8664 33.8133 14.8664 33.8667 14.9198 33.92C14.9731 33.92 14.9198 33.9733 14.7598 34.08C14.6531 34.1867 14.6264 34.2667 14.6798 34.32C14.7331 34.4267 14.7064 34.48 14.5998 34.48C14.4931 34.48 14.4664 34.4267 14.5198 34.32C14.5198 34.2667 14.4931 34.2667 14.4398 34.32C14.3864 34.32 14.3331 34.3733 14.2798 34.48C14.1731 34.5333 14.1464 34.5867 14.1998 34.64C14.2531 34.6933 14.2531 34.7467 14.1998 34.8C14.0931 34.9067 14.0931 34.96 14.1998 34.96H14.3598C14.4131 35.0667 14.4398 35.12 14.4398 35.12C14.4931 35.12 14.4664 35.0667 14.3598 34.96C14.3598 34.96 14.3598 34.9333 14.3598 34.88C14.4131 34.8267 14.4664 34.7733 14.5198 34.72C14.5731 34.6133 14.6264 34.56 14.6798 34.56C14.7331 34.56 14.7598 34.5067 14.7598 34.4C14.7598 34.24 14.8131 34.2133 14.9198 34.32C14.9731 34.3733 14.9998 34.3733 14.9998 34.32C14.9998 34.2133 15.0264 34.1867 15.0798 34.24ZM15.3998 33.84C15.5064 33.7333 15.4798 33.6533 15.3198 33.6C15.1598 33.5467 15.0798 33.5733 15.0798 33.68C15.0798 33.84 15.1331 33.8667 15.2398 33.76C15.3464 33.7067 15.3998 33.7067 15.3998 33.76C15.3998 33.76 15.3464 33.7867 15.2398 33.84C15.1331 33.9467 15.0798 34.0533 15.0798 34.16C15.0798 34.2133 15.1331 34.1867 15.2398 34.08C15.3464 34.0267 15.3731 33.9733 15.3198 33.92C15.3198 33.8667 15.3464 33.84 15.3998 33.84ZM15.5598 33.68C15.6664 33.5733 15.7198 33.52 15.7198 33.52C15.6664 33.52 15.5864 33.5733 15.4798 33.68C15.4264 33.7867 15.4531 33.7867 15.5598 33.68ZM15.7198 33.44C15.7731 33.3867 15.8264 33.3333 15.8798 33.28C15.9331 33.2267 15.9598 33.2 15.9598 33.2C15.9598 33.1467 15.9331 33.1467 15.8798 33.2C15.8264 33.1467 15.7998 33.12 15.7998 33.12C15.8531 33.12 15.7998 33.2 15.6398 33.36C15.5331 33.4667 15.4531 33.52 15.3998 33.52C15.3464 33.4667 15.3464 33.4667 15.3998 33.52C15.3998 33.6267 15.5064 33.6 15.7198 33.44ZM15.8798 32.88C15.9864 32.7733 15.9864 32.7733 15.8798 32.88C15.7731 32.9333 15.7464 32.96 15.7998 32.96L15.8798 32.88ZM16.0398 33.12C16.1464 33.12 16.1731 33.0933 16.1198 33.04C16.1198 32.9333 16.0664 32.9333 15.9598 33.04C15.9064 33.0933 15.9331 33.12 16.0398 33.12ZM16.1198 32.24C16.2264 32.3467 16.2798 32.32 16.2798 32.16H16.1998C16.1464 32.16 16.1198 32.1867 16.1198 32.24ZM16.3598 33.12C16.4664 33.0133 16.5198 32.96 16.5198 32.96C16.5198 32.9067 16.4664 32.9333 16.3598 33.04C16.2531 33.1467 16.1998 33.2267 16.1998 33.28C16.1998 33.28 16.2531 33.2267 16.3598 33.12ZM16.8398 32.96C16.8931 32.9067 16.8664 32.88 16.7598 32.88C16.7064 32.88 16.7064 32.9067 16.7598 32.96C16.8131 32.96 16.8398 32.96 16.8398 32.96ZM17.2398 31.28V31.2C17.1331 31.2533 17.0798 31.3067 17.0798 31.36C17.1331 31.36 17.1331 31.36 17.0798 31.36C16.9731 31.36 16.8931 31.4133 16.8398 31.52C16.7864 31.6267 16.7864 31.68 16.8398 31.68C17.0531 31.68 17.1064 31.6267 16.9998 31.52C17.1064 31.52 17.1598 31.4667 17.1598 31.36C17.2131 31.36 17.2398 31.3333 17.2398 31.28ZM17.2398 15.44C17.3464 15.44 17.3464 15.3867 17.2398 15.28V15.44ZM18.3598 2.48C18.3064 2.37333 18.2798 2.37333 18.2798 2.48C18.2798 2.58667 18.3064 2.64 18.3598 2.64C18.3598 2.64 18.3598 2.58667 18.3598 2.48ZM18.1198 2.56C18.1731 2.61333 18.1998 2.64 18.1998 2.64C18.1998 2.58667 18.1731 2.56 18.1198 2.56C18.1198 2.50667 18.1198 2.50667 18.1198 2.56ZM18.1998 2.88C18.1998 2.93333 18.1998 3.01333 18.1998 3.12C18.1998 3.17334 18.2264 3.14667 18.2798 3.04C18.3331 2.77333 18.3064 2.69333 18.1998 2.8C18.0931 2.85333 18.0931 2.88 18.1998 2.88ZM18.2798 33.2C18.2798 33.3067 18.2798 33.3333 18.2798 33.28C18.3331 33.2267 18.3331 33.1733 18.2798 33.12V33.2ZM18.2798 34.08C18.2798 34.1333 18.2798 34.16 18.2798 34.16C18.3331 34.16 18.3598 34.1333 18.3598 34.08C18.3598 34.0267 18.3331 34 18.2798 34C18.2798 34 18.2798 34.0267 18.2798 34.08ZM18.3598 34.48C18.4131 34.5867 18.4398 34.64 18.4398 34.64C18.4398 34.5867 18.4131 34.5333 18.3598 34.48C18.3598 34.3733 18.3598 34.3733 18.3598 34.48ZM18.4398 35.04C18.4398 35.3067 18.4398 35.44 18.4398 35.44C18.4931 35.3867 18.5198 35.2533 18.5198 35.04V34.88L18.4398 34.72V35.04ZM18.5198 35.68C18.5731 35.5733 18.5731 35.4933 18.5198 35.44C18.5198 35.3867 18.5198 35.44 18.5198 35.6V35.68ZM18.5998 36.16V36V36.16ZM18.6798 36.56V36.48C18.6798 36.48 18.6798 36.5067 18.6798 36.56ZM18.7598 37.44C18.7064 37.3333 18.6798 37.3333 18.6798 37.44C18.6798 37.4933 18.7064 37.52 18.7598 37.52V37.44ZM18.8398 41.36C18.8398 41.2533 18.8131 41.1733 18.7598 41.12C18.7598 41.0667 18.7598 41.12 18.7598 41.28C18.7598 41.3867 18.7864 41.4133 18.8398 41.36ZM18.8398 37.84V37.76C18.7864 37.6533 18.7598 37.6533 18.7598 37.76C18.7598 37.8133 18.7864 37.84 18.8398 37.84ZM18.8398 41.68C18.8931 41.68 18.9198 41.68 18.9198 41.68C18.9198 41.6267 18.8931 41.6 18.8398 41.6V41.68ZM18.8398 2.72C18.9464 2.61333 18.9464 2.56 18.8398 2.56C18.7331 2.66667 18.7331 2.72 18.8398 2.72ZM20.1998 6C20.1998 5.89333 20.1731 5.86667 20.1198 5.92C20.1198 5.92 20.1464 5.94667 20.1998 6ZM20.5198 5.76C20.5198 5.70667 20.4664 5.70667 20.3598 5.76C20.2531 5.81333 20.2531 5.84 20.3598 5.84C20.4131 5.84 20.4398 5.84 20.4398 5.84C20.4398 5.78667 20.4664 5.76 20.5198 5.76ZM21.1598 18C21.1598 17.9467 21.1598 17.92 21.1598 17.92V18ZM20.9998 17.6C21.1064 17.4933 21.1064 17.44 20.9998 17.44C20.9998 17.3867 20.9998 17.3333 20.9998 17.28C20.9464 17.28 20.9198 17.3333 20.9198 17.44C20.9198 17.6 20.9464 17.6533 20.9998 17.6ZM20.9998 17.2C20.9998 17.1467 20.9731 17.0933 20.9198 17.04C20.9198 16.9867 20.9198 17.0133 20.9198 17.12C20.9731 17.1733 20.9998 17.2 20.9998 17.2ZM20.7598 11.2C20.7064 11.2 20.6798 11.2267 20.6798 11.28C20.7331 11.28 20.7864 11.28 20.8398 11.28C20.8398 11.2267 20.8131 11.2 20.7598 11.2ZM20.8398 12.88V13.28C20.8398 13.44 20.8398 13.6267 20.8398 13.84V13.68C20.8931 13.4133 20.9198 13.28 20.9198 13.28C20.9198 13.28 20.9198 13.4133 20.9198 13.68C20.9198 13.84 20.9464 13.9467 20.9998 14C20.9998 14 20.9998 14.0267 20.9998 14.08V13.92C20.9998 13.76 20.9731 13.6 20.9198 13.44V12.96C20.9198 13.0133 20.8931 12.9867 20.8398 12.88ZM20.9198 14.56C20.8664 14.6133 20.8664 14.64 20.9198 14.64C20.9731 14.8 20.9998 14.7467 20.9998 14.48C21.0531 14.2133 21.0531 14.16 20.9998 14.32C20.9464 14.3733 20.9198 14.4 20.9198 14.4C20.9731 14.4 20.9731 14.4533 20.9198 14.56ZM20.9998 14.8C20.9998 14.7467 20.9731 14.72 20.9198 14.72C20.9198 14.72 20.9198 14.7467 20.9198 14.8C20.9198 14.8533 20.9198 14.88 20.9198 14.88C20.9731 14.88 20.9998 14.8533 20.9998 14.8ZM20.9198 14.96C20.9198 14.96 20.8931 15.0667 20.8398 15.28C20.8398 15.44 20.8398 15.6267 20.8398 15.84C20.8398 16.0533 20.8398 16.24 20.8398 16.4C20.8931 16.56 20.9464 16.64 20.9998 16.64C20.9998 16.32 20.9998 16.0267 20.9998 15.76C20.9998 15.2267 20.9731 14.96 20.9198 14.96ZM20.9998 17.76C20.8931 17.7067 20.8398 17.7333 20.8398 17.84C20.8931 17.8933 20.9731 17.8933 21.0798 17.84C21.1331 17.84 21.1598 17.6533 21.1598 17.28C21.1064 17.6 21.0531 17.76 20.9998 17.76ZM21.0798 18.72C21.1331 18.6667 21.1331 18.64 21.0798 18.64C21.0264 18.64 20.9998 18.6667 20.9998 18.72C20.9998 18.7733 20.9998 18.8 20.9998 18.8C21.0531 18.8 21.0798 18.7733 21.0798 18.72ZM23.3998 51.52C23.3998 51.4667 23.3731 51.44 23.3198 51.44C23.3198 51.44 23.3198 51.4667 23.3198 51.52C23.3198 51.6267 23.3198 51.6533 23.3198 51.6C23.3731 51.6 23.3998 51.5733 23.3998 51.52ZM23.0798 51.04C23.0264 51.04 22.9998 51.0667 22.9998 51.12C22.9998 51.1733 23.0264 51.2 23.0798 51.2V51.12C23.1331 51.12 23.1598 51.0933 23.1598 51.04C23.1598 51.04 23.1331 51.04 23.0798 51.04ZM24.5998 51.04C24.5464 50.9333 24.5198 50.9067 24.5198 50.96C24.5731 51.0667 24.6264 51.12 24.6798 51.12C24.6798 51.0667 24.6531 51.0133 24.5998 50.96C24.5998 50.96 24.5998 50.9867 24.5998 51.04ZM24.3598 48.56C24.3598 48.6667 24.3598 48.72 24.3598 48.72C24.4131 48.6667 24.4398 48.6133 24.4398 48.56C24.4398 48.5067 24.4131 48.48 24.3598 48.48C24.3598 48.48 24.3598 48.5067 24.3598 48.56ZM24.1198 50.48V50.24C24.0664 50.08 24.0131 50 23.9598 50C23.9598 50 23.9864 50.08 24.0398 50.24L24.1198 50.48ZM24.1198 47.68C24.1198 47.6267 24.0931 47.6 24.0398 47.6C23.9864 47.4933 23.9598 47.4933 23.9598 47.6C24.0131 47.7067 24.0664 47.7333 24.1198 47.68ZM24.0398 47.36C23.9864 47.3067 23.9598 47.28 23.9598 47.28C23.9064 47.3333 23.9064 47.3867 23.9598 47.44C24.0664 47.4933 24.0931 47.4667 24.0398 47.36ZM23.9598 46.96V46.88C23.8531 46.8267 23.8264 46.8533 23.8798 46.96C23.9331 47.0133 23.9598 47.0133 23.9598 46.96ZM23.7998 46.32C23.7998 46.48 23.8264 46.5867 23.8798 46.64C23.8798 46.64 23.8798 46.6667 23.8798 46.72V46.48L23.7998 46.24V46.32ZM23.8798 45.36C23.8798 45.2533 23.8531 45.1733 23.7998 45.12C23.7998 45.0667 23.7998 45.0933 23.7998 45.2C23.7998 45.4667 23.8264 45.52 23.8798 45.36ZM23.7998 44.72C23.7464 44.72 23.7198 44.72 23.7198 44.72C23.7198 44.8267 23.7198 44.88 23.7198 44.88C23.7731 44.8267 23.7998 44.7733 23.7998 44.72ZM23.7998 45.92C23.7464 45.92 23.7198 45.9733 23.7198 46.08C23.7731 46.1333 23.7998 46.1333 23.7998 46.08C23.8531 46.0267 23.8531 45.9733 23.7998 45.92ZM23.2398 41.44C23.2398 41.3333 23.2131 41.28 23.1598 41.28C23.1598 41.28 23.1598 41.3333 23.1598 41.44C23.2131 41.6 23.2398 41.6 23.2398 41.44ZM23.1598 40.96V41.04C23.1598 41.1467 23.1598 41.1733 23.1598 41.12C23.2131 41.0667 23.2131 41.0133 23.1598 40.96ZM22.9998 49.36C22.9998 49.3067 22.9731 49.28 22.9198 49.28C22.9198 49.28 22.9198 49.3067 22.9198 49.36C23.0264 49.4667 23.0798 49.5733 23.0798 49.68C23.0798 49.84 23.0798 49.8933 23.0798 49.84C23.1331 49.7867 23.1598 49.7333 23.1598 49.68C23.1598 49.52 23.1064 49.4133 22.9998 49.36ZM22.7598 51.12C22.7598 51.2267 22.7598 51.2533 22.7598 51.2C22.8131 51.2 22.8398 51.1733 22.8398 51.12C22.8398 51.0667 22.8131 51.04 22.7598 51.04C22.7598 51.04 22.7598 51.0667 22.7598 51.12ZM22.0398 37.68C22.0398 37.5733 22.0131 37.5467 21.9598 37.6C21.9598 37.6533 21.9598 37.7067 21.9598 37.76C22.0131 37.8133 22.0398 37.7867 22.0398 37.68ZM21.7998 18.4C21.8531 18.3467 21.8264 18.3733 21.7198 18.48C21.6131 18.5333 21.5864 18.56 21.6398 18.56C21.6931 18.6133 21.7464 18.56 21.7998 18.4ZM21.7198 28.08C21.8264 27.9733 21.8264 27.92 21.7198 27.92C21.6664 27.9733 21.6131 28.0267 21.5598 28.08C21.5598 28.1333 21.6131 28.1333 21.7198 28.08ZM22.1198 27.2C21.9064 27.4133 21.7998 27.4933 21.7998 27.44C21.7998 27.3867 21.8798 27.36 22.0398 27.36C22.0931 27.4133 22.1464 27.4133 22.1998 27.36C22.3064 27.1467 22.3598 27.04 22.3598 27.04L22.4398 26.96C22.3864 26.96 22.2798 27.04 22.1198 27.2ZM21.8798 23.76C21.9864 23.6533 22.0131 23.6 21.9598 23.6C21.9598 23.6 21.9064 23.6533 21.7998 23.76C21.7464 23.8667 21.7198 23.92 21.7198 23.92C21.7731 23.92 21.8264 23.8667 21.8798 23.76ZM22.4398 26.4C22.4931 26.2933 22.4931 26.2667 22.4398 26.32C22.3331 26.4267 22.2798 26.5067 22.2798 26.56C22.3331 26.56 22.3864 26.5067 22.4398 26.4ZM22.7598 22.4C22.8664 22.2933 22.8931 22.24 22.8398 22.24C22.8398 22.24 22.7864 22.2933 22.6798 22.4C22.6264 22.5067 22.5998 22.56 22.5998 22.56C22.5998 22.56 22.6531 22.5067 22.7598 22.4ZM23.0798 22.16C23.1331 22.0533 23.1331 22 23.0798 22C23.0798 22 23.0531 22.0533 22.9998 22.16C22.9464 22.2133 22.9198 22.2667 22.9198 22.32C22.9198 22.32 22.9731 22.2667 23.0798 22.16ZM24.8398 24.32C24.8931 24.2667 24.8931 24.24 24.8398 24.24C24.8398 24.24 24.7864 24.2933 24.6798 24.4C24.5731 24.4533 24.5464 24.48 24.5998 24.48C24.6531 24.48 24.7064 24.4533 24.7598 24.4C24.7598 24.3467 24.7598 24.3467 24.7598 24.4C24.8131 24.4533 24.8398 24.4267 24.8398 24.32ZM26.9998 22.48C27.1598 22.2133 27.2398 22.08 27.2398 22.08C27.1864 22.08 27.0798 22.1867 26.9198 22.4C26.7598 22.56 26.6264 22.64 26.5198 22.64C26.4131 22.6933 26.3598 22.7467 26.3598 22.8C26.4131 22.8533 26.3864 22.9067 26.2798 22.96C26.1731 23.0667 26.1198 23.12 26.1198 23.12C26.1198 23.2267 26.1464 23.2267 26.1998 23.12C26.2531 23.0133 26.2798 22.9867 26.2798 23.04C26.3331 23.0933 26.3864 23.0667 26.4398 22.96C26.5464 22.8533 26.5998 22.8533 26.5998 22.96C26.5464 23.0133 26.5464 23.04 26.5998 23.04C26.6531 22.9867 26.7064 22.9067 26.7598 22.8C26.8664 22.7467 26.9731 22.6667 27.0798 22.56C27.0264 22.56 26.9731 22.5867 26.9198 22.64C26.7598 22.7467 26.6531 22.8 26.5998 22.8C26.5464 22.7467 26.5464 22.7467 26.5998 22.8C26.5464 22.8 26.5198 22.7733 26.5198 22.72C26.6264 22.6667 26.6531 22.6933 26.5998 22.8C26.5998 22.8533 26.7331 22.7467 26.9998 22.48ZM27.3998 22L27.4798 21.92C27.5864 21.8667 27.6398 21.84 27.6398 21.84C27.6931 21.7867 27.7731 21.7333 27.8798 21.68C27.8798 21.6267 27.7998 21.68 27.6398 21.84C27.5864 21.8933 27.5064 21.9467 27.3998 22ZM27.9598 21.92C28.0131 21.8667 28.0131 21.84 27.9598 21.84C27.9064 21.84 27.8798 21.8667 27.8798 21.92C27.8798 21.9733 27.8798 22 27.8798 22C27.9331 22 27.9598 21.9733 27.9598 21.92ZM28.1998 21.28C28.1998 21.3333 28.2264 21.36 28.2798 21.36C28.3331 21.3067 28.3331 21.2533 28.2798 21.2L28.1998 21.28ZM28.4398 21.12C28.4931 21.0667 28.5198 21.0133 28.5198 20.96C28.6264 20.8533 28.6264 20.8533 28.5198 20.96C28.4131 21.0667 28.3864 21.12 28.4398 21.12ZM28.5198 21.12C28.5731 21.1733 28.5998 21.1733 28.5998 21.12C28.5998 21.0133 28.5731 20.9867 28.5198 21.04C28.5198 21.04 28.5198 21.0667 28.5198 21.12ZM28.8398 20.72C28.8398 20.6133 28.8398 20.56 28.8398 20.56V20.64V20.72ZM29.1598 20.64C29.1598 20.5867 29.1331 20.5867 29.0798 20.64C28.9731 20.7467 28.9198 20.8 28.9198 20.8C28.9731 20.8 29.0531 20.7467 29.1598 20.64ZM29.2398 20.4C29.2398 20.2933 29.1864 20.2933 29.0798 20.4H29.1598C29.1598 20.4 29.1864 20.4 29.2398 20.4ZM28.5198 22.08C28.5731 22.0267 28.5998 21.9733 28.5998 21.92C28.5998 21.8667 28.5731 21.8667 28.5198 21.92C28.4131 21.9733 28.3598 22.0533 28.3598 22.16C28.3598 22.2133 28.4131 22.1867 28.5198 22.08ZM29.5598 21.12C29.5064 21.0133 29.4264 21.0133 29.3198 21.12C29.2131 21.1733 29.1598 21.2533 29.1598 21.36C29.1598 21.4667 29.1864 21.4667 29.2398 21.36C29.3464 21.2533 29.4264 21.2 29.4798 21.2C29.5331 21.1467 29.5598 21.12 29.5598 21.12ZM29.3998 20.08C29.3464 20.1867 29.3464 20.2133 29.3998 20.16C29.5064 20.1067 29.5864 20.0267 29.6398 19.92C29.7464 19.8133 29.7464 19.8133 29.6398 19.92C29.5331 19.9733 29.4531 20.0267 29.3998 20.08ZM29.6398 20.56C29.7464 20.5067 29.7998 20.48 29.7998 20.48C29.7998 20.4267 29.7464 20.4533 29.6398 20.56C29.5864 20.6667 29.5598 20.72 29.5598 20.72C29.5598 20.72 29.5864 20.6667 29.6398 20.56ZM31.3198 18.64L31.2398 18.72C31.1864 18.8267 31.1598 18.88 31.1598 18.88L31.2398 18.72C31.2931 18.72 31.3198 18.72 31.3198 18.72C31.3731 18.6667 31.3731 18.64 31.3198 18.64ZM30.9998 18.56C30.9998 18.6667 31.0798 18.64 31.2398 18.48C31.2931 18.3733 31.2664 18.3733 31.1598 18.48C31.1064 18.5333 31.0531 18.56 30.9998 18.56ZM30.7598 18.88C30.7064 18.8267 30.6798 18.8267 30.6798 18.88C30.6798 18.9333 30.7064 18.96 30.7598 18.96C30.8131 18.96 30.8398 18.96 30.8398 18.96C30.8398 18.9067 30.8131 18.88 30.7598 18.88ZM29.8798 10.96C29.7731 11.0133 29.7464 11.0667 29.7998 11.12C29.8531 11.1733 29.8798 11.1467 29.8798 11.04C29.8798 10.9867 29.9064 10.96 29.9598 10.96C30.0131 11.0133 30.0131 11.0133 29.9598 10.96C29.9598 10.8533 29.9331 10.8533 29.8798 10.96ZM29.9598 19.68C29.8531 19.7333 29.7998 19.7867 29.7998 19.84C29.8531 19.84 29.9064 19.7867 29.9598 19.68ZM29.9598 20.24C30.0131 20.1867 30.0131 20.16 29.9598 20.16C29.8531 20.2667 29.7998 20.3467 29.7998 20.4C29.8531 20.4 29.9064 20.3467 29.9598 20.24ZM30.0398 19.76C29.9864 19.8667 30.0131 19.8933 30.1198 19.84C30.2798 19.68 30.2531 19.6533 30.0398 19.76ZM30.3598 19.76C30.4131 19.6533 30.4398 19.6 30.4398 19.6C30.3864 19.6533 30.3598 19.7067 30.3598 19.76C30.2531 19.8667 30.1998 19.92 30.1998 19.92C30.0931 19.92 30.0664 19.9467 30.1198 20C30.1198 20.16 30.1998 20.08 30.3598 19.76ZM30.5198 19.28C30.5731 19.28 30.5731 19.28 30.5198 19.28C30.4664 19.2267 30.4931 19.1733 30.5998 19.12C30.6531 19.0133 30.6798 18.96 30.6798 18.96C30.6798 18.9067 30.5998 18.9867 30.4398 19.2L30.2798 19.36C30.3331 19.3067 30.3598 19.28 30.3598 19.28C30.4664 19.28 30.5198 19.28 30.5198 19.28ZM30.7598 19.44C30.8131 19.3867 30.8398 19.36 30.8398 19.36C30.8398 19.3067 30.8131 19.3067 30.7598 19.36C30.5998 19.4667 30.5198 19.5467 30.5198 19.6C30.5731 19.6 30.6531 19.5467 30.7598 19.44ZM30.9198 19.04C30.9731 18.9867 30.9998 18.96 30.9998 18.96C30.9998 18.8533 30.9464 18.8533 30.8398 18.96C30.7331 19.0667 30.6798 19.1733 30.6798 19.28C30.6798 19.3333 30.7064 19.3067 30.7598 19.2C30.8664 19.04 30.9198 18.9867 30.9198 19.04ZM31.3998 19.04C31.4531 18.9867 31.4798 18.96 31.4798 18.96C31.4798 18.9067 31.4531 18.9067 31.3998 18.96C31.3464 19.0133 31.2931 19.04 31.2398 19.04C31.2398 19.04 31.2664 19.0133 31.3198 18.96C31.3731 18.8533 31.3731 18.8267 31.3198 18.88C31.2131 18.9867 31.1598 19.0667 31.1598 19.12C31.2131 19.1733 31.2131 19.1733 31.1598 19.12V19.04C31.1598 19.04 31.1331 19.0667 31.0798 19.12C31.0264 19.2267 30.9998 19.2533 30.9998 19.2C31.0531 19.1467 31.1064 19.1467 31.1598 19.2C31.2664 19.3067 31.3198 19.3333 31.3198 19.28C31.3198 19.2267 31.2931 19.2 31.2398 19.2C31.2398 19.2533 31.2931 19.2 31.3998 19.04ZM31.6398 18.64C31.5331 18.6933 31.4798 18.7467 31.4798 18.8C31.5331 18.8 31.5864 18.7467 31.6398 18.64ZM31.7198 18.32C31.7731 18.2133 31.7464 18.1867 31.6398 18.24C31.5864 18.2933 31.5598 18.3467 31.5598 18.4C31.5598 18.4533 31.6131 18.4267 31.7198 18.32ZM31.8798 18.48H32.0398C32.0398 18.4267 31.9864 18.4 31.8798 18.4C31.8264 18.4 31.8264 18.4267 31.8798 18.48ZM32.5998 10.64C32.6531 10.5867 32.6531 10.56 32.5998 10.56C32.5464 10.6133 32.4931 10.6667 32.4398 10.72H32.5198C32.5198 10.72 32.5464 10.6933 32.5998 10.64ZM32.5198 17.92C32.4131 17.9733 32.3598 18.0267 32.3598 18.08C32.4131 18.08 32.4664 18.0267 32.5198 17.92ZM32.1198 17.92C32.1198 17.9733 32.2264 17.8933 32.4398 17.68C32.4931 17.5733 32.5731 17.4667 32.6798 17.36C32.6798 17.4133 32.6531 17.4667 32.5998 17.52C32.4931 17.68 32.3864 17.76 32.2798 17.76C32.2264 17.7067 32.1998 17.7067 32.1998 17.76C32.2531 17.8133 32.2531 17.84 32.1998 17.84C32.1464 17.84 32.1198 17.8667 32.1198 17.92ZM32.7598 17.28C32.8131 17.3333 32.8664 17.3333 32.9198 17.28C33.0264 17.1733 33.0798 17.0933 33.0798 17.04C33.0798 16.9867 33.0264 17.0133 32.9198 17.12C32.8664 17.2267 32.8131 17.2533 32.7598 17.2V17.28ZM36.5998 12.16C36.5464 12.16 36.5198 12.1867 36.5198 12.24C36.5198 12.24 36.5464 12.24 36.5998 12.24C36.6531 12.1867 36.6531 12.16 36.5998 12.16ZM36.5198 12.72C36.4131 12.8267 36.3864 12.88 36.4398 12.88C36.5464 12.8267 36.5998 12.7733 36.5998 12.72C36.6531 12.6667 36.6264 12.6667 36.5198 12.72ZM36.1998 12.56C36.0931 12.6667 36.0398 12.72 36.0398 12.72C36.0398 12.7733 36.0931 12.7467 36.1998 12.64C36.3064 12.5333 36.3064 12.5067 36.1998 12.56ZM33.8798 9.36C33.7731 9.41333 33.7464 9.44 33.7998 9.44C33.8531 9.44 33.9064 9.41333 33.9598 9.36C34.0131 9.25333 34.0131 9.2 33.9598 9.2C33.9064 9.2 33.8798 9.22667 33.8798 9.28V9.36ZM33.8798 16.32C33.7731 16.3733 33.7198 16.4267 33.7198 16.48C33.7731 16.48 33.8531 16.4267 33.9598 16.32C34.0664 16.2133 34.0931 16.16 34.0398 16.16C34.0398 16.16 33.9864 16.2133 33.8798 16.32ZM33.3198 16.88C33.4264 16.72 33.3998 16.72 33.2398 16.88C33.0798 17.04 33.0531 17.0933 33.1598 17.04C33.2131 16.9867 33.2398 16.96 33.2398 16.96C33.2931 16.96 33.3198 16.9333 33.3198 16.88ZM33.1598 10C33.1598 10.1067 33.1598 10.1333 33.1598 10.08C33.2131 10.0267 33.2931 9.97333 33.3998 9.92C33.4531 9.86667 33.4264 9.86667 33.3198 9.92C33.2131 9.92 33.1598 9.94667 33.1598 10ZM33.3998 17.04C33.4531 17.0933 33.4798 17.0933 33.4798 17.04C33.4798 16.9333 33.4531 16.9067 33.3998 16.96C33.3464 16.96 33.3464 16.9867 33.3998 17.04ZM33.5598 17.04C33.5598 17.1467 33.5864 17.1733 33.6398 17.12C33.7464 17.0133 33.7998 16.9333 33.7998 16.88C33.7998 16.9333 33.7198 16.96 33.5598 16.96V17.04ZM33.8798 16.8L34.0398 16.72C33.9864 16.72 33.9331 16.7467 33.8798 16.8C33.8264 16.8533 33.8264 16.8533 33.8798 16.8ZM34.1198 14.48C34.1731 14.4267 34.1464 14.4267 34.0398 14.48C33.9331 14.5867 33.8798 14.64 33.8798 14.64C33.9331 14.64 34.0131 14.5867 34.1198 14.48ZM34.1998 9.04C34.2531 8.93333 34.2264 8.93333 34.1198 9.04C34.0664 9.14667 34.0398 9.22667 34.0398 9.28C34.0398 9.44 34.0931 9.36 34.1998 9.04ZM34.5198 16.4V16.32L34.4398 16.4H34.5198ZM34.4398 8.88C34.5464 8.77333 34.5998 8.69334 34.5998 8.64C34.5998 8.58667 34.5731 8.61333 34.5198 8.72C34.4131 8.82667 34.3598 8.88 34.3598 8.88C34.3598 8.93333 34.3864 8.93333 34.4398 8.88ZM34.6798 8.56C34.6264 8.61334 34.5998 8.66667 34.5998 8.72C34.5998 8.72 34.6531 8.66667 34.7598 8.56C34.7598 8.50667 34.7331 8.50667 34.6798 8.56ZM34.8398 16.24C34.9464 16.1333 34.9464 16.1067 34.8398 16.16C34.7331 16.2133 34.6798 16.2667 34.6798 16.32H34.7598C34.7598 16.32 34.7864 16.2933 34.8398 16.24ZM36.6798 14.32V14.16C36.6264 14.1067 36.5998 14.1333 36.5998 14.24C36.5998 14.2933 36.6264 14.32 36.6798 14.32ZM36.9198 13.6C36.9731 13.4933 36.9998 13.44 36.9998 13.44C36.9998 13.44 36.9198 13.52 36.7598 13.68C36.5998 13.7867 36.4931 13.84 36.4398 13.84C36.4398 13.7867 36.4398 13.8133 36.4398 13.92C36.4398 13.9733 36.3864 14 36.2798 14C36.1731 14 36.1464 14.0267 36.1998 14.08C36.2531 14.1333 36.2264 14.16 36.1198 14.16C36.0664 14.16 36.0131 14.1867 35.9598 14.24C35.9598 14.2933 35.9864 14.2933 36.0398 14.24C36.1464 14.1867 36.1731 14.1867 36.1198 14.24C36.1198 14.2933 36.0931 14.32 36.0398 14.32C35.9331 14.32 35.7464 14.48 35.4798 14.8C35.2131 15.0667 35.0531 15.2 34.9998 15.2L34.9198 15.28C34.8664 15.3333 34.8398 15.3867 34.8398 15.44L34.9998 15.28C34.9998 15.3333 35.0798 15.28 35.2398 15.12C35.4531 14.9067 35.5864 14.8 35.6398 14.8C35.7464 14.8 35.7998 14.7733 35.7998 14.72C35.8531 14.6133 35.9064 14.5867 35.9598 14.64C36.0131 14.6933 36.0398 14.6667 36.0398 14.56C36.0931 14.4533 36.1464 14.4267 36.1998 14.48C36.2531 14.48 36.2798 14.4267 36.2798 14.32C36.3331 14.32 36.4131 14.24 36.5198 14.08C36.6264 13.92 36.6798 13.8667 36.6798 13.92C36.6264 13.9733 36.6264 14.0267 36.6798 14.08C36.7331 14.08 36.7598 14.0267 36.7598 13.92C36.7064 13.8133 36.6798 13.7867 36.6798 13.84C36.7331 13.84 36.8131 13.76 36.9198 13.6ZM38.0398 11.36V11.28C38.0398 11.2267 38.0131 11.2 37.9598 11.2C38.0131 11.3067 38.0398 11.36 38.0398 11.36ZM38.1198 10.72C38.1731 10.6667 38.1731 10.64 38.1198 10.64C38.0131 10.7467 37.9864 10.8 38.0398 10.8C38.0931 10.8 38.1198 10.7733 38.1198 10.72ZM38.5998 11.84C38.5464 11.8933 38.5464 11.9467 38.5998 12C38.6531 12.0533 38.6531 12.0267 38.5998 11.92V11.84ZM38.7598 10.88C38.7064 10.9333 38.6798 10.9067 38.6798 10.8C38.6264 10.8533 38.5998 10.9067 38.5998 10.96C38.6531 11.0133 38.7064 10.9867 38.7598 10.88ZM39.8798 3.6V3.68C39.8264 3.78667 39.8264 3.81334 39.8798 3.76C39.9331 3.70667 39.9331 3.65333 39.8798 3.6ZM39.8798 3.28C39.7731 3.33333 39.7198 3.38667 39.7198 3.44C39.7731 3.49333 39.8264 3.46667 39.8798 3.36V3.28ZM39.5598 3.84C39.5064 3.89334 39.5064 3.92 39.5598 3.92C39.6131 3.92 39.6398 3.89334 39.6398 3.84C39.6931 3.78667 39.6664 3.78667 39.5598 3.84ZM39.3198 3.92C39.2131 4.02667 39.2131 4.08 39.3198 4.08C39.3731 4.08 39.3998 4.05333 39.3998 4C39.4531 3.89334 39.4264 3.86667 39.3198 3.92ZM39.1598 10.72C39.2131 10.6667 39.2131 10.64 39.1598 10.64C39.0531 10.5333 39.0264 10.48 39.0798 10.48C39.0264 10.48 38.9998 10.56 38.9998 10.72C39.0531 10.8267 39.1064 10.8267 39.1598 10.72ZM39.1598 3.04C39.1598 3.09333 39.1864 3.06667 39.2398 2.96C39.3464 2.85333 39.3464 2.82667 39.2398 2.88C39.1864 2.98667 39.1598 3.04 39.1598 3.04ZM39.7198 11.12L39.6398 11.04C39.5864 11.04 39.5598 11.0933 39.5598 11.2C39.6131 11.2533 39.6664 11.2267 39.7198 11.12ZM39.7198 10.96C39.7198 10.9067 39.7198 10.88 39.7198 10.88V10.96ZM39.9598 10.88V10.8C39.9064 10.8 39.8798 10.8267 39.8798 10.88C39.8798 10.9333 39.9064 10.9333 39.9598 10.88ZM39.5598 10.4C39.7731 10.2933 39.9864 10.1333 40.1998 9.92C40.3064 9.76 40.2798 9.78667 40.1198 10C39.9598 10.16 39.8264 10.1867 39.7198 10.08C39.7198 10.0267 39.6664 10.0267 39.5598 10.08C39.5064 10.1333 39.4798 10.1867 39.4798 10.24C39.4798 10.2933 39.5064 10.2933 39.5598 10.24C39.6131 10.1333 39.6664 10.1067 39.7198 10.16C39.7198 10.2133 39.6664 10.2667 39.5598 10.32C39.4531 10.32 39.3731 10.32 39.3198 10.32V10.56C39.2131 10.6133 39.1864 10.64 39.2398 10.64C39.3464 10.5867 39.3998 10.5333 39.3998 10.48C39.3998 10.4267 39.3998 10.4267 39.3998 10.48C39.4531 10.5333 39.5064 10.5067 39.5598 10.4ZM40.2798 10.48C40.2798 10.48 40.3064 10.48 40.3598 10.48C40.3598 10.3733 40.2798 10.4 40.1198 10.56C40.0131 10.6667 40.0131 10.6667 40.1198 10.56L40.2798 10.48ZM40.4398 10.4C40.4398 10.3467 40.4398 10.32 40.4398 10.32H40.3598C40.3598 10.3733 40.3864 10.4 40.4398 10.4ZM40.7598 9.2V9.12C40.7064 9.12 40.6798 9.14667 40.6798 9.2C40.6798 9.2 40.7064 9.2 40.7598 9.2ZM41.6398 2.08C41.5864 2.08 41.5598 2.08 41.5598 2.08C41.6131 2.08 41.6398 2.08 41.6398 2.08ZM42.2798 8.32C42.3864 8.26667 42.4398 8.24 42.4398 8.24C42.4398 8.18667 42.4398 8.16 42.4398 8.16L42.1998 8.4C42.1998 8.4 42.2264 8.37333 42.2798 8.32ZM42.5998 8.48C42.7598 8.32 42.7331 8.32 42.5198 8.48C42.3598 8.58667 42.3064 8.64 42.3598 8.64C42.4131 8.64 42.4398 8.64 42.4398 8.64C42.4398 8.58667 42.4664 8.56 42.5198 8.56C42.5198 8.56 42.5464 8.53333 42.5998 8.48ZM44.9198 5.12C44.8131 5.22667 44.8131 5.28 44.9198 5.28V5.2C44.9731 5.14667 44.9731 5.12 44.9198 5.12ZM44.2798 5.92C44.1731 5.97333 44.1198 6 44.1198 6C44.1731 6 44.2264 5.97333 44.2798 5.92C44.3331 5.86667 44.3598 5.89333 44.3598 6C44.4131 6 44.4398 6 44.4398 6C44.4398 5.94667 44.4664 5.89333 44.5198 5.84C44.5198 5.78667 44.4931 5.76 44.4398 5.76C44.4398 5.76 44.4398 5.78667 44.4398 5.84C44.4398 5.78667 44.3864 5.81333 44.2798 5.92ZM43.7198 0.479999C43.6131 0.533334 43.5598 0.586669 43.5598 0.640001C43.5598 0.640001 43.6131 0.613335 43.7198 0.560002C43.8264 0.453334 43.8264 0.426666 43.7198 0.479999ZM43.7998 7.04C43.6931 7.09333 43.6398 7.14667 43.6398 7.2C43.6398 7.2 43.6931 7.17333 43.7998 7.12C43.9064 7.01333 43.9064 6.98667 43.7998 7.04ZM44.1198 7.12C44.0664 7.06667 44.0131 7.09333 43.9598 7.2C43.9598 7.25334 43.9331 7.25334 43.8798 7.2C43.8264 7.2 43.7998 7.22667 43.7998 7.28C43.8531 7.33333 43.8531 7.33333 43.7998 7.28H43.7198C43.7731 7.33333 43.8264 7.36 43.8798 7.36C43.9864 7.30667 44.0398 7.25334 44.0398 7.2C44.0398 7.14667 44.0664 7.12 44.1198 7.12ZM44.9198 2.48C44.8664 2.48 44.8398 2.50667 44.8398 2.56C44.8398 2.56 44.8664 2.56 44.9198 2.56C44.9731 2.56 44.9998 2.53333 44.9998 2.48C45.0531 2.42667 45.0264 2.42667 44.9198 2.48ZM24.4398 24.96C24.3864 25.0667 24.3864 25.12 24.4398 25.12C24.4931 25.12 24.4931 25.1467 24.4398 25.2V25.12C24.3864 25.0667 24.3331 25.04 24.2798 25.04C24.3864 24.9867 24.4398 24.96 24.4398 24.96Z" fill="#D7F000"/>
</svg>
